<svg width="561" height="477" viewBox="0 0 561 477" fill="none" xmlns="http://www.w3.org/2000/svg">
<path d="M438.219 398.362H477.669V387.687H438.219V398.362Z" fill="#EBEBEB"/>
<path d="M460.222 411.813C466.774 411.718 483.571 411.479 489.899 411.422L499.671 411.384L499.155 411.823L499.11 401.147L499.671 401.624C493.119 401.605 476.412 401.558 470.084 401.481L460.222 401.376L460.491 401.147L460.222 411.823V411.813ZM460.222 411.813L459.953 401.138V400.918H460.222C465.147 400.861 475.021 400.766 479.947 400.728L499.671 400.661H500.232V401.138L500.176 411.813V412.252H499.66L489.708 412.214C483.425 412.157 466.696 411.918 460.211 411.823L460.222 411.813Z" fill="#EBEBEB"/>
<path d="M311.287 226.642C317.84 226.546 334.636 226.308 340.964 226.251L350.737 226.212L350.221 226.651L350.176 215.976L350.737 216.453C344.184 216.434 327.478 216.386 321.15 216.31L311.287 216.205L311.557 215.976L311.287 226.651V226.642ZM311.287 226.642L311.018 215.967V215.747H311.287C316.213 215.69 326.087 215.594 331.012 215.556L350.737 215.49H351.298V215.967L351.242 226.642V227.081H350.726L340.773 227.042C334.49 226.985 317.761 226.747 311.276 226.651L311.287 226.642Z" fill="#EBEBEB"/>
<path d="M333.29 240.103C339.842 240.007 356.639 239.769 362.967 239.712L372.739 239.673L372.223 240.112L372.178 229.437L372.739 229.914C366.187 229.895 349.48 229.847 343.152 229.771L333.29 229.666L333.559 229.437L333.29 240.112V240.103ZM333.29 240.103L333.021 229.427V229.208H333.29C338.215 229.151 348.089 229.055 353.015 229.017L372.739 228.95H373.3V229.427L373.244 240.103V240.542H372.728L362.776 240.503C356.493 240.446 339.764 240.208 333.279 240.112L333.29 240.103Z" fill="#EBEBEB"/>
<path d="M355.203 226.642H394.652V215.966H355.203V226.642Z" fill="#EBEBEB"/>
<path d="M61.3283 411.823H100.778V401.147H61.3283V411.823Z" fill="#EBEBEB"/>
<path d="M83.3307 53.548L122.78 53.548V42.8727H83.3307V53.548Z" fill="#EBEBEB"/>
<path d="M61.3284 66.9994C67.8808 66.904 84.6772 66.6655 91.0053 66.6083L100.778 66.5701L100.262 67.009L100.217 56.3337L100.778 56.8107C94.2254 56.7916 77.5188 56.7439 71.1907 56.6676L61.3284 56.5627L61.5976 56.3337L61.3284 67.009V66.9994ZM61.3284 66.9994L61.0591 56.3242V56.1047H61.3284C66.2539 56.0475 76.1275 55.9521 81.0531 55.9139L100.778 55.8472H101.339V56.3242L101.283 66.9994V67.4383H100.767L90.8145 67.4001C84.5313 67.3429 67.8023 67.1044 61.3171 67.009L61.3284 66.9994Z" fill="#EBEBEB"/>
<path d="M438.219 53.5385C444.772 53.4431 461.568 53.2046 467.896 53.1473L477.669 53.1092L477.153 53.548L477.108 42.8728L477.669 43.3498L457.944 43.283C453.03 43.2544 443.134 43.1494 438.219 43.1017L438.489 42.8728L438.219 53.548V53.5385ZM438.219 53.5385L437.95 42.8632V42.6438H438.219C443.145 42.5866 453.019 42.4912 457.944 42.453L477.669 42.3862H478.23V42.8632L478.174 53.5385V53.9773H477.658L467.706 53.9392C461.422 53.8819 444.693 53.6434 438.208 53.548L438.219 53.5385Z" fill="#EBEBEB"/>
<path d="M198.594 82.75H107.746V176.442H198.594V82.75Z" fill="#EBEBEB"/>
<path d="M188.204 91.3074H118.124V167.904H188.204V91.3074Z" fill="white"/>
<path d="M120.862 91.3074H118.124V167.904H120.862V91.3074Z" fill="#DBDBDB"/>
<path d="M201.32 82.75H198.583V176.442H201.32V82.75Z" fill="#DBDBDB"/>
<path d="M158.134 101.868H141.607V143.73H158.134V101.868Z" fill="#DBDBDB"/>
<path d="M178.465 130.364H134.404V150.875H178.465V130.364Z" stroke="#EBEBEB" stroke-miterlimit="10"/>
<path d="M450.528 82.75H359.68V176.442H450.528V82.75Z" fill="#EBEBEB"/>
<path d="M440.138 91.3074H370.058V167.904H440.138V91.3074Z" fill="white"/>
<path d="M372.796 91.3074H370.058V167.904H372.796V91.3074Z" fill="#DBDBDB"/>
<path d="M453.266 82.75H450.528V176.442H453.266V82.75Z" fill="#DBDBDB"/>
<path d="M410.069 101.868H393.542V143.73H410.069V101.868Z" fill="#DBDBDB"/>
<path d="M430.399 130.364H386.338V150.875H430.399V130.364Z" stroke="#EBEBEB" stroke-miterlimit="10"/>
<path d="M324.561 105.293H233.712V198.985H324.561V105.293Z" fill="#EBEBEB"/>
<path d="M314.171 113.85H244.091V190.447H314.171V113.85Z" fill="white"/>
<path d="M246.829 113.85H244.091V190.447H246.829V113.85Z" fill="#DBDBDB"/>
<path d="M327.298 105.293H324.561V198.985H327.298V105.293Z" fill="#DBDBDB"/>
<path d="M286.502 133.646H272.343V164.078H286.502V133.646Z" fill="#EBEBEB"/>
<path d="M301.414 152.144H263.378V173.122H301.414V152.144Z" stroke="#DBDBDB" stroke-miterlimit="10"/>
<path d="M428.817 363.045L422.107 375.18C419.213 380.408 412.436 382.487 406.298 380.026C400.587 377.746 397.704 371.802 400.599 366.575L411.336 347.161C411.437 346.97 411.662 347.056 411.763 346.874C411.688 346.69 411.684 346.537 411.751 346.416C414.433 341.561 421.861 339.29 427.572 341.57C441.406 347.103 457.753 342.238 464.16 330.666C470.668 318.903 464.519 305.28 450.696 299.756C441.698 296.16 431.521 297.104 423.947 301.598C418.394 304.851 410.988 303.706 407.162 298.993C403.561 294.357 404.795 288.242 410.349 284.988C424.654 276.574 443.919 274.704 460.816 281.459C486.286 291.638 497.438 317.52 485.467 339.176C475.245 357.655 451.537 367.09 428.851 363.035L428.817 363.045ZM406.209 403.924L404.346 407.282C401.451 412.51 394.674 414.58 388.537 412.128C382.826 409.848 379.943 403.905 382.837 398.686L384.7 395.328C387.482 390.291 394.809 388.202 400.52 390.482C406.669 392.943 409.002 398.887 406.22 403.933L406.209 403.924Z" fill="#EBEBEB"/>
<path d="M95.4147 311.968L88.952 299.737C86.1694 294.471 88.7276 288.738 94.921 286.381C100.677 284.187 107.858 286.19 110.64 291.466L120.974 311.033C121.075 311.223 120.85 311.309 120.951 311.491C121.168 311.561 121.307 311.659 121.367 311.786C123.947 316.68 121.142 322.948 115.386 325.142C101.44 330.466 95.123 344.184 101.283 355.852C107.544 367.71 123.7 372.623 137.636 367.3C146.713 363.837 152.491 356.653 153.422 348.84C154.14 343.144 159.986 339.099 166.684 339.71C173.169 340.406 177.814 345.186 177.108 350.881C175.301 365.592 164.418 379.234 147.386 385.74C121.714 395.538 91.3531 385.874 79.8301 364.046C69.9902 345.415 77.0139 323.969 95.4147 311.977V311.968ZM73.6591 270.755L71.8751 267.368C69.0926 262.102 71.6507 256.378 77.8554 254.012C83.6113 251.818 90.7921 253.821 93.5634 259.087L95.3474 262.474C98.029 267.559 95.123 273.636 89.3671 275.84C83.1737 278.206 76.3407 275.84 73.6591 270.755Z" fill="#EBEBEB"/>
<path d="M155.072 350.347C140.531 367.09 125.361 386.532 121.67 407.53C121.625 407.844 122.22 407.949 122.309 407.635C123.992 401.872 126.135 396.282 128.738 390.816C138.298 388.583 147.678 386.742 152.704 378.671C157.821 370.381 157.17 359.563 156.205 350.528C156.138 350.042 155.364 350.023 155.072 350.337V350.347Z" fill="#A53860"/>
<path d="M128.884 390.663C135.414 378.194 143.807 365.678 154.466 355.432C154.533 355.365 154.645 355.46 154.578 355.527C147.599 362.825 142.292 370.782 137.12 378.872C141.933 374.712 147.207 370.991 151.773 366.584C151.863 366.498 152.009 366.622 151.919 366.708C147.386 371.325 142.438 376.353 136.548 379.768C134.966 382.249 133.372 384.739 131.745 387.229C132.138 387.038 132.553 386.876 132.957 386.704C133.025 386.675 133.092 386.761 133.025 386.799C132.576 386.99 132.127 387.2 131.667 387.362C130.904 388.536 130.141 389.718 129.356 390.892C129.176 391.149 128.75 390.921 128.896 390.663H128.884Z" fill="#263238"/>
<path d="M133.743 386.313C137.636 384.414 141.395 382.373 144.907 379.978C144.997 379.911 145.142 380.026 145.041 380.093C141.597 382.573 137.928 384.796 133.9 386.542C133.72 386.618 133.563 386.399 133.743 386.313Z" fill="#263238"/>
<path d="M119.987 404.41C120.021 404.668 120.526 404.658 120.514 404.391C120.593 397.475 120.514 390.529 120.649 383.584C122.736 380.007 127.201 378.032 130.321 375.16C132.565 373.09 134.483 370.763 136.121 368.292C139.97 362.444 142.046 355.861 142.853 349.212C143.717 341.818 140.407 317.405 136.738 318.254C134.831 318.693 128.683 330.78 127.044 334.778C124.374 341.351 122.489 348.172 121.255 355.041C118.282 371.316 118.528 388.03 119.987 404.401V404.41Z" fill="#A53860"/>
<path d="M119.931 374.569L119.964 374.54C120.413 365.792 122.725 356.949 124.901 348.468C127.235 339.328 129.973 330.714 135.504 322.557C135.605 322.404 135.874 322.538 135.773 322.69C132.003 328.996 129.311 335.693 127.257 342.572C127.628 342.076 128.076 341.608 128.458 341.15C128.615 340.969 128.963 341.141 128.817 341.332C128.278 342.019 127.785 342.82 127.089 343.411C127.067 343.43 127.044 343.43 127.022 343.44C125.114 349.975 123.746 356.662 122.579 363.331C122.668 363.245 122.747 363.159 122.837 363.073C122.893 363.016 122.994 363.092 122.96 363.15C122.814 363.369 122.657 363.588 122.489 363.808C121.894 367.195 121.356 370.572 120.806 373.92C127.897 368.769 133.945 362.701 137.355 355.222C137.367 355.184 137.434 355.203 137.423 355.241C134.079 362.997 128.806 369.894 120.694 374.607C120.548 375.513 120.402 376.41 120.245 377.307C120.211 377.498 119.863 377.441 119.863 377.259C119.863 376.458 119.908 375.666 119.953 374.865C119.852 374.788 119.807 374.664 119.931 374.579V374.569Z" fill="#263238"/>
<path d="M123.263 361.89C128.682 355.022 133.742 348.344 137.703 340.74C137.748 340.654 137.916 340.712 137.883 340.807C134.539 348.353 129.86 356.004 123.543 362.072C123.42 362.196 123.162 362.033 123.274 361.89H123.263Z" fill="#263238"/>
<path d="M130.466 339.052C132.71 335.674 135.078 332.393 137.187 328.949C137.243 328.853 137.4 328.939 137.355 329.035C135.583 332.555 133.462 336.123 130.814 339.223C130.668 339.395 130.343 339.242 130.466 339.052Z" fill="#263238"/>
<path d="M129.592 340.521C129.592 340.521 129.637 340.579 129.592 340.579C129.546 340.579 129.546 340.521 129.592 340.521Z" fill="#263238"/>
<path d="M114.478 384.405C114.343 388.984 113.76 393.573 112.582 398.028C112.66 398.524 112.75 399.011 112.829 399.516C114.523 394.555 115.42 389.461 115.69 384.328C115.779 384.185 115.824 384.033 115.712 383.861V383.842C116.015 376.983 115.275 370.047 113.917 363.264C111.404 350.557 105.895 338.355 95.4713 328.834C95.1459 328.539 94.4839 328.691 94.3156 329.035C90.1081 338.126 91.5779 348.983 95.1571 358.055C97.1094 362.94 99.8919 367.633 103.426 371.841C107.005 376.115 111.561 379.73 114.467 384.405H114.478Z" fill="#A53860"/>
<path d="M96.7169 333.099C106.602 346.731 113.468 362.902 114.31 379.005C114.321 379.291 113.76 379.368 113.715 379.072C113.48 377.622 113.221 376.191 112.952 374.76C112.952 374.76 112.941 374.76 112.93 374.76C108.846 371.43 104.649 367.92 101.721 363.76C101.665 363.684 101.788 363.598 101.867 363.665C105.424 367.118 108.745 370.658 112.761 373.739C112.055 370.181 111.213 366.67 110.226 363.217C109.956 362.959 109.698 362.692 109.44 362.434C109.272 362.263 109.553 362.014 109.732 362.186C109.811 362.263 109.889 362.339 109.968 362.406C108.565 357.664 106.86 353.018 104.807 348.458C102.293 345.911 99.477 343.707 97.6481 340.626C97.6033 340.549 97.7267 340.492 97.7828 340.559C99.2526 342.314 100.678 344.089 102.349 345.711C103.011 346.359 103.741 346.97 104.436 347.6C102.192 342.734 99.5219 337.955 96.3466 333.261C96.2008 333.051 96.5822 332.87 96.7281 333.07L96.7169 333.099Z" fill="#263238"/>
<path d="M98.7138 349.918C101.912 353.572 105.547 357.063 108.52 360.832C108.61 360.937 108.419 361.051 108.318 360.965C104.503 357.922 101.272 353.772 98.5118 350.023C98.4221 349.908 98.6353 349.813 98.725 349.918H98.7138Z" fill="#263238"/>
<path d="M108.958 361.681L109.093 361.795C109.183 361.871 109.037 362.005 108.947 361.919L108.812 361.805C108.722 361.728 108.868 361.604 108.958 361.681Z" fill="#263238"/>
<path d="M81.2329 359.305C82.0295 366.317 86.3717 374.703 91.6563 380.102C94.0013 382.497 96.8512 384.319 100.116 385.712C103.774 387.248 107.611 389.022 111.403 390.291C113.176 394.136 114.534 398.161 115.398 402.359C115.521 402.006 115.645 401.644 115.768 401.291C113.333 383.527 99.8244 368.349 82.5344 358.609C81.9173 358.256 81.1768 358.704 81.2441 359.305H81.2329Z" fill="#A53860"/>
<path d="M87.2021 364.552C87.0787 364.457 87.247 364.275 87.3817 364.361C96.5484 370.133 104.795 378.547 109.407 387.448C109.53 387.687 109.137 387.906 108.98 387.658C108.172 386.465 107.353 385.292 106.523 384.157C106.523 384.157 106.523 384.157 106.512 384.157C102.562 383.527 98.8261 381.161 95.8976 378.919C95.8191 378.862 95.9313 378.757 96.0098 378.824C97.5358 379.969 99.1851 381.018 101.003 381.81C102.607 382.506 104.346 382.945 106.018 383.498C104.559 381.524 103.034 379.635 101.44 377.794C97.1992 376.563 93.1487 374.35 89.5808 372.127C89.4686 372.06 89.5696 371.898 89.693 371.965C93.3283 373.825 96.9187 375.466 100.711 376.973C98.3212 374.283 95.7293 371.726 92.9243 369.255C91.5779 368.654 90.2203 368.044 88.9188 367.404C88.8178 367.347 88.8851 367.195 89.0086 367.233C90.0408 367.528 91.0955 367.986 92.0828 368.511C90.5233 367.166 88.9188 365.849 87.1909 364.552H87.2021Z" fill="#263238"/>
<path d="M87.5723 370.686C87.8079 370.82 88.0211 370.934 88.2343 371.087C88.3016 371.135 88.2118 371.201 88.1557 371.182C87.8977 371.087 87.6957 370.972 87.4601 370.848C87.3367 370.782 87.4601 370.619 87.5723 370.686Z" fill="#263238"/>
<path d="M142.741 440.815H95.3701L99.1849 404.133L100.026 396.044H138.073L138.915 404.133L142.741 440.815Z" fill="#455A64"/>
<path d="M138.915 404.133L99.4653 401.472L100.026 396.044H138.073L138.915 404.133Z" fill="#37474F"/>
<path d="M140.34 390.386H97.7598V398.39H140.34V390.386Z" fill="#455A64"/>
<path d="M381.222 440.815H273.689C269.022 425.207 261.818 401.186 255.546 380.264C255.546 380.255 255.546 380.236 255.535 380.226C255.154 378.938 254.772 377.669 254.402 376.42C254.166 375.637 253.931 374.865 253.706 374.111C247.681 354.001 242.913 338.088 242.801 337.725C242.733 337.497 242.677 337.325 242.632 337.191C242.565 337 242.542 336.896 242.542 336.896H346.361L381.21 440.834L381.222 440.815Z" fill="#37474F"/>
<path d="M343.018 336.838V336.876C343.018 336.934 343.006 337.039 343.006 337.172C343.006 338.212 342.995 339.252 342.973 340.292C342.928 342.934 342.782 345.577 342.58 348.219C341.795 358.847 339.999 369.389 337.823 379.005C333.514 398.095 327.781 413.502 325.773 418.625C325.335 419.75 325.066 420.38 325.043 420.447C325.032 420.456 321.442 421.964 316.763 423.929C316.55 424.024 316.325 424.12 316.101 424.215C310.715 426.486 304.051 429.3 299.708 431.141C297.408 432.114 295.748 432.82 295.277 433.04C295.209 433.059 295.164 433.078 295.153 433.097C295.131 433.106 294.962 436.236 294.738 440.824H182.605C184.849 424.654 185.152 422.517 185.152 422.517C184.49 419.397 181.562 411.355 182.605 402.016C184.905 381.485 199.727 340.254 201.062 337.792C201.376 337.191 201.567 336.886 201.567 336.886H229.931L297.128 336.857H343.029L343.018 336.838Z" fill="#37474F"/>
<path d="M295.265 432.82V433.03C295.299 435.625 295.176 438.22 295.142 440.815H294.009C294.256 438.21 294.458 435.587 294.828 432.992C294.85 432.753 294.873 432.534 294.918 432.296C294.94 432.114 295.243 432.114 295.254 432.305C295.254 432.477 295.265 432.649 295.265 432.82Z" fill="#263238"/>
<path d="M281.813 437.819C286.581 435.005 291.72 432.648 296.769 430.225C301.93 427.745 307.17 425.369 312.544 423.242C323.035 419.083 334.12 416.087 345.161 413.177C345.441 413.101 345.632 413.492 345.352 413.588C334.715 417.47 324.404 421.925 313.823 425.913C308.505 427.917 303.142 429.844 297.812 431.838C292.483 433.831 287.288 436.092 281.925 438C281.779 438.048 281.678 437.895 281.813 437.829V437.819Z" fill="#263238"/>
<path d="M310.917 393.563C311.052 389.127 311.422 384.7 311.68 380.264C312.286 369.808 312.769 359.286 313.913 348.859C313.958 348.448 314.665 348.448 314.676 348.878C314.833 356.968 314.463 365.086 314.272 373.176C314.171 377.221 314.037 381.276 313.902 385.321C313.779 389.175 313.476 393.077 313.812 396.921C314.07 399.84 314.822 405.507 319.299 405.86C323.518 406.194 325.829 402.321 326.884 399.487C329.554 392.285 330.508 384.51 331.372 377.021C331.888 372.585 332.404 368.158 332.718 363.712C333.032 359.219 333.447 352.598 333.156 348.115C333.133 347.828 333.627 347.847 333.683 348.124C334.513 351.969 334.547 359.782 334.435 364.371C333.414 405.641 325.75 407.997 321.711 408.665C321.195 408.751 320.701 408.789 320.208 408.798C320.163 409.733 320.006 410.678 319.927 411.613C319.804 413.082 319.591 414.532 319.366 415.992C319.142 417.413 318.76 418.844 318.312 420.227C317.874 421.601 317.436 423.051 316.561 424.282C316.415 424.482 316.09 424.368 316.079 424.158C315.955 422.765 316.269 421.353 316.494 419.979C316.718 418.558 316.954 417.117 317.302 415.705C317.638 414.322 317.941 412.929 318.278 411.546C318.502 410.621 318.659 409.657 318.861 408.722C316.269 408.379 314.104 406.929 312.881 404.725C310.985 401.31 310.828 397.284 310.94 393.582L310.917 393.563Z" fill="#263238"/>
<path d="M212.899 385.731C219.676 386.131 226.363 386.876 233.163 386.189C239.558 385.54 245.684 383.68 250.8 380.312C261.976 372.947 266.868 360.889 269.897 349.574C269.964 349.317 270.402 349.374 270.368 349.631C269.1 359.439 266.621 369.58 259.171 377.479C255.928 380.923 251.945 383.823 247.289 385.807C242.453 387.868 236.944 388.564 231.581 388.555C225.297 388.545 218.857 387.744 212.776 386.399C212.293 386.294 212.372 385.702 212.888 385.731H212.899Z" fill="#263238"/>
<path d="M360.757 383.441C358.872 383.26 357.02 383.393 355.113 382.211C353.318 381.094 351.567 378.9 350.075 375.399C346.81 367.748 345.206 356.328 344.151 345.749C344.129 345.51 344.005 345.52 344.016 345.768C344.555 354.84 345.453 364.313 347.685 372.136C348.661 375.552 349.828 378.528 351.164 380.713C352.555 382.983 354.103 384.08 355.607 384.51C357.357 385.015 359.141 384.805 360.813 384.071C360.947 384.014 360.914 383.47 360.768 383.451L360.757 383.441Z" fill="#263238"/>
<path d="M211.699 339.691C208.064 356.643 203.744 373.844 199.761 390.749C198.751 395.805 196.967 400.804 197.326 405.946C197.752 411.126 198.886 416.287 200.21 421.363C199.57 424.625 198.942 427.898 198.257 431.151C197.584 434.375 196.945 437.6 196.204 440.815C196.552 437.552 196.989 434.299 197.405 431.046C197.797 427.793 198.269 424.539 198.717 421.286C197.337 417.499 195.789 410.935 195.295 406.061C195.116 404.296 195.116 402.435 195.441 400.68C196.653 393.744 198.358 386.961 200.064 380.159C203.542 366.584 207.368 353.075 211.699 339.672V339.691Z" fill="#263238"/>
<path d="M312.016 211.635C358.894 247.735 392.228 278.845 391.779 292.983C390.781 324.675 371.135 331.515 367.634 330.504C330.664 319.838 307.169 260.003 291.63 223.856C276.202 187.967 298.586 201.294 312.016 211.635Z" fill="#F7A9A0"/>
<path d="M378.551 263.066L319.489 289.882C319.489 289.882 295.434 245.254 287.243 218.571C279.052 191.888 291.63 192.746 319.13 213.629C346.63 234.512 378.551 263.075 378.551 263.075V263.066Z" fill="#A53860"/>
<path d="M305.879 229.466C304.017 229.466 302.491 230.763 302.491 232.347C302.491 233.93 304.017 235.256 305.879 235.256C307.742 235.256 309.302 233.94 309.302 232.347C309.302 230.754 307.787 229.466 305.879 229.466ZM305.879 234.76C304.342 234.76 303.074 233.682 303.074 232.347C303.074 231.011 304.342 229.962 305.879 229.962C307.417 229.962 308.718 231.04 308.718 232.347C308.718 233.654 307.45 234.76 305.879 234.76ZM343.545 233.062C343.186 234.045 342.109 234.76 340.83 234.76C339.293 234.76 338.025 233.682 338.025 232.347C338.025 231.307 338.821 230.42 339.921 230.095C339.775 229.962 339.618 229.838 339.461 229.714C338.272 230.162 337.441 231.173 337.441 232.347C337.441 233.94 338.967 235.256 340.83 235.256C342.277 235.256 343.489 234.503 343.994 233.444L343.545 233.062ZM288.41 205.768C286.547 205.768 285.021 207.066 285.021 208.649C285.021 210.233 286.547 211.559 288.41 211.559C290.272 211.559 291.832 210.243 291.832 208.649C291.832 207.056 290.317 205.768 288.41 205.768ZM288.41 211.063C286.873 211.063 285.605 209.985 285.605 208.649C285.605 207.314 286.873 206.264 288.41 206.264C289.947 206.264 291.249 207.342 291.249 208.649C291.249 209.956 289.981 211.063 288.41 211.063ZM340.83 277.28C338.967 277.28 337.441 278.578 337.441 280.161C337.441 280.657 337.587 281.125 337.856 281.545L338.361 281.316C338.148 280.972 338.025 280.581 338.025 280.161C338.025 278.854 339.293 277.776 340.83 277.776C341.918 277.776 342.872 278.301 343.343 279.055L343.859 278.816C343.287 277.91 342.154 277.28 340.83 277.28ZM323.349 253.583C321.486 253.583 319.961 254.88 319.961 256.464C319.961 258.047 321.486 259.374 323.349 259.374C325.212 259.374 326.771 258.057 326.771 256.464C326.771 254.871 325.256 253.583 323.349 253.583ZM323.349 258.877C321.812 258.877 320.544 257.799 320.544 256.464C320.544 255.128 321.812 254.079 323.349 254.079C324.886 254.079 326.188 255.157 326.188 256.464C326.188 257.771 324.92 258.877 323.349 258.877ZM358.299 253.583C356.437 253.583 354.911 254.88 354.911 256.464C354.911 258.047 356.437 259.374 358.299 259.374C360.162 259.374 361.721 258.057 361.721 256.464C361.721 254.871 360.207 253.583 358.299 253.583ZM358.299 258.877C356.762 258.877 355.494 257.799 355.494 256.464C355.494 255.128 356.762 254.079 358.299 254.079C359.836 254.079 361.138 255.157 361.138 256.464C361.138 257.771 359.87 258.877 358.299 258.877Z" fill="white"/>
<path d="M366.512 255.329C343.713 268.227 321.655 276.574 317.234 278.702C317.021 278.806 316.853 278.501 317.077 278.415C321.543 276.517 345.8 263.895 366.333 255.014C366.569 254.909 366.726 255.205 366.512 255.329Z" fill="#263238"/>
<path opacity="0.1" d="M365.637 269.505L319.5 289.882C319.5 289.882 295.445 245.254 287.243 218.561C284.236 208.726 284.034 202.639 286.368 199.911L365.648 269.505H365.637Z" fill="black"/>
<path d="M347.999 338.174L340.313 297.104C340.313 297.104 355.382 281.01 345.497 263.371C340.504 254.441 315.259 210.529 297.116 199.596C282.216 190.619 256.926 195.465 248.5 207.857C229.426 235.896 210.476 268.856 199.458 338.212L347.999 338.174Z" fill="#A53860"/>
<path d="M235.99 229.466C235.53 229.466 235.092 229.542 234.7 229.685C233.466 230.124 232.602 231.154 232.602 232.347C232.602 232.623 232.646 232.89 232.747 233.148C233.151 234.36 234.453 235.256 235.99 235.256C237.897 235.256 239.412 233.94 239.412 232.347C239.412 230.753 237.897 229.466 235.99 229.466ZM235.99 234.76C234.453 234.76 233.196 233.692 233.185 232.356C233.185 231.612 233.589 230.944 234.217 230.515C234.217 230.515 234.221 230.512 234.228 230.505C234.7 230.162 235.317 229.962 235.99 229.962C237.561 229.962 238.829 231.04 238.829 232.347C238.829 233.654 237.561 234.76 235.99 234.76ZM270.94 229.466C269.078 229.466 267.552 230.763 267.552 232.347C267.552 233.93 269.078 235.256 270.94 235.256C272.803 235.256 274.362 233.94 274.362 232.347C274.362 230.753 272.848 229.466 270.94 229.466ZM270.94 234.76C269.403 234.76 268.135 233.682 268.135 232.347C268.135 231.011 269.403 229.962 270.94 229.962C272.477 229.962 273.779 231.04 273.779 232.347C273.779 233.654 272.511 234.76 270.94 234.76ZM305.879 229.466C304.017 229.466 302.491 230.763 302.491 232.347C302.491 233.93 304.017 235.256 305.879 235.256C307.742 235.256 309.302 233.94 309.302 232.347C309.302 230.753 307.787 229.466 305.879 229.466ZM305.879 234.76C304.342 234.76 303.074 233.682 303.074 232.347C303.074 231.011 304.342 229.962 305.879 229.962C307.417 229.962 308.718 231.04 308.718 232.347C308.718 233.654 307.45 234.76 305.879 234.76ZM253.471 205.768C251.608 205.768 250.082 207.066 250.082 208.649C250.082 210.233 251.608 211.559 253.471 211.559C255.333 211.559 256.893 210.242 256.893 208.649C256.893 207.056 255.378 205.768 253.471 205.768ZM253.471 211.063C251.934 211.063 250.666 209.985 250.666 208.649C250.666 207.314 251.934 206.264 253.471 206.264C255.008 206.264 256.309 207.342 256.309 208.649C256.309 209.956 255.042 211.063 253.471 211.063ZM288.41 205.768C286.547 205.768 285.021 207.066 285.021 208.649C285.021 210.233 286.547 211.559 288.41 211.559C290.272 211.559 291.832 210.242 291.832 208.649C291.832 207.056 290.317 205.768 288.41 205.768ZM288.41 211.063C286.873 211.063 285.605 209.985 285.605 208.649C285.605 207.314 286.873 206.264 288.41 206.264C289.947 206.264 291.249 207.342 291.249 208.649C291.249 209.956 289.981 211.063 288.41 211.063ZM235.99 277.28C234.128 277.28 232.602 278.577 232.602 280.161C232.602 281.745 234.128 283.071 235.99 283.071C237.853 283.071 239.412 281.754 239.412 280.161C239.412 278.568 237.897 277.28 235.99 277.28ZM235.99 282.575C234.453 282.575 233.185 281.497 233.185 280.161C233.185 278.826 234.453 277.776 235.99 277.776C237.527 277.776 238.829 278.854 238.829 280.161C238.829 281.468 237.561 282.575 235.99 282.575ZM270.94 277.28C269.078 277.28 267.552 278.577 267.552 280.161C267.552 281.745 269.078 283.071 270.94 283.071C272.803 283.071 274.362 281.754 274.362 280.161C274.362 278.568 272.848 277.28 270.94 277.28ZM270.94 282.575C269.403 282.575 268.135 281.497 268.135 280.161C268.135 278.826 269.403 277.776 270.94 277.776C272.477 277.776 273.779 278.854 273.779 280.161C273.779 281.468 272.511 282.575 270.94 282.575ZM305.879 277.28C304.017 277.28 302.491 278.577 302.491 280.161C302.491 281.745 304.017 283.071 305.879 283.071C307.742 283.071 309.302 281.754 309.302 280.161C309.302 278.568 307.787 277.28 305.879 277.28ZM305.879 282.575C304.342 282.575 303.074 281.497 303.074 280.161C303.074 278.826 304.342 277.776 305.879 277.776C307.417 277.776 308.718 278.854 308.718 280.161C308.718 281.468 307.45 282.575 305.879 282.575ZM340.83 277.28C338.967 277.28 337.441 278.577 337.441 280.161C337.441 281.745 338.967 283.071 340.83 283.071C342.692 283.071 344.252 281.754 344.252 280.161C344.252 278.568 342.737 277.28 340.83 277.28ZM340.83 282.575C339.293 282.575 338.025 281.497 338.025 280.161C338.025 278.826 339.293 277.776 340.83 277.776C342.367 277.776 343.668 278.854 343.668 280.161C343.668 281.468 342.4 282.575 340.83 282.575ZM221.785 255.605C221.64 255.939 221.494 256.282 221.348 256.626C221.314 257.093 221.135 257.504 220.843 257.857H220.832C220.686 258.21 220.551 258.553 220.405 258.896C221.337 258.372 221.943 257.475 221.943 256.464C221.943 256.168 221.886 255.882 221.785 255.605ZM253.471 253.583C251.608 253.583 250.082 254.88 250.082 256.464C250.082 258.047 251.608 259.373 253.471 259.373C255.333 259.373 256.893 258.057 256.893 256.464C256.893 254.871 255.378 253.583 253.471 253.583ZM253.471 258.877C251.934 258.877 250.666 257.799 250.666 256.464C250.666 255.128 251.934 254.079 253.471 254.079C255.008 254.079 256.309 255.157 256.309 256.464C256.309 257.771 255.042 258.877 253.471 258.877ZM288.41 253.583C286.547 253.583 285.021 254.88 285.021 256.464C285.021 258.047 286.547 259.373 288.41 259.373C290.272 259.373 291.832 258.057 291.832 256.464C291.832 254.871 290.317 253.583 288.41 253.583ZM288.41 258.877C286.873 258.877 285.605 257.799 285.605 256.464C285.605 255.128 286.873 254.079 288.41 254.079C289.947 254.079 291.249 255.157 291.249 256.464C291.249 257.771 289.981 258.877 288.41 258.877ZM323.349 253.583C321.486 253.583 319.961 254.88 319.961 256.464C319.961 258.047 321.486 259.373 323.349 259.373C325.211 259.373 326.771 258.057 326.771 256.464C326.771 254.871 325.256 253.583 323.349 253.583ZM323.349 258.877C321.812 258.877 320.544 257.799 320.544 256.464C320.544 255.128 321.812 254.079 323.349 254.079C324.886 254.079 326.188 255.157 326.188 256.464C326.188 257.771 324.92 258.877 323.349 258.877ZM201.702 325.142C201.679 325.304 201.646 325.467 201.612 325.638C202.913 325.858 203.89 326.831 203.89 327.976C203.89 329.311 202.622 330.389 201.051 330.389C200.961 330.389 200.871 330.389 200.77 330.38C200.748 330.542 200.714 330.704 200.692 330.866C200.815 330.876 200.939 330.885 201.062 330.885C202.97 330.885 204.484 329.569 204.484 327.976C204.484 326.573 203.306 325.4 201.713 325.142H201.702ZM235.99 325.094C234.128 325.094 232.602 326.392 232.602 327.976C232.602 329.559 234.128 330.885 235.99 330.885C237.853 330.885 239.412 329.569 239.412 327.976C239.412 326.382 237.897 325.094 235.99 325.094ZM235.99 330.389C234.453 330.389 233.185 329.311 233.185 327.976C233.185 326.64 234.453 325.591 235.99 325.591C237.527 325.591 238.829 326.669 238.829 327.976C238.829 329.283 237.561 330.389 235.99 330.389ZM270.94 325.094C269.078 325.094 267.552 326.392 267.552 327.976C267.552 329.559 269.078 330.885 270.94 330.885C272.803 330.885 274.362 329.569 274.362 327.976C274.362 326.382 272.848 325.094 270.94 325.094ZM270.94 330.389C269.403 330.389 268.135 329.311 268.135 327.976C268.135 326.64 269.403 325.591 270.94 325.591C272.477 325.591 273.779 326.669 273.779 327.976C273.779 329.283 272.511 330.389 270.94 330.389ZM305.879 325.094C304.017 325.094 302.491 326.392 302.491 327.976C302.491 329.559 304.017 330.885 305.879 330.885C307.742 330.885 309.302 329.569 309.302 327.976C309.302 326.382 307.787 325.094 305.879 325.094ZM305.879 330.389C304.342 330.389 303.074 329.311 303.074 327.976C303.074 326.64 304.342 325.591 305.879 325.591C307.417 325.591 308.718 326.669 308.718 327.976C308.718 329.283 307.45 330.389 305.879 330.389ZM340.83 325.094C338.967 325.094 337.441 326.392 337.441 327.976C337.441 329.559 338.967 330.885 340.83 330.885C342.692 330.885 344.252 329.569 344.252 327.976C344.252 326.382 342.737 325.094 340.83 325.094ZM340.83 330.389C339.293 330.389 338.025 329.311 338.025 327.976C338.025 326.64 339.293 325.591 340.83 325.591C342.367 325.591 343.668 326.669 343.668 327.976C343.668 329.283 342.4 330.389 340.83 330.389ZM218.52 301.397C216.658 301.397 215.132 302.695 215.132 304.278C215.132 305.862 216.658 307.188 218.52 307.188C220.383 307.188 221.943 305.871 221.943 304.278C221.943 302.685 220.428 301.397 218.52 301.397ZM218.52 306.692C216.983 306.692 215.715 305.614 215.715 304.278C215.715 302.943 216.983 301.893 218.52 301.893C220.058 301.893 221.359 302.971 221.359 304.278C221.359 305.585 220.091 306.692 218.52 306.692ZM253.471 301.397C251.608 301.397 250.082 302.695 250.082 304.278C250.082 305.862 251.608 307.188 253.471 307.188C255.333 307.188 256.893 305.871 256.893 304.278C256.893 302.685 255.378 301.397 253.471 301.397ZM253.471 306.692C251.934 306.692 250.666 305.614 250.666 304.278C250.666 302.943 251.934 301.893 253.471 301.893C255.008 301.893 256.309 302.971 256.309 304.278C256.309 305.585 255.042 306.692 253.471 306.692ZM288.41 301.397C286.547 301.397 285.021 302.695 285.021 304.278C285.021 305.862 286.547 307.188 288.41 307.188C290.272 307.188 291.832 305.871 291.832 304.278C291.832 302.685 290.317 301.397 288.41 301.397ZM288.41 306.692C286.873 306.692 285.605 305.614 285.605 304.278C285.605 302.943 286.873 301.893 288.41 301.893C289.947 301.893 291.249 302.971 291.249 304.278C291.249 305.585 289.981 306.692 288.41 306.692ZM323.349 301.397C321.486 301.397 319.961 302.695 319.961 304.278C319.961 305.862 321.486 307.188 323.349 307.188C325.211 307.188 326.771 305.871 326.771 304.278C326.771 302.685 325.256 301.397 323.349 301.397ZM323.349 306.692C321.812 306.692 320.544 305.614 320.544 304.278C320.544 302.943 321.812 301.893 323.349 301.893C324.886 301.893 326.188 302.971 326.188 304.278C326.188 305.585 324.92 306.692 323.349 306.692Z" fill="white"/>
<path d="M315.293 286.753C307.607 287.555 299.888 288.585 292.415 290.35C288.69 291.227 285.044 292.248 281.408 293.336C279.591 293.88 277.773 294.366 275.933 294.853C274.048 295.349 272.017 295.816 270.043 295.902C269.863 295.902 269.874 296.141 270.043 296.141C271.972 296.15 273.812 296.16 275.742 295.959C277.571 295.759 279.378 295.396 281.15 294.996C284.932 294.137 288.668 293.126 292.438 292.239C300.045 290.436 307.652 288.642 315.405 287.307C315.764 287.249 315.663 286.725 315.293 286.763V286.753Z" fill="#263238"/>
<path d="M334.547 292.248C328.196 291.809 321.722 291.619 315.349 291.79C312.14 291.876 308.965 292.124 305.79 292.439C304.264 292.592 302.749 292.763 301.234 292.954C299.563 293.164 297.936 293.565 296.264 293.756C296.096 293.775 296.096 294.004 296.264 293.994C297.846 293.86 299.462 293.937 301.044 293.88C302.637 293.822 304.23 293.746 305.823 293.689C309.021 293.565 312.208 293.479 315.405 293.336C321.789 293.04 328.162 292.811 334.558 292.706C334.906 292.706 334.872 292.286 334.535 292.258L334.547 292.248Z" fill="#263238"/>
<path d="M241.522 211.626C196.675 249.538 165.08 280.028 166.292 294.137C169.018 325.753 190.1 331.21 193.545 330.065C229.886 317.949 249.005 259.755 262.559 223.026C276.012 186.574 254.368 200.769 241.533 211.626H241.522Z" fill="#F7A9A0"/>
<path d="M177.871 263.733L238.335 288.184C238.335 288.184 259.922 244.558 266.643 217.579C273.364 190.6 260.843 191.954 234.52 213.896C208.198 235.848 177.871 263.733 177.871 263.733Z" fill="#A53860"/>
<path d="M235.99 229.466C234.128 229.466 232.602 230.763 232.602 232.347C232.602 233.93 234.128 235.256 235.99 235.256C237.853 235.256 239.412 233.94 239.412 232.347C239.412 230.753 237.898 229.466 235.99 229.466ZM235.99 234.76C234.453 234.76 233.185 233.682 233.185 232.347C233.185 231.011 234.453 229.962 235.99 229.962C237.528 229.962 238.829 231.04 238.829 232.347C238.829 233.654 237.561 234.76 235.99 234.76ZM253.471 205.768C251.609 205.768 250.083 207.066 250.083 208.649C250.083 210.233 251.609 211.559 253.471 211.559C255.334 211.559 256.893 210.242 256.893 208.649C256.893 207.056 255.379 205.768 253.471 205.768ZM253.471 211.063C251.934 211.063 250.666 209.985 250.666 208.649C250.666 207.314 251.934 206.264 253.471 206.264C255.008 206.264 256.31 207.342 256.31 208.649C256.31 209.956 255.042 211.063 253.471 211.063ZM235.99 277.28C234.128 277.28 232.602 278.577 232.602 280.161C232.602 281.745 234.128 283.071 235.99 283.071C237.853 283.071 239.412 281.754 239.412 280.161C239.412 278.568 237.898 277.28 235.99 277.28ZM235.99 282.575C234.453 282.575 233.185 281.497 233.185 280.161C233.185 278.826 234.453 277.776 235.99 277.776C237.528 277.776 238.829 278.854 238.829 280.161C238.829 281.468 237.561 282.575 235.99 282.575ZM186.836 255.567C186.678 255.71 186.521 255.853 186.364 255.987C186.398 256.139 186.42 256.302 186.42 256.464C186.42 257.799 185.153 258.877 183.582 258.877C183.458 258.877 183.335 258.868 183.211 258.858C183.043 259.001 182.897 259.144 182.751 259.278C183.021 259.345 183.29 259.373 183.582 259.373C185.489 259.373 187.004 258.057 187.004 256.464C187.004 256.149 186.948 255.853 186.836 255.567ZM218.521 253.583C216.658 253.583 215.132 254.88 215.132 256.464C215.132 258.047 216.658 259.373 218.521 259.373C220.383 259.373 221.943 258.057 221.943 256.464C221.943 254.871 220.428 253.583 218.521 253.583ZM218.521 258.877C216.984 258.877 215.716 257.799 215.716 256.464C215.716 255.128 216.984 254.079 218.521 254.079C220.058 254.079 221.359 255.157 221.359 256.464C221.359 257.771 220.092 258.877 218.521 258.877ZM253.471 253.583C251.609 253.583 250.083 254.88 250.083 256.464C250.083 257.513 250.745 258.439 251.721 258.954C251.788 258.801 251.855 258.639 251.923 258.477C251.171 258.038 250.666 257.303 250.666 256.464C250.666 255.157 251.934 254.079 253.471 254.079C253.572 254.079 253.673 254.079 253.774 254.088C253.841 253.936 253.897 253.783 253.965 253.621C253.808 253.592 253.639 253.583 253.471 253.583Z" fill="white"/>
<path d="M189.472 255.519C212.956 267.502 235.441 274.962 239.973 276.918C240.187 277.013 240.344 276.708 240.119 276.622C235.553 274.905 210.633 263.256 189.629 255.195C189.382 255.1 189.248 255.405 189.472 255.519Z" fill="#263238"/>
<path d="M234.431 286.477C234.812 286.477 237.494 287.393 238.044 287.593C242.823 277.814 241.993 280.037 246.885 270.297C249.286 265.517 251.687 260.747 254.077 255.968C256.557 250.997 258.722 245.846 261.516 240.999C261.594 240.856 261.83 240.942 261.785 241.095C260.315 245.75 258.184 250.301 256.186 254.823C256.658 254.117 257.095 253.392 257.611 252.696C258.767 251.15 259.9 249.605 260.91 247.992C261.067 247.744 261.55 247.906 261.393 248.164C260.428 249.71 259.597 251.284 258.778 252.886C257.959 254.489 257.028 256.035 256.074 257.58C255.154 259.078 254.122 260.509 253.078 261.94C252.955 262.112 252.832 262.293 252.697 262.474C251.407 265.307 250.161 268.15 248.804 270.965C244.024 280.8 238.896 288.614 238.706 288.585C237.92 288.461 234.644 286.935 234.319 286.763C234.15 286.667 234.296 286.486 234.453 286.486L234.431 286.477Z" fill="#263238"/>
<path d="M252.248 153.107C255.737 154.834 260.237 154.901 263.659 152.974C267.025 151.075 268.73 147.593 268.27 144.235C272.141 145.876 276.786 145.895 280.029 142.976C283.384 139.961 283.081 135.63 280.197 132.492C280.175 132.472 280.13 132.492 280.141 132.52C282.407 135.621 282.621 139.751 279.479 142.499C276.797 144.846 273.409 145.027 270.189 144.14C273.386 144.035 276.573 143.081 278.705 140.982C281.05 138.673 281.656 135.249 280.006 132.549C283.675 131.022 286.951 128.303 287.67 124.764C288.275 121.788 286.873 118.62 283.888 116.999C287.109 114.909 288.769 111.217 287.681 107.831C286.671 104.654 283.473 102.278 279.748 101.62C284.315 98.1666 283.114 91.7175 277.414 89.6474C278.795 88.1877 278.884 86.108 277.874 84.4194C276.719 82.4637 274.351 81.3762 271.973 80.7179C272.152 78.7908 271.288 76.797 269.415 75.6045C266.913 74.0113 263.569 74.3452 261.415 76.091C259.002 73.2958 255.939 70.5387 251.81 69.8042C248.422 69.1936 244.551 70.0808 242.588 72.5898C237.494 68.0774 228.966 68.335 224.254 73.1718C221.617 71.8648 218.307 71.9793 215.648 73.2863C212.978 74.5932 211.654 76.0719 211.104 76.8161C208.625 75.7953 205.606 76.3391 203.699 78.0276C201.825 79.6971 201.433 81.8341 201.668 83.9901C201.354 84.5148 200.95 84.9632 200.277 85.4116C197.281 87.4341 195.666 90.3819 195.912 93.6255C191.671 94.9134 189.697 99.464 191.941 102.784C188.283 105.14 187.632 109.958 190.527 112.973C187.901 115.081 186.387 118.077 186.566 121.168C186.701 123.543 188.047 126.138 190.774 126.93C189.315 128.332 190.022 130.584 191.537 131.862C192.109 132.348 192.782 132.74 193.466 133.112C194.285 133.541 195.464 133.903 196.047 134.562C196.675 135.239 196.586 136.231 196.799 137.033C196.956 137.605 197.18 138.168 197.472 138.702C199.705 142.728 205.337 144.989 210.364 143.854C211.205 146.935 214.773 148.576 218.251 149.129C219.396 149.311 220.518 149.33 221.685 149.339C222.751 149.339 223.682 149.406 224.613 149.931C225.174 150.245 225.645 150.675 226.206 150.999C228.114 152.087 230.313 151.915 232.445 151.543C235.081 159.7 247.233 159.604 252.248 153.146V153.107ZM203.542 79.2965C205.259 77.2167 208.086 76.4345 210.947 77.0259C210.846 77.1881 210.779 77.2931 210.779 77.2931C210.779 77.2931 209.836 77.3121 209.388 77.3598C208.557 77.4648 207.749 77.6747 206.998 77.9799C205.416 78.6096 204.047 79.6399 203.149 80.9087C202.745 81.4811 202.476 82.0917 202.252 82.7309C202.218 82.8167 202.184 82.8835 202.162 82.9598C202.274 81.6719 202.611 80.4413 203.553 79.2965H203.542ZM269.201 77.5506C267.249 75.9288 264.209 75.4709 261.785 76.5012C261.74 76.4535 261.695 76.4058 261.65 76.3486C263.962 74.9939 266.509 74.2975 269.089 75.9956C270.884 77.1786 271.367 78.8195 271.199 80.508H271.154C270.828 79.4014 270.2 78.3806 269.19 77.5506H269.201ZM232.882 151.428C232.882 151.428 232.95 151.419 232.983 151.409C236.383 156.265 243.485 157.629 248.882 155.101C243.16 158.25 236.058 158.154 232.882 151.428Z" fill="#263238"/>
<path d="M262.941 206.093C263.85 208.592 280.018 228.349 295.692 224.886C302.278 223.427 295.669 201.771 295.669 201.771L299.821 178.522L264.545 162.275C264.545 162.275 262.571 205.034 262.941 206.093Z" fill="#F7A9A0"/>
<path d="M299.821 178.512L295.793 201.084C291.81 200.779 274.026 198.193 263.838 178.35C264.22 169.65 264.556 162.275 264.556 162.275L299.821 178.512Z" fill="#263238"/>
<path d="M331.832 143.09C345.655 179.772 321.386 190.962 312.073 193.481C303.625 195.77 274.52 202.668 256.31 167.398C238.1 132.129 253.785 115.062 272.781 108.947C291.776 102.832 318.009 106.4 331.832 143.081V143.09Z" fill="#F7A9A0"/>
<path d="M316.943 133.255C315.877 133.245 314.878 133.379 313.823 133.465C312.623 133.56 311.669 133.522 310.693 134.19C310.166 134.552 310.076 135.382 310.446 135.85C311.288 136.928 312.791 137.128 314.227 137.071C315.798 137.004 316.987 136.613 318.154 135.726C319.288 134.867 318.367 133.274 316.954 133.255H316.943Z" fill="#263238"/>
<path d="M286.738 148.385C287.389 147.66 288.13 147.088 288.859 146.429C289.678 145.685 290.239 145.017 291.462 144.779C292.113 144.655 292.943 145.103 293.156 145.638C293.639 146.868 292.898 147.994 291.956 148.929C290.923 149.94 289.835 150.493 288.287 150.722C286.794 150.942 285.886 149.349 286.738 148.395V148.385Z" fill="#263238"/>
<path d="M297.038 154.739C296.982 154.643 296.848 154.91 296.881 155.015C297.779 157.524 298.306 160.53 295.883 161.989C295.804 162.037 295.86 162.161 295.95 162.123C299.114 160.978 298.362 156.99 297.038 154.739Z" fill="#263238"/>
<path d="M293.538 152.707C288.646 153.499 290.867 161.751 295.4 161.016C299.855 160.301 297.644 152.039 293.538 152.707Z" fill="#263238"/>
<path d="M291.743 153.508C291.025 154.138 290.407 155.13 289.409 155.407C288.253 155.74 287.131 155.044 286.133 154.367C286.032 154.3 285.964 154.386 285.987 154.491C286.379 156.074 287.535 157.563 289.588 157.41C291.462 157.276 292.393 155.616 292.427 153.937C292.427 153.623 292.012 153.25 291.731 153.508H291.743Z" fill="#263238"/>
<path d="M314.396 150.207C314.396 150.102 314.665 150.284 314.688 150.389C315.26 152.964 316.416 155.836 319.366 156.179C319.456 156.189 319.479 156.322 319.378 156.322C315.944 156.551 314.452 152.716 314.396 150.198V150.207Z" fill="#263238"/>
<path d="M316.393 147.03C321.162 145.809 323.675 154.004 319.265 155.13C314.923 156.246 312.399 148.051 316.393 147.03Z" fill="#263238"/>
<path d="M318.57 147.126C319.467 147.393 320.454 148.013 321.386 147.86C322.463 147.689 322.968 146.63 323.372 145.628C323.417 145.523 323.506 145.58 323.551 145.685C324.079 147.24 323.978 149.005 322.295 149.702C320.769 150.331 319.164 149.253 318.244 147.794C318.076 147.527 318.199 147.021 318.558 147.135L318.57 147.126Z" fill="#263238"/>
<path d="M298.463 176.461C299.316 176.957 300.225 177.673 301.336 177.587C302.413 177.501 303.557 176.9 304.455 176.433C304.545 176.385 304.657 176.461 304.612 176.547C304.04 177.663 302.514 178.531 301.055 178.541C299.641 178.541 298.744 177.644 298.183 176.623C298.104 176.48 298.329 176.385 298.452 176.461H298.463Z" fill="#263238"/>
<path d="M303.467 171.243C308.157 168.934 310.76 169.039 313.868 168.543C314.183 168.41 314.867 168.009 314.822 167.723V167.704C314.777 167.618 312.679 162.552 312.679 162.552C313.61 162.676 318.312 163.134 317.874 162.17C314.261 154.214 310.244 145.371 304.679 138.111C304.511 137.863 304.051 138.053 304.174 138.311C307.293 146.067 311.983 153.317 315.26 161.064C313.79 160.997 311.355 160.787 310.211 161.121C309.93 161.283 312.803 166.483 313.016 167.351C313.016 167.351 308.113 166.988 302.929 170.88C301.773 171.749 301.751 172.083 303.467 171.243Z" fill="#263238"/>
<path d="M296.107 112.477C296.107 112.477 298.923 117.857 297.442 122.226C294.39 131.223 282.194 130.66 278.806 134.523C275.631 138.139 278.189 144.369 275.372 147.937C271.479 152.878 264.725 152.115 264.5 155.111C264.276 158.106 263.816 167.599 259.732 169.364C255.659 171.128 224.086 112.81 280.702 106.896C280.702 106.896 287.905 103.127 300.876 106.609C315.192 110.454 324.539 128.227 324.539 128.227C324.539 128.227 324.213 128.017 322.003 126.834C318.895 125.165 317.481 123.419 315.226 122.37C311.703 120.719 310.132 121.749 306.497 120.175C300.943 117.781 296.096 112.477 296.096 112.477H296.107Z" fill="#263238"/>
<path d="M294.738 109.939C296.073 112.209 297.128 114.613 297.801 117.056C298.497 119.479 298.845 122.064 297.981 124.363C297.094 126.605 294.817 128.37 292.359 129.553C289.846 130.765 286.94 131.413 284.259 132.806C282.957 133.531 281.7 134.447 280.96 135.754C280.242 137.032 280.107 138.406 280.017 139.675C279.894 142.222 279.759 144.741 278.189 146.763C276.651 148.786 274.071 150.226 271.176 150.522C268.337 150.923 265.084 150.675 262.514 152.125C265.207 150.856 268.259 151.323 271.255 151.104C274.329 150.923 277.257 149.463 279.075 147.288C281.016 145.075 281.106 142.213 281.285 139.751C281.386 138.502 281.555 137.271 282.149 136.26C282.721 135.268 283.821 134.457 284.999 133.827C287.389 132.539 290.329 131.824 292.988 130.517C294.323 129.868 295.58 129.057 296.634 128.084C297.678 127.13 298.654 125.976 299.024 124.65C299.843 122.026 299.305 119.364 298.474 116.913C297.554 114.461 296.275 112.133 294.738 109.948V109.939Z" fill="#263238"/>
<path d="M296.23 111.98C297.218 114.194 298.575 116.283 300.236 118.229C301.874 120.175 304.152 121.873 306.901 122.742C308.281 123.19 309.773 123.304 311.041 123.495C312.264 123.686 313.599 124.134 314.418 124.812C315.316 125.594 316.225 126.615 317.414 127.311C318.603 127.998 319.961 128.427 321.33 128.59C320.039 128.16 318.805 127.636 317.84 126.844C316.808 126.1 316.124 125.155 315.215 124.182C314.149 123.123 312.735 122.713 311.31 122.389C309.874 122.141 308.595 122.045 307.394 121.625C304.948 120.843 302.873 119.384 301.122 117.628C299.338 115.892 297.768 113.955 296.23 111.99V111.98Z" fill="#263238"/>
<path d="M268.304 164.164C268.304 164.164 255.524 154.3 250.049 158.44C244.574 162.571 256.366 178.169 264.332 179.075C272.298 179.982 273.431 173.723 273.431 173.723L268.304 164.164Z" fill="#F7A9A0"/>
<path d="M253.572 162.838C253.449 162.848 253.471 163 253.572 163.01C259.193 163.792 262.997 167.322 266.015 171.167C264.052 169.841 261.729 169.354 259.586 171.405C259.474 171.51 259.653 171.663 259.788 171.615C261.796 170.823 263.401 170.842 265.207 171.997C266.486 172.817 267.519 173.971 268.562 175.011C268.91 175.355 269.684 174.983 269.392 174.572C269.37 174.544 269.347 174.506 269.325 174.477C267.956 168.867 260.764 162.046 253.561 162.838H253.572Z" fill="#263238"/>
<path d="M260.674 178.169C261.202 179.848 253.841 175.25 253.314 174.448C252.798 173.647 248.164 171.92 246.694 170.442C245.224 168.963 241.914 164.46 241.432 163.306C240.961 162.161 237.628 159.7 237.09 157.62C236.551 155.54 232.635 136.823 243.979 121.606C255.322 106.39 268.113 103.108 268.113 103.108C268.113 103.108 276.842 100.017 287.681 98.615C298.531 97.2126 319.489 115.577 319.658 116.035C319.826 116.493 319.478 118.067 320.32 119.26C321.161 120.442 323.136 121.463 322.631 122.837C322.115 124.22 325.099 126.968 325.414 128.284C325.728 129.601 325.414 130.011 325.919 130.86C326.423 131.7 315.361 109.576 280.556 107.773C280.556 107.773 249.286 142.07 260.674 178.169Z" fill="#A53860"/>
<path d="M325.806 130.622C325.829 130.698 325.874 130.774 325.93 130.86C325.976 130.927 325.93 130.841 325.806 130.622Z" fill="#A53860"/>
<path d="M325.806 130.622C325.829 130.698 325.874 130.784 325.93 130.86C325.976 130.927 325.93 130.841 325.806 130.622Z" fill="#A53860"/>
<path opacity="0.3" d="M305.655 106.304C306.014 106.142 306.396 106.047 306.777 106.018C307.832 106.724 308.864 107.43 309.84 108.126C309.986 109.08 309.448 110.053 308.393 110.55C307.013 111.198 305.285 110.769 304.522 109.596C303.77 108.422 304.264 106.953 305.655 106.304ZM289.891 108.813C291.81 109.147 293.639 109.548 295.389 110.006C295.647 109.386 295.591 108.68 295.187 108.06C294.435 106.886 292.708 106.457 291.316 107.106C290.531 107.478 290.026 108.117 289.88 108.813H289.891ZM311.815 116.999C313.375 117.981 314.777 118.983 316.056 119.985C317.212 119.279 317.582 117.943 316.887 116.855C316.124 115.682 314.396 115.253 313.016 115.892C312.466 116.15 312.062 116.541 311.815 116.999ZM249.039 115.644C249.881 116.55 251.407 116.836 252.641 116.254C254.021 115.615 254.526 114.146 253.763 112.973C253.516 112.601 253.179 112.295 252.776 112.085C251.553 113.154 250.285 114.327 249.028 115.644H249.039ZM254.851 135.497C255.603 136.67 257.342 137.099 258.722 136.46C260.102 135.821 260.607 134.342 259.855 133.169C259.104 131.995 257.364 131.566 255.984 132.205C254.604 132.845 254.099 134.323 254.851 135.497ZM280.893 101.21C281.645 102.383 283.384 102.813 284.764 102.173C286.144 101.534 286.637 100.056 285.886 98.8821V98.863C284.023 99.1397 282.239 99.4641 280.567 99.798C280.511 100.275 280.612 100.762 280.904 101.2L280.893 101.21ZM267.272 109.433C268.024 110.607 269.763 111.036 271.143 110.397C272.523 109.758 273.028 108.279 272.276 107.106C271.524 105.932 269.785 105.503 268.405 106.142C267.025 106.781 266.52 108.26 267.272 109.433ZM262.346 122.341C263.098 123.514 264.837 123.944 266.217 123.305C267.597 122.665 268.102 121.187 267.35 120.013C266.599 118.84 264.859 118.411 263.479 119.05C262.099 119.689 261.594 121.168 262.346 122.341ZM242.229 128.952C242.98 130.126 244.72 130.555 246.1 129.916C247.48 129.277 247.985 127.798 247.233 126.624C246.481 125.451 244.742 125.022 243.362 125.661C241.982 126.3 241.477 127.779 242.229 128.952ZM246.784 146.964C247.536 148.137 249.275 148.566 250.655 147.927C252.035 147.288 252.54 145.809 251.788 144.636C251.036 143.463 249.297 143.033 247.917 143.672C246.537 144.312 246.032 145.79 246.784 146.964ZM256.041 173.161C256.736 174.248 258.273 174.687 259.597 174.239C259.227 172.684 258.924 171.129 258.711 169.574C258.195 169.545 257.656 169.631 257.163 169.86C255.782 170.499 255.278 171.968 256.041 173.151V173.161ZM257.667 152.907C257.914 153.289 258.262 153.594 258.688 153.804C258.879 152.325 259.126 150.856 259.418 149.406C259.205 149.454 259.003 149.52 258.801 149.616C257.421 150.255 256.916 151.724 257.679 152.898L257.667 152.907ZM236.159 143.31C236.888 143.52 237.707 143.472 238.425 143.138C239.805 142.499 240.31 141.03 239.547 139.856C238.975 138.979 237.853 138.511 236.753 138.607C236.473 140.228 236.271 141.812 236.159 143.31ZM246.84 161.226C247.592 162.399 249.331 162.829 250.711 162.19C252.091 161.55 252.596 160.072 251.844 158.898C251.093 157.725 249.353 157.296 247.973 157.935C246.593 158.574 246.088 160.053 246.84 161.226ZM242.779 165.481C243.497 166.502 244.383 167.694 245.18 168.696C245.449 168.076 245.404 167.351 245 166.731C244.529 166.006 243.687 165.557 242.779 165.49V165.481ZM236.888 156.714C237.382 156.733 237.887 156.637 238.358 156.418C239.738 155.779 240.243 154.31 239.48 153.127C238.829 152.115 237.46 151.657 236.215 151.963C236.406 154.071 236.686 155.712 236.899 156.714H236.888Z" fill="white"/>
<path opacity="0.1" d="M253.325 174.448C252.573 172.855 252.248 171.147 251.889 169.459C251.53 167.77 251.227 166.072 250.947 164.374C250.397 160.978 249.869 157.563 249.522 154.147C249.432 153.298 249.331 152.44 249.308 151.6C249.32 150.789 249.555 149.959 249.791 149.139C250.285 147.488 250.924 145.857 251.519 144.216C252.136 142.585 252.787 140.953 253.46 139.332L255.457 134.466C253.853 137.624 252.36 140.82 251.003 144.063C250.318 145.685 249.69 147.326 249.163 148.996C248.905 149.835 248.658 150.684 248.624 151.6C248.624 152.487 248.725 153.336 248.804 154.195C249.207 157.629 249.735 161.035 250.397 164.431C250.745 166.129 251.092 167.818 251.53 169.507C251.754 170.346 251.99 171.186 252.259 172.016C252.529 172.846 252.832 173.676 253.303 174.439L253.325 174.448Z" fill="#050400"/>
<path opacity="0.1" d="M246.133 139.57C244.955 141.364 244.013 143.262 243.16 145.18C242.307 147.107 241.6 149.082 241.095 151.095C240.613 153.117 240.22 155.159 240.243 157.238C240.254 159.299 240.557 161.388 241.443 163.306C241.331 162.8 241.208 162.304 241.073 161.808C240.994 161.56 240.972 161.312 240.949 161.054L240.871 160.291C240.848 160.043 240.804 159.785 240.781 159.537V158.774C240.781 158.269 240.725 157.763 240.804 157.257L240.927 155.74L241.163 154.233C241.23 153.728 241.342 153.231 241.454 152.735C241.567 152.239 241.656 151.734 241.802 151.238C242.285 149.244 242.969 147.288 243.687 145.342C244.046 144.369 244.439 143.405 244.865 142.451C245.258 141.488 245.707 140.534 246.156 139.58L246.133 139.57Z" fill="#050400"/>
<path opacity="0.1" d="M319.703 118.277C318.255 116.75 316.449 115.51 314.71 114.251C312.948 113.001 311.131 111.809 309.302 110.635C307.439 109.491 305.633 108.308 303.613 107.315C301.582 106.361 299.406 105.655 297.162 105.255C298.239 105.579 299.305 105.932 300.337 106.352C301.369 106.753 302.379 107.201 303.333 107.716C304.286 108.231 305.195 108.813 306.115 109.386L308.875 111.122L314.373 114.613C315.293 115.195 316.191 115.787 317.088 116.388C317.997 116.979 318.884 117.59 319.703 118.277Z" fill="#050400"/>
<path opacity="0.1" d="M322.676 123.734C321.733 122.57 320.634 121.52 319.512 120.481C318.39 119.441 317.212 118.458 315.966 117.523C315.338 117.065 314.687 116.607 313.992 116.216C313.296 115.844 312.6 115.453 311.893 115.09L309.773 113.993C309.055 113.65 308.348 113.278 307.619 112.953C308.258 113.402 308.931 113.812 309.582 114.241L311.579 115.472C312.241 115.892 312.926 116.273 313.599 116.674C314.261 117.065 314.878 117.514 315.495 117.972C316.729 118.878 317.919 119.841 319.119 120.795C319.714 121.272 320.308 121.759 320.903 122.245C321.509 122.722 322.081 123.219 322.665 123.724L322.676 123.734Z" fill="#050400"/>
<path opacity="0.1" d="M246.391 118.592C252.394 119.555 266.116 121.616 268.932 120.891C269.594 120.719 270.537 120.357 271.681 119.87C276.405 112.333 280.556 107.783 280.556 107.783C284.909 108.012 288.904 108.556 292.539 109.338C295.546 106.886 298.575 103.204 299.664 101.839C295.31 99.6262 291.024 98.1857 287.681 98.615C276.831 100.017 268.113 103.108 268.113 103.108C268.113 103.108 257.061 105.942 246.38 118.592H246.391Z" fill="#050400"/>
<path d="M277.302 103.022C277.302 103.022 285.246 88.9223 300.864 85.984C300.864 85.984 301.896 99.3591 296.892 104.253C294.401 106.686 282.138 108.708 280.466 107.096C278.794 105.474 277.302 103.032 277.302 103.032V103.022Z" fill="#A53860"/>
<path opacity="0.3" d="M292.303 88.9414C292.618 89.9813 292.079 91.1165 290.912 91.6603C289.97 92.0991 288.859 92.0324 288.017 91.5744C289.33 90.63 290.755 89.7428 292.315 88.9509L292.303 88.9414ZM297.476 98.8344C297.891 99.4736 298.598 99.8933 299.383 100.036C299.911 98.5386 300.281 96.8978 300.505 95.295C299.877 95.1901 299.204 95.2664 298.609 95.5526C297.229 96.1918 296.735 97.6705 297.487 98.8439L297.476 98.8344ZM280.904 101.21C281.656 102.383 283.395 102.813 284.775 102.173C286.155 101.534 286.66 100.056 285.908 98.8821C285.156 97.7087 283.417 97.2794 282.037 97.9185C280.657 98.5577 280.152 100.036 280.904 101.21Z" fill="white"/>
<path opacity="0.1" d="M277.302 103.032C277.302 103.032 278.806 105.465 280.455 107.077C280.511 107.144 280.601 107.21 280.724 107.258C280.814 107.325 280.938 107.373 281.106 107.42C281.207 107.43 281.297 107.478 281.431 107.497C282.901 107.84 285.56 107.668 288.309 107.182C287.748 105.427 286.862 103.166 285.886 101.553C285.044 100.17 282.856 99.092 280.713 98.3192C278.413 101 277.291 103.032 277.291 103.032H277.302Z" fill="#050400"/>
<path d="M273.678 105.198C273.678 105.198 251.317 104.291 241.23 109.3C241.23 109.3 248.209 118.534 259.53 119.956C264.601 120.595 278.099 111.666 277.044 109.538C275.99 107.411 273.678 105.207 273.678 105.207V105.198Z" fill="#A53860"/>
<path opacity="0.3" d="M249.914 112.009C251.294 111.37 253.022 111.799 253.785 112.973C254.537 114.146 254.032 115.615 252.652 116.264C251.272 116.903 249.544 116.474 248.781 115.3C248.029 114.127 248.534 112.658 249.914 112.009ZM267.294 109.433C268.046 110.607 269.785 111.036 271.165 110.397C272.545 109.758 273.05 108.279 272.298 107.106C271.546 105.932 269.807 105.503 268.427 106.142C267.047 106.781 266.542 108.26 267.294 109.433ZM262.817 119.498C263.479 119.307 264.163 119.05 264.882 118.763C264.41 118.763 263.939 118.849 263.502 119.059C263.243 119.183 263.008 119.326 262.817 119.498Z" fill="white"/>
<path opacity="0.1" d="M268.596 105.131C268.405 106.905 268.495 109.414 269.762 111.284C270.458 112.334 271.681 113.278 273.039 114.098C275.675 112.181 277.437 110.359 277.044 109.519C276.001 107.411 273.678 105.188 273.678 105.188C273.678 105.188 271.681 105.102 268.607 105.131H268.596Z" fill="#050400"/>
<path d="M271.894 109.643C274.104 112.496 278.626 113.278 281.97 111.389C285.324 109.51 286.244 105.665 284.023 102.822C281.813 99.9696 277.291 99.1873 273.947 101.076C270.593 102.956 269.673 106.8 271.894 109.643Z" fill="#A53860"/>
<path d="M194.958 328.519C203.071 316.051 208.86 288.013 191.649 233.453C189.27 225.907 124.127 236.525 126.18 244.691C128.772 254.985 141.439 294.462 142.785 297.247C154.219 320.754 189.449 336.972 194.947 328.51L194.958 328.519Z" fill="#F7A9A0"/>
<path d="M200.423 318.226C202.195 314.19 203.295 309.955 204.035 305.69C204.383 303.553 204.675 301.407 204.832 299.26C205.011 297.076 204.944 294.91 204.81 292.754C204.551 288.442 204.002 284.168 203.239 279.923C202.476 275.677 201.488 271.442 200.075 267.32C200.86 271.556 201.41 275.811 201.904 280.066C202.386 284.321 202.79 288.575 203.014 292.83C203.104 294.958 203.183 297.076 203.048 299.174C202.902 301.302 202.734 303.42 202.487 305.538C202.005 309.773 201.399 314.009 200.423 318.226Z" fill="#263238"/>
<path d="M159.705 256.779C152.21 256.616 111.886 253.993 102.461 251.598C86.3265 247.496 72.4361 241.696 75.0055 235.638C77.3617 230.067 95.3025 235.266 95.3025 235.266C95.3025 235.266 70.4389 222.826 73.4683 214.469C75.7236 208.249 86.7977 213.973 86.7977 213.973C86.7977 213.973 75.2748 205.911 80.1442 200.893C84.1834 196.734 107.914 209.479 107.914 209.479C107.914 209.479 85.6308 195.131 94.36 189.817C100.093 186.326 110.629 197.411 123.88 200.588C125.047 200.865 136.502 202.859 147.868 204.805C159.694 206.837 192.086 234.846 192.086 234.846L159.694 256.779H159.705Z" fill="#F7A9A0"/>
<path d="M108.262 209.403C116.105 213.143 121.95 214.383 127.201 215.575C127.358 215.614 127.313 215.986 127.134 215.967C117.788 215.041 115.095 214.23 107.948 209.737C107.555 209.489 107.88 209.222 108.262 209.403Z" fill="#263238"/>
<path d="M87.3364 213.915C100.654 221.862 108.194 224.066 123.981 226.909C124.205 226.947 124.149 227.271 123.914 227.252C108.149 225.564 99.05 223.98 86.9661 214.555C86.4163 214.125 86.7193 213.553 87.3364 213.925V213.915Z" fill="#263238"/>
<path d="M95.6054 235.037C104.447 237.222 106.994 237.527 116.531 239.111C116.778 239.149 116.789 239.607 116.531 239.597C106.904 239.206 103.403 238.92 95.482 235.438C94.8761 235.171 94.9659 234.884 95.6054 235.047V235.037Z" fill="#263238"/>
<path d="M192.097 234.846C192.097 234.846 184.726 208.602 170.993 199.31C164.104 194.654 131.7 181.375 127.852 186.908C122.881 194.053 138.971 204.929 147.666 209.384C147.666 209.384 136.155 225.898 145.714 235.829C155.273 245.76 192.097 234.846 192.097 234.846Z" fill="#F7A9A0"/>
<path d="M127.246 189.245C128.244 198.537 140.104 203.755 148.16 208.621C148.777 208.993 148.642 209.537 148.216 209.88C143.93 217.073 140.351 228.283 145.097 235.781C145.231 236.001 144.884 236.201 144.715 235.991C138.342 228.54 140.799 217.283 146.084 209.661C137.725 204.786 126.101 199.109 127.145 189.255C127.145 189.197 127.246 189.188 127.246 189.255V189.245Z" fill="#263238"/>
<path d="M364.762 328.329C356.65 315.86 350.861 287.822 368.072 233.263C370.451 225.716 435.594 236.334 433.541 244.501C430.949 254.794 418.282 294.271 416.935 297.057C405.502 320.563 370.271 336.781 364.773 328.319L364.762 328.329Z" fill="#F7A9A0"/>
<path d="M359.309 318.035C357.537 314 356.437 309.764 355.697 305.499C355.349 303.362 355.057 301.216 354.9 299.069C354.72 296.885 354.788 294.719 354.922 292.563C355.18 288.251 355.73 283.977 356.493 279.732C357.256 275.487 358.244 271.251 359.657 267.13C358.872 271.365 358.322 275.62 357.828 279.875C357.346 284.13 356.942 288.385 356.718 292.639C356.628 294.767 356.549 296.885 356.684 298.984C356.83 301.111 356.998 303.229 357.245 305.347C357.727 309.583 358.333 313.818 359.309 318.035Z" fill="#263238"/>
<path d="M400.016 256.588C407.511 256.426 447.835 253.802 457.26 251.408C473.395 247.305 487.285 241.505 484.715 235.447C482.359 229.876 464.419 235.075 464.419 235.075C464.419 235.075 489.282 222.635 486.253 214.278C483.997 208.058 472.923 213.782 472.923 213.782C472.923 213.782 484.446 205.721 479.577 200.703C475.538 196.543 451.807 209.289 451.807 209.289C451.807 209.289 474.09 194.94 465.361 189.627C459.628 186.135 449.092 197.22 435.841 200.397C434.674 200.674 423.219 202.668 411.853 204.614C400.027 206.646 367.635 234.655 367.635 234.655L400.027 256.588H400.016Z" fill="#F7A9A0"/>
<path d="M451.46 209.212C443.617 212.952 437.771 214.192 432.52 215.385C432.363 215.423 432.408 215.795 432.588 215.776C441.934 214.85 444.627 214.039 451.774 209.546C452.167 209.298 451.841 209.031 451.46 209.212Z" fill="#263238"/>
<path d="M472.385 213.715C459.067 221.662 451.527 223.866 435.741 226.709C435.516 226.747 435.572 227.071 435.808 227.052C451.572 225.364 460.671 223.78 472.755 214.354C473.305 213.925 473.002 213.353 472.385 213.725V213.715Z" fill="#263238"/>
<path d="M464.116 234.846C455.274 237.031 452.727 237.336 443.19 238.92C442.943 238.958 442.932 239.416 443.19 239.406C452.817 239.015 456.318 238.729 464.239 235.247C464.845 234.98 464.755 234.694 464.116 234.856V234.846Z" fill="#263238"/>
<path d="M367.624 234.655C367.624 234.655 374.995 208.411 388.728 199.119C395.617 194.463 428.021 181.184 431.869 186.717C436.84 193.862 420.75 204.738 412.055 209.193C412.055 209.193 423.566 225.707 414.007 235.638C404.448 245.569 367.624 234.655 367.624 234.655Z" fill="#F7A9A0"/>
<path d="M432.486 189.054C431.488 198.346 419.628 203.564 411.572 208.43C410.955 208.802 411.09 209.346 411.516 209.689C415.802 216.882 419.381 228.092 414.635 235.59C414.501 235.81 414.849 236.01 415.017 235.8C421.39 228.349 418.933 217.092 413.648 209.47C422.007 204.595 433.631 198.918 432.587 189.064C432.587 189.006 432.486 188.997 432.486 189.064V189.054Z" fill="#263238"/>
<path d="M59.8252 440.815C201.197 440.233 359.792 440.223 501.164 440.815C359.792 441.406 201.197 441.397 59.8252 440.815Z" fill="#263238"/>
<path d="M353.161 93.2058L351.343 102.278C350.557 106.19 346.529 108.622 341.929 107.955C337.666 107.335 334.479 103.862 335.253 99.9505L338.159 85.4402C338.182 85.2971 338.35 85.3257 338.384 85.1826C338.294 85.0745 338.257 84.9727 338.272 84.8773C339.001 81.2521 343.422 78.5905 347.685 79.201C358.019 80.6988 367.791 74.9367 369.531 66.2839C371.292 57.488 364.291 49.4458 353.957 47.948C347.225 46.9749 340.706 49.1882 336.667 53.3381C333.694 56.3527 328.555 56.7534 324.998 54.2349C321.61 51.7354 321.116 47.4996 324.078 44.4754C331.719 36.6813 344.061 32.436 356.695 34.2676C375.735 37.0247 388.694 52.4032 385.452 68.5926C382.68 82.4065 369.037 92.3472 353.161 93.2058ZM347.034 123.762L346.53 126.271C345.744 130.183 341.716 132.606 337.116 131.948C332.852 131.328 329.655 127.855 330.44 123.944L330.945 121.435C331.697 117.666 336.095 115.148 340.359 115.758C344.959 116.426 347.786 119.994 347.034 123.762Z" fill="#455A64"/>
</svg>
