<svg width="513" height="446" viewBox="0 0 513 446" fill="none" xmlns="http://www.w3.org/2000/svg">
<path d="M363.132 66.8999H287.793V130.357H363.132V66.8999Z" fill="#EBEBEB"/>
<path d="M354.524 74.1519H296.401V123.105H354.524V74.1519Z" fill="white"/>
<path d="M298.669 74.1519H296.401V123.105H298.669V74.1519Z" fill="#DBDBDB"/>
<path d="M365.4 66.8999H363.133V130.357H365.4V66.8999Z" fill="#DBDBDB"/>
<path d="M312.766 104.792C318.286 115.371 339.514 113.427 340.817 100.386C341.473 93.8206 336.107 85.8282 325.611 85.8282H325.56C313.217 86.631 308.97 97.5045 312.766 104.792Z" fill="#EBEBEB"/>
<path d="M311.751 83.179C312.927 83.2933 314.018 83.7675 314.829 84.517C315.68 85.2127 316.634 86.4883 316.265 87.5319C316.173 87.7995 315.978 87.7549 315.65 87.746C314.616 87.6065 313.671 87.1549 312.982 86.4705C312.199 85.8567 311.494 85.172 310.879 84.4278C310.791 84.2986 310.746 84.1513 310.747 84.0015C310.748 83.8517 310.796 83.705 310.886 83.5769C310.975 83.4488 311.103 83.3442 311.255 83.2742C311.407 83.2041 311.579 83.1712 311.751 83.179Z" fill="#EBEBEB"/>
<path d="M320.43 79.2096C321.498 79.8205 322.272 80.7502 322.605 81.8232C322.934 82.7152 323.211 83.9283 322.482 84.6597C322.402 84.725 322.3 84.7663 322.191 84.7776C322.082 84.7888 321.972 84.7694 321.877 84.7222C321.005 84.3654 320.615 83.2593 320.276 82.5278C319.781 81.6495 319.492 80.6944 319.425 79.718C319.426 79.6161 319.458 79.5162 319.517 79.4281C319.576 79.3401 319.66 79.2668 319.761 79.2156C319.863 79.1643 319.978 79.1368 320.095 79.1358C320.212 79.1347 320.328 79.1602 320.43 79.2096Z" fill="#EBEBEB"/>
<path d="M306.477 88.9413C308.426 88.5666 311.084 89.1286 311.823 90.9304C311.858 91.058 311.837 91.1926 311.762 91.3068C311.688 91.4211 311.566 91.5066 311.422 91.5459C310.659 91.7093 309.855 91.6497 309.134 91.3764C308.252 91.1356 307.339 91.0821 306.477 90.7877C305.615 90.4933 305.307 89.1999 306.477 88.9413Z" fill="#EBEBEB"/>
<path d="M329.972 81.0916C330.39 80.3316 330.988 79.6568 331.727 79.1114C332.086 78.8081 332.558 79.1114 332.486 79.5306C332.363 80.2799 332.384 81.0649 332.24 81.832C332.177 82.5865 331.955 83.3244 331.583 84.0085C331.475 84.1798 331.31 84.3186 331.109 84.4062C330.908 84.4939 330.681 84.5263 330.458 84.4992C330.235 84.4721 330.028 84.3867 329.862 84.2545C329.696 84.1222 329.581 83.9493 329.531 83.7587C329.354 82.8514 329.509 81.9188 329.972 81.0916Z" fill="#EBEBEB"/>
<path d="M305.953 95.444C307.271 95.4323 308.546 95.8527 309.524 96.6215C309.59 96.6847 309.64 96.7598 309.67 96.8414C309.699 96.9231 309.708 97.0094 309.695 97.0944C309.683 97.1793 309.649 97.2608 309.596 97.3332C309.543 97.4056 309.473 97.4671 309.39 97.5135C308.239 97.9302 306.968 98.0328 305.748 97.8078C304.866 97.7365 302.865 97.8078 302.968 96.6304C303.07 95.4529 304.968 95.3637 305.953 95.444Z" fill="#EBEBEB"/>
<path d="M304.784 104.881C305.297 104.158 306.019 103.564 306.877 103.157C307.735 102.751 308.701 102.545 309.678 102.562C309.796 102.567 309.911 102.597 310.013 102.65C310.115 102.702 310.2 102.776 310.261 102.865C310.322 102.953 310.357 103.053 310.362 103.156C310.368 103.259 310.344 103.361 310.294 103.454C309.738 104.145 309.002 104.712 308.146 105.109C307.29 105.506 306.339 105.721 305.369 105.738C305.256 105.733 305.145 105.703 305.048 105.653C304.951 105.602 304.87 105.531 304.812 105.446C304.754 105.361 304.721 105.265 304.716 105.167C304.712 105.068 304.735 104.97 304.784 104.881Z" fill="#EBEBEB"/>
<path d="M308.221 113.007C308.731 112.091 309.472 111.286 310.389 110.651C311.305 110.017 312.373 109.569 313.515 109.341C313.915 109.341 314.11 109.734 313.997 110.055C313.753 110.559 313.45 111.04 313.094 111.491C312.758 111.966 312.339 112.393 311.853 112.758C311.442 113.088 310.955 113.339 310.425 113.493C309.894 113.647 309.331 113.7 308.775 113.65C308.457 113.65 308.077 113.364 308.221 113.007Z" fill="#EBEBEB"/>
<path d="M320.296 112.615C320.343 112.545 320.411 112.486 320.492 112.446C320.573 112.405 320.665 112.384 320.758 112.384C320.852 112.384 320.944 112.405 321.025 112.446C321.106 112.486 321.173 112.545 321.22 112.615C321.654 113.422 321.734 114.338 321.446 115.193C321.326 116.24 320.827 117.227 320.019 118.012C319.884 118.121 319.719 118.2 319.539 118.239C319.359 118.278 319.171 118.278 318.992 118.237C318.812 118.196 318.648 118.116 318.514 118.005C318.379 117.894 318.28 117.755 318.224 117.601C317.67 115.79 319.178 113.989 320.296 112.615Z" fill="#EBEBEB"/>
<path d="M330.188 112.338C330.242 112.259 330.316 112.192 330.404 112.141C330.492 112.091 330.592 112.058 330.697 112.046C330.802 112.034 330.908 112.043 331.008 112.072C331.109 112.101 331.2 112.149 331.276 112.214C332.073 112.945 332.567 113.887 332.681 114.89C332.794 115.782 333.081 116.941 332.579 117.735C332.499 117.851 332.39 117.95 332.26 118.024C332.13 118.098 331.982 118.145 331.828 118.162C331.674 118.18 331.517 118.166 331.37 118.123C331.223 118.08 331.089 118.008 330.978 117.913C330.229 117.36 329.952 116.049 329.757 115.237C329.48 114.258 329.633 113.224 330.188 112.338Z" fill="#EBEBEB"/>
<path d="M338.632 108.137C339.063 108.161 339.485 108.258 339.873 108.423C340.291 108.643 340.689 108.89 341.063 109.163C341.672 109.648 342.328 110.087 343.023 110.474C343.174 110.558 343.29 110.682 343.354 110.827C343.419 110.972 343.428 111.132 343.381 111.282C343.334 111.432 343.234 111.565 343.093 111.662C342.953 111.759 342.781 111.815 342.602 111.821C342.051 111.891 341.49 111.865 340.951 111.744C340.412 111.623 339.906 111.409 339.463 111.116C338.978 110.814 338.567 110.432 338.252 109.992C338 109.569 337.88 109.095 337.903 108.619C337.905 108.542 337.927 108.467 337.967 108.399C338.007 108.331 338.064 108.272 338.134 108.225C338.204 108.179 338.285 108.147 338.371 108.132C338.457 108.116 338.546 108.118 338.632 108.137Z" fill="#EBEBEB"/>
<path d="M343.063 101.072C343.682 100.946 344.325 100.943 344.945 101.064C345.565 101.184 346.146 101.425 346.644 101.768C347.332 102.241 348.234 103.195 347.896 104.025C347.865 104.113 347.81 104.194 347.734 104.259C347.659 104.325 347.567 104.373 347.465 104.4C346.656 104.403 345.86 104.231 345.146 103.9C344.078 103.722 343.105 103.246 342.376 102.544C342.288 102.411 342.236 102.263 342.224 102.11C342.212 101.958 342.241 101.804 342.307 101.663C342.373 101.521 342.476 101.394 342.607 101.292C342.738 101.189 342.894 101.114 343.063 101.072Z" fill="#EBEBEB"/>
<path d="M341.935 93.9007C342.336 93.4464 342.925 93.1456 343.577 93.0623C344.611 92.826 345.664 92.656 346.727 92.5538C347.291 92.4736 347.968 92.982 347.558 93.4458C346.997 94.2315 346.208 94.8745 345.27 95.3101C344.244 95.7204 342.756 96.1575 341.976 95.2031C341.825 95.0127 341.741 94.7884 341.734 94.5572C341.727 94.326 341.797 94.098 341.935 93.9007Z" fill="#EBEBEB"/>
<path d="M336.672 87.2644C337.031 85.5339 339.154 84.7579 340.847 84.3029C341.555 84.1156 341.873 84.8649 341.504 85.2931C341.135 85.7212 340.652 86.2832 340.201 86.7649C339.75 87.2465 339.514 87.7104 339.175 88.1742C339.013 88.4305 338.747 88.6255 338.429 88.7219C338.111 88.8183 337.764 88.8092 337.454 88.6963C337.143 88.5835 336.891 88.3749 336.747 88.1105C336.603 87.8462 336.576 87.5449 336.672 87.2644Z" fill="#EBEBEB"/>
<path d="M321.682 94.8998C321.682 95.3815 321.23 94.436 320.656 94.436C320.081 94.436 319.63 95.3815 319.63 94.8998C319.63 94.6632 319.738 94.4364 319.93 94.2691C320.123 94.1018 320.384 94.0078 320.656 94.0078C320.928 94.0078 321.189 94.1018 321.381 94.2691C321.574 94.4364 321.682 94.6632 321.682 94.8998Z" fill="#A6A6A6"/>
<path d="M332.189 94.8998C332.189 95.3815 331.737 94.4538 331.163 94.4538C330.588 94.4538 330.137 95.3458 330.137 94.8998C330.137 94.6632 330.245 94.4364 330.437 94.2691C330.63 94.1018 330.891 94.0078 331.163 94.0078C331.435 94.0078 331.696 94.1018 331.888 94.2691C332.081 94.4364 332.189 94.6632 332.189 94.8998Z" fill="#A6A6A6"/>
<path d="M318.778 97.2279C318.778 97.6407 318.637 98.0443 318.374 98.3876C318.11 98.7308 317.735 98.9983 317.296 99.1563C316.857 99.3143 316.375 99.3556 315.909 99.2751C315.443 99.1946 315.016 98.9958 314.68 98.7039C314.344 98.4119 314.115 98.04 314.023 97.6351C313.93 97.2302 313.978 96.8106 314.159 96.4292C314.341 96.0478 314.649 95.7218 315.044 95.4924C315.438 95.2631 315.903 95.1406 316.377 95.1406C316.693 95.1395 317.006 95.1926 317.298 95.2971C317.59 95.4016 317.855 95.5553 318.078 95.7494C318.301 95.9434 318.478 96.174 318.598 96.4278C318.718 96.6815 318.78 96.9535 318.778 97.2279Z" fill="white"/>
<path d="M338.313 97.2279C338.313 97.6407 338.173 98.0443 337.909 98.3876C337.645 98.7308 337.27 98.9983 336.831 99.1563C336.393 99.3143 335.91 99.3556 335.444 99.2751C334.978 99.1946 334.551 98.9958 334.215 98.7039C333.879 98.4119 333.65 98.04 333.558 97.6351C333.465 97.2302 333.513 96.8106 333.694 96.4292C333.876 96.0478 334.184 95.7218 334.579 95.4924C334.974 95.2631 335.438 95.1406 335.913 95.1406C336.228 95.1395 336.541 95.1926 336.833 95.2971C337.125 95.4016 337.39 95.5553 337.613 95.7494C337.836 95.9434 338.013 96.174 338.133 96.4278C338.254 96.6815 338.315 96.9535 338.313 97.2279Z" fill="white"/>
<path d="M323.991 95.1675C324.182 95.4703 324.471 95.7182 324.822 95.8811C325.144 96.0066 325.494 96.0714 325.848 96.0714C326.201 96.0714 326.551 96.0066 326.874 95.8811C327.223 95.7137 327.514 95.4671 327.715 95.1675C327.736 95.3735 327.699 95.5808 327.608 95.7718C327.517 95.9628 327.374 96.1319 327.192 96.2646C326.816 96.5445 326.332 96.691 325.837 96.675C325.344 96.6843 324.863 96.5386 324.483 96.2646C324.309 96.1274 324.174 95.9568 324.088 95.7665C324.003 95.5761 323.969 95.371 323.991 95.1675Z" fill="#A6A6A6"/>
<path d="M459.023 129.902H383.684V193.359H459.023V129.902Z" fill="#EBEBEB"/>
<path d="M450.414 137.145H392.291V186.098H450.414V137.145Z" fill="white"/>
<path d="M394.558 137.145H392.291V186.098H394.558V137.145Z" fill="#DBDBDB"/>
<path d="M461.29 129.902H459.022V193.359H461.29V129.902Z" fill="#DBDBDB"/>
<path d="M443.232 163.941C441.702 160.603 439.232 157.653 436.05 155.36C434.178 153.955 431.982 152.914 429.608 152.308C427.235 151.702 424.741 151.544 422.292 151.845C420.792 152.018 419.324 152.353 417.921 152.844C409.908 155.645 406.779 162.656 406.071 165.172C405.312 165.081 404.566 164.922 403.844 164.699C403.516 164.404 407.148 150.9 421.727 149.142C422.493 149.05 423.263 148.997 424.036 148.982C428.03 148.915 431.945 149.959 435.209 151.961C441.139 155.529 444.33 161.175 444.761 162.87C444.874 163.236 444.258 163.575 443.232 163.941Z" fill="#A6A6A6"/>
<path d="M443.233 163.941C442.564 164.19 441.878 164.404 441.181 164.583C439.787 161.797 437.661 159.335 434.973 157.393C433.309 156.155 431.36 155.24 429.256 154.709C427.152 154.179 424.942 154.045 422.774 154.316C421.196 154.5 419.658 154.885 418.208 155.458C412.114 157.884 409.405 163.093 408.543 165.582C407.682 165.457 406.84 165.323 406.102 165.198C406.81 162.692 409.939 155.672 417.952 152.871C419.355 152.38 420.823 152.044 422.323 151.872C424.765 151.571 427.252 151.726 429.619 152.328C431.987 152.929 434.179 153.963 436.051 155.36C439.232 157.653 441.702 160.603 443.233 163.941Z" fill="#C7C7C7"/>
<path d="M441.18 164.583C440.382 164.791 439.57 164.955 438.748 165.073C437.34 162.627 435.265 160.518 432.705 158.928C429.955 157.241 426.562 156.545 423.235 156.983C422.225 157.106 421.234 157.327 420.28 157.643C414.976 159.365 412.401 163.495 411.375 165.965C410.523 165.85 409.528 165.707 408.543 165.555C409.405 163.066 412.113 157.857 418.208 155.431C419.657 154.858 421.196 154.474 422.774 154.289C424.952 154.015 427.173 154.15 429.286 154.685C431.4 155.221 433.356 156.144 435.024 157.393C437.693 159.34 439.801 161.802 441.18 164.583Z" fill="#DBDBDB"/>
<path d="M438.748 165.073C438.487 165.139 438.209 165.139 437.948 165.073C437.589 164.833 434.747 161.336 430.561 159.543C428.829 158.763 426.883 158.415 424.938 158.535C424.261 158.584 423.59 158.691 422.938 158.856C416.73 160.373 414.535 166.26 413.704 166.251C413.529 166.251 412.595 166.135 411.364 165.974C412.39 163.504 414.966 159.374 420.27 157.652C421.223 157.336 422.214 157.114 423.225 156.992C426.552 156.554 429.945 157.25 432.695 158.936C435.258 160.523 437.336 162.63 438.748 165.073Z" fill="#EBEBEB"/>
<path d="M447.716 166.108C447.777 166.975 447.546 167.839 447.05 168.593C446.554 169.348 445.816 169.96 444.925 170.354C441.847 171.799 439.272 169.337 439.272 169.337C438.864 169.787 438.356 170.16 437.777 170.435C437.199 170.709 436.563 170.879 435.907 170.934C435.231 170.949 434.565 170.787 433.996 170.468C433.427 170.15 432.981 169.691 432.716 169.15C432.716 169.15 430.767 168.713 430.746 167.366C430.746 165.582 433.044 165.689 433.044 165.689C433.044 165.689 432.665 162.54 435.332 161.746C436.151 161.483 437.047 161.467 437.877 161.702C438.574 161.896 439.201 162.247 439.693 162.719C439.875 162.057 440.295 161.463 440.89 161.023C441.486 160.582 442.227 160.317 443.007 160.266C445.059 160.194 446.341 162.29 446.341 162.29C446.823 162.228 447.315 162.298 447.747 162.492C448.18 162.685 448.532 162.993 448.752 163.37C448.972 163.86 448.989 164.401 448.8 164.901C448.611 165.4 448.228 165.827 447.716 166.108Z" fill="#EBEBEB"/>
<path d="M400.028 164.128C400.274 163.258 400.805 162.468 401.557 161.856C402.309 161.243 403.25 160.833 404.265 160.676C407.866 160.069 409.508 163.165 409.508 163.165C410.068 162.827 410.702 162.592 411.371 162.474C412.039 162.355 412.728 162.357 413.396 162.478C414.068 162.643 414.667 162.98 415.117 163.444C415.567 163.908 415.846 164.479 415.92 165.082C415.92 165.082 417.695 166.037 417.244 167.366C416.649 169.15 414.392 168.427 414.392 168.427C414.392 168.427 413.663 171.63 410.739 171.719C409.841 171.754 408.954 171.531 408.215 171.086C407.595 170.704 407.096 170.192 406.768 169.596C406.361 170.199 405.744 170.675 405.007 170.955C404.27 171.235 403.45 171.306 402.664 171.157C400.612 170.666 400.079 168.267 400.079 168.267C399.573 168.209 399.101 168.013 398.732 167.707C398.363 167.4 398.116 167 398.027 166.563C397.984 166.019 398.16 165.478 398.525 165.034C398.89 164.59 399.421 164.269 400.028 164.128Z" fill="#EBEBEB"/>
<path d="M419.87 155.654C419.87 156.136 419.419 155.199 418.844 155.199C418.27 155.199 417.818 156.091 417.818 155.654C417.818 155.417 417.926 155.191 418.119 155.023C418.311 154.856 418.572 154.762 418.844 154.762C419.116 154.762 419.377 154.856 419.57 155.023C419.762 155.191 419.87 155.417 419.87 155.654Z" fill="#A6A6A6"/>
<path d="M430.376 155.654C430.376 156.136 429.925 155.208 429.35 155.208C428.776 155.208 428.324 156.1 428.324 155.654C428.324 155.417 428.432 155.191 428.625 155.023C428.817 154.856 429.078 154.762 429.35 154.762C429.622 154.762 429.883 154.856 430.076 155.023C430.268 155.191 430.376 155.417 430.376 155.654Z" fill="#A6A6A6"/>
<path d="M416.956 157.973C416.956 158.386 416.815 158.79 416.551 159.133C416.288 159.476 415.913 159.744 415.474 159.902C415.035 160.06 414.552 160.101 414.087 160.02C413.621 159.94 413.193 159.741 412.857 159.449C412.522 159.157 412.293 158.785 412.2 158.38C412.108 157.975 412.155 157.556 412.337 157.174C412.519 156.793 412.826 156.467 413.221 156.238C413.616 156.008 414.08 155.886 414.555 155.886C415.192 155.886 415.803 156.106 416.253 156.497C416.703 156.889 416.956 157.42 416.956 157.973Z" fill="white"/>
<path d="M436.491 157.973C436.491 158.386 436.35 158.79 436.086 159.134C435.822 159.477 435.446 159.745 435.007 159.902C434.567 160.06 434.084 160.101 433.618 160.02C433.152 159.938 432.724 159.739 432.389 159.446C432.054 159.153 431.826 158.78 431.734 158.375C431.643 157.969 431.692 157.549 431.875 157.168C432.058 156.787 432.368 156.462 432.764 156.233C433.16 156.005 433.625 155.884 434.101 155.886C434.415 155.886 434.727 155.94 435.018 156.045C435.308 156.15 435.572 156.304 435.795 156.498C436.017 156.692 436.193 156.922 436.312 157.175C436.432 157.428 436.492 157.699 436.491 157.973Z" fill="white"/>
<path d="M422.169 155.922C422.363 156.225 422.651 156.475 423 156.644C423.322 156.771 423.672 156.835 424.026 156.831C424.381 156.838 424.732 156.77 425.052 156.635C425.398 156.467 425.685 156.221 425.883 155.922C425.902 156.128 425.866 156.335 425.777 156.527C425.688 156.719 425.548 156.891 425.37 157.028C424.986 157.3 424.501 157.443 424.005 157.429C423.529 157.418 423.072 157.264 422.712 156.992C422.533 156.862 422.39 156.698 422.296 156.512C422.201 156.327 422.158 156.124 422.169 155.922Z" fill="#A6A6A6"/>
<path d="M89.7235 85.9353C89.7129 85.8937 89.6863 85.8564 89.648 85.8298C89.6098 85.8031 89.5622 85.7886 89.5132 85.7886C89.4642 85.7886 89.4166 85.8031 89.3784 85.8298C89.3402 85.8564 89.3135 85.8937 89.3029 85.9353C88.5744 94.0257 88.8309 102.188 88.9438 110.305C89.0567 118.422 88.7694 126.566 89.2619 134.692C89.2736 134.742 89.3051 134.788 89.3509 134.82C89.3967 134.853 89.4541 134.871 89.5132 134.871C89.5724 134.871 89.6297 134.853 89.6755 134.82C89.7214 134.788 89.7528 134.742 89.7646 134.692C90.2468 126.593 89.9595 118.44 90.0724 110.331C90.1853 102.223 90.4417 94.0257 89.7235 85.9353Z" fill="#C7C7C7"/>
<path d="M94.3921 141.311C94.3921 146.181 91.1909 147.902 89.4673 147.902C87.7436 147.902 84.5527 146.172 84.5527 141.311C84.5527 136.449 89.4673 128.653 89.4673 128.653C89.6622 128.903 94.3921 136.521 94.3921 141.311Z" fill="#EBEBEB"/>
<path d="M105.996 86.7827C105.996 86.7259 105.97 86.6714 105.924 86.6313C105.878 86.5912 105.815 86.5686 105.75 86.5686C105.685 86.5686 105.622 86.5912 105.576 86.6313C105.53 86.6714 105.504 86.7259 105.504 86.7827C104.703 97.1745 105.073 107.709 105.145 118.128C105.216 128.546 105.145 139.018 105.452 149.464C105.465 149.523 105.501 149.576 105.555 149.615C105.608 149.653 105.675 149.674 105.745 149.674C105.814 149.674 105.881 149.653 105.935 149.615C105.988 149.576 106.024 149.523 106.037 149.464C106.304 139.018 106.283 128.564 106.355 118.128C106.427 107.691 106.796 97.1745 105.996 86.7827Z" fill="#C7C7C7"/>
<path d="M110.665 158.535C110.665 163.405 107.463 165.127 105.75 165.127C104.037 165.127 100.825 163.396 100.825 158.535C100.825 153.674 105.75 145.869 105.75 145.869C105.904 146.127 110.665 153.745 110.665 158.535Z" fill="#DBDBDB"/>
<path d="M123.582 76.4086C123.57 76.3604 123.54 76.3172 123.496 76.2861C123.452 76.255 123.397 76.238 123.341 76.238C123.284 76.238 123.229 76.255 123.185 76.2861C123.141 76.3172 123.111 76.3604 123.099 76.4086C122.751 92.9285 122.432 109.457 123.202 125.968C123.196 125.987 123.195 126.006 123.199 126.025C123.204 126.044 123.213 126.062 123.226 126.077C123.24 126.092 123.257 126.105 123.277 126.113C123.297 126.122 123.318 126.126 123.341 126.126C123.363 126.126 123.384 126.122 123.404 126.113C123.424 126.105 123.441 126.092 123.455 126.077C123.468 126.062 123.477 126.044 123.482 126.025C123.486 126.006 123.485 125.987 123.479 125.968C124.238 109.457 123.93 92.9285 123.582 76.4086Z" fill="#C7C7C7"/>
<path d="M128.25 131.276C128.25 136.146 125.049 137.868 123.326 137.868C121.602 137.868 118.411 136.146 118.411 131.276C118.411 126.405 123.336 118.636 123.336 118.636C123.49 118.868 128.25 126.486 128.25 131.276Z" fill="#EBEBEB"/>
<path d="M141.404 82.2156C141.395 82.1892 141.377 82.1659 141.352 82.1494C141.327 82.1328 141.297 82.1238 141.265 82.1238C141.234 82.1238 141.203 82.1328 141.178 82.1494C141.153 82.1659 141.135 82.1892 141.127 82.2156C140.398 87.63 140.686 93.2318 140.675 98.673C140.665 104.114 140.675 109.654 140.675 115.139C140.737 126.102 140.624 137.083 140.942 148.054C140.955 148.111 140.99 148.163 141.041 148.2C141.093 148.237 141.157 148.257 141.224 148.257C141.291 148.257 141.356 148.237 141.407 148.2C141.459 148.163 141.494 148.111 141.506 148.054C141.814 137.083 141.712 126.102 141.773 115.139C141.773 109.787 141.773 104.435 141.773 99.1368C141.855 93.5351 142.143 87.7817 141.404 82.2156Z" fill="#C7C7C7"/>
<path d="M146.185 152.737C146.185 157.607 142.984 159.329 141.26 159.329C139.537 159.329 136.346 157.607 136.346 152.737C136.346 147.867 141.26 140.044 141.26 140.044C141.424 140.329 146.185 147.947 146.185 152.737Z" fill="#DBDBDB"/>
<path d="M158.148 83.1522C158.138 83.1171 158.115 83.0859 158.083 83.0636C158.05 83.0413 158.01 83.0292 157.969 83.0292C157.927 83.0292 157.887 83.0413 157.854 83.0636C157.822 83.0859 157.799 83.1171 157.789 83.1522C156.979 92.8125 157.461 102.642 157.481 112.321C157.502 121.999 157.061 131.838 157.84 141.498C157.848 141.522 157.865 141.543 157.888 141.559C157.911 141.574 157.94 141.582 157.969 141.582C157.998 141.582 158.026 141.574 158.049 141.559C158.072 141.543 158.089 141.522 158.097 141.498C158.877 131.838 158.425 122.008 158.446 112.321C158.466 102.633 158.959 92.8125 158.148 83.1522Z" fill="#C7C7C7"/>
<path d="M162.888 140.713C162.888 145.583 159.687 147.305 157.963 147.305C156.24 147.305 153.049 145.583 153.049 140.713C153.049 135.843 158.004 128.055 158.004 128.055C158.128 128.305 162.888 135.923 162.888 140.713Z" fill="#EBEBEB"/>
<path d="M85.6609 73.7773C85.6609 73.7773 74.4775 75.9359 74.4775 84.8827C74.4775 93.8294 89.2109 92.9107 89.2109 92.9107C89.2109 92.9107 90.0933 100.618 101.451 103.401C112.809 106.184 120.832 98.4589 120.832 98.4589C121.93 99.5918 123.314 100.488 124.877 101.078C126.44 101.667 128.139 101.934 129.841 101.857C131.549 101.847 133.221 101.425 134.671 100.637C136.12 99.8499 137.289 98.7284 138.049 97.3974C138.049 97.3974 144.615 99.8683 150.997 97.5491C152.844 96.904 154.512 95.9245 155.89 94.6757C157.268 93.4268 158.324 91.9373 158.989 90.306C158.989 90.306 167.854 91.198 169.454 84.1334C171.055 77.0688 161.082 74.8566 161.082 74.8566C161.082 74.8566 160.877 63.3498 151.684 60.0494C148.332 58.8833 144.716 58.4015 141.116 58.6412C137.516 58.8809 134.027 59.8357 130.918 61.432C130.918 61.432 119.734 48.6318 103.062 51.5665C86.3894 54.5012 85.6609 73.7773 85.6609 73.7773Z" fill="#EBEBEB"/>
<path d="M139.536 75.2937C139.536 75.1956 139.361 75.2223 139.351 75.2937C139.105 76.7387 138.325 82.2245 135.914 82.2959C133.626 82.3494 131.81 77.5861 131.317 75.8735C131.317 75.7843 131.153 75.82 131.153 75.8735C131.256 78.1124 132.785 83.8569 136.283 83.3395C139.413 82.956 139.905 76.9439 139.536 75.2937Z" fill="white"/>
<path d="M104.345 75.2937C104.345 75.1956 104.509 75.2223 104.529 75.2937C104.765 76.7387 105.555 82.2245 107.966 82.2959C110.244 82.3494 112.07 77.5861 112.563 75.8735C112.563 75.7843 112.727 75.82 112.717 75.8735C112.614 78.1124 111.096 83.8569 107.587 83.3395C104.499 82.956 103.996 76.9439 104.345 75.2937Z" fill="white"/>
<path d="M117.467 79.0579C118.116 79.5456 118.838 79.9566 119.611 80.2799C120.329 80.5939 121.116 80.7703 121.92 80.7973C122.712 80.8159 123.497 80.6658 124.208 80.3602C124.975 80.0203 125.669 79.5676 126.26 79.0222C125.966 79.8195 125.381 80.512 124.595 80.9948C123.808 81.4776 122.862 81.7246 121.899 81.6982C120.921 81.6727 119.975 81.3862 119.19 80.8776C118.434 80.4211 117.837 79.7912 117.467 79.0579Z" fill="white"/>
<path d="M55.1583 188.818H43.5645V401.427H55.1583V188.818Z" fill="#EBEBEB"/>
<path d="M55.4555 183.511C55.4575 184.562 55.1009 185.589 54.4309 186.463C53.7609 187.337 52.8076 188.019 51.6917 188.422C50.5758 188.825 49.3475 188.93 48.1623 188.726C46.9772 188.521 45.8885 188.016 45.0341 187.273C44.1797 186.53 43.5981 185.584 43.3629 184.553C43.1277 183.523 43.2494 182.455 43.7128 181.485C44.1761 180.515 44.9601 179.686 45.9656 179.103C46.9711 178.521 48.1528 178.211 49.361 178.213C50.9774 178.213 52.5275 178.771 53.6705 179.765C54.8134 180.758 55.4555 182.106 55.4555 183.511Z" fill="#EBEBEB"/>
<path d="M365.092 188.818H353.498V401.427H365.092V188.818Z" fill="#EBEBEB"/>
<path d="M359.295 188.819C362.667 188.819 365.4 186.442 365.4 183.511C365.4 180.58 362.667 178.204 359.295 178.204C355.924 178.204 353.19 180.58 353.19 183.511C353.19 186.442 355.924 188.819 359.295 188.819Z" fill="#EBEBEB"/>
<path d="M353.498 331.36H55.1475V362.839H353.498V331.36Z" fill="#EBEBEB"/>
<path d="M66.5468 331.36H55.1582V362.83H66.5468V331.36Z" fill="#DBDBDB"/>
<path d="M353.498 331.36H342.109V362.83H353.498V331.36Z" fill="#DBDBDB"/>
<path d="M198.019 358.031H81.2188V336.159H198.019V358.031ZM82.2037 357.139H196.993V337.051H82.2447L82.2037 357.139Z" fill="#DBDBDB"/>
<path d="M153.716 347.541H125.562V343.081H153.716V347.541ZM126.589 346.649H152.69V343.973H126.589V346.649Z" fill="#DBDBDB"/>
<path d="M327.438 358.031H210.597V336.159H327.438V358.031ZM211.623 357.139H326.412V337.051H211.623V357.139Z" fill="#DBDBDB"/>
<path d="M283.094 347.541H254.94V343.081H283.094V347.541ZM255.966 346.649H282.068V343.973H255.966V346.649Z" fill="#DBDBDB"/>
<path d="M353.498 321.807H55.1475V331.36H353.498V321.807Z" fill="#DBDBDB"/>
<path d="M353.498 297.045H55.1475V321.807H353.498V297.045Z" fill="#C7C7C7"/>
<path d="M353.191 200.843H55.1582V209.334H353.191V200.843Z" fill="#EBEBEB"/>
<path d="M63.7562 209.334H59.8164V331.36H63.7562V209.334Z" fill="#EBEBEB"/>
<path d="M82.7475 209.334H78.8076V331.36H82.7475V209.334Z" fill="#EBEBEB"/>
<path d="M101.728 209.334H97.7881V331.36H101.728V209.334Z" fill="#EBEBEB"/>
<path d="M120.709 209.334H116.77V331.36H120.709V209.334Z" fill="#EBEBEB"/>
<path d="M139.701 209.334H135.761V331.36H139.701V209.334Z" fill="#EBEBEB"/>
<path d="M158.681 209.334H154.741V331.36H158.681V209.334Z" fill="#EBEBEB"/>
<path d="M177.662 209.334H173.723V331.36H177.662V209.334Z" fill="#EBEBEB"/>
<path d="M196.654 209.334H192.714V331.36H196.654V209.334Z" fill="#EBEBEB"/>
<path d="M215.634 209.334H211.694V331.36H215.634V209.334Z" fill="#EBEBEB"/>
<path d="M234.625 209.334H230.686V331.36H234.625V209.334Z" fill="#EBEBEB"/>
<path d="M253.607 209.334H249.667V331.36H253.607V209.334Z" fill="#EBEBEB"/>
<path d="M272.588 209.334H268.648V331.36H272.588V209.334Z" fill="#EBEBEB"/>
<path d="M291.579 209.334H287.64V331.36H291.579V209.334Z" fill="#EBEBEB"/>
<path d="M310.56 209.334H306.62V331.36H310.56V209.334Z" fill="#EBEBEB"/>
<path d="M329.541 209.334H325.602V331.36H329.541V209.334Z" fill="#EBEBEB"/>
<path d="M348.533 209.334H344.593V331.36H348.533V209.334Z" fill="#EBEBEB"/>
<path d="M353.191 200.843H55.1582V209.334H353.191V200.843Z" fill="#EBEBEB"/>
<path d="M42.5273 401.48C179.611 400.936 333.388 400.927 470.472 401.48C333.388 402.033 179.611 402.024 42.5273 401.48Z" fill="#263238"/>
<path d="M437.609 363.437H399.186V396.842H437.609V363.437Z" fill="white"/>
<path d="M442.903 401.453H393.881V358.834H442.903V401.453ZM399.185 396.842H437.609V363.436H399.185V396.842Z" fill="#EF88AD"/>
<path opacity="0.5" d="M442.903 401.453H393.881V358.834H442.903V401.453ZM399.185 396.842H437.609V363.436H399.185V396.842Z" fill="white"/>
<path d="M426.047 373.391L420.66 379.858V386.102C420.664 386.27 420.629 386.436 420.558 386.591C420.486 386.747 420.379 386.888 420.243 387.006C420.107 387.124 419.944 387.217 419.766 387.28C419.587 387.342 419.396 387.372 419.203 387.369C418.818 387.366 418.449 387.232 418.176 386.995C417.903 386.758 417.749 386.437 417.746 386.102V379.858L412.37 373.391C412.258 373.26 412.177 373.111 412.132 372.953C412.086 372.794 412.077 372.629 412.104 372.468C412.132 372.306 412.196 372.151 412.293 372.011C412.389 371.871 412.517 371.749 412.668 371.652C412.818 371.555 412.99 371.484 413.172 371.445C413.354 371.405 413.544 371.397 413.73 371.421C413.915 371.445 414.094 371.501 414.255 371.585C414.416 371.669 414.556 371.779 414.668 371.91L419.203 377.307L423.738 371.91C423.851 371.774 423.994 371.659 424.159 371.571C424.323 371.483 424.507 371.424 424.698 371.399C424.888 371.373 425.083 371.38 425.271 371.421C425.459 371.461 425.635 371.534 425.79 371.634C426.084 371.842 426.275 372.141 426.322 372.468C426.37 372.795 426.271 373.126 426.047 373.391Z" fill="#EF88AD"/>
<g opacity="0.5">
<path d="M426.047 373.391L420.66 379.858V386.102C420.664 386.27 420.629 386.436 420.558 386.591C420.486 386.747 420.379 386.888 420.243 387.006C420.107 387.124 419.944 387.217 419.766 387.28C419.587 387.342 419.396 387.372 419.203 387.369C418.818 387.366 418.449 387.232 418.176 386.995C417.903 386.758 417.749 386.437 417.746 386.102V379.858L412.37 373.391C412.258 373.26 412.177 373.111 412.132 372.953C412.086 372.794 412.077 372.629 412.104 372.468C412.132 372.306 412.196 372.151 412.293 372.011C412.389 371.871 412.517 371.749 412.668 371.652C412.818 371.555 412.99 371.484 413.172 371.445C413.354 371.405 413.544 371.397 413.73 371.421C413.915 371.445 414.094 371.501 414.255 371.585C414.416 371.669 414.556 371.779 414.668 371.91L419.203 377.307L423.738 371.91C423.851 371.774 423.994 371.659 424.159 371.571C424.323 371.483 424.507 371.424 424.698 371.399C424.888 371.373 425.083 371.38 425.271 371.421C425.459 371.461 425.635 371.534 425.79 371.634C426.084 371.842 426.275 372.141 426.322 372.468C426.37 372.795 426.271 373.126 426.047 373.391Z" fill="white"/>
</g>
<path d="M457.903 358.834H442.903V401.453H457.903V358.834Z" fill="#EF88AD"/>
<path d="M401.761 363.437H399.062V396.842H401.761V363.437Z" fill="#EF88AD"/>
<path d="M446.063 396.851H455.39V363.445H446.063V396.851Z" fill="white"/>
<path d="M453.584 396.851H455.38V363.445H453.584V396.851Z" fill="#EF88AD"/>
<path opacity="0.5" d="M453.584 396.851H455.38V363.445H453.584V396.851Z" fill="white"/>
<path d="M427.924 278.197H389.5V311.602H427.924V278.197Z" fill="white"/>
<path d="M392.198 278.197H389.5V311.602H392.198V278.197Z" fill="#EF88AD"/>
<path d="M433.228 316.214H384.206V273.585H433.228V316.214ZM389.5 311.602H427.924V278.197H389.5V311.602Z" fill="#EF88AD"/>
<path opacity="0.5" d="M433.228 316.214H384.206V273.585H433.228V316.214ZM389.5 311.602H427.924V278.197H389.5V311.602Z" fill="white"/>
<path d="M412.37 298.303H405.937L404.634 301.3C404.522 301.537 404.332 301.74 404.087 301.883C403.842 302.026 403.554 302.102 403.259 302.103C403.088 302.103 402.918 302.079 402.756 302.031C402.39 301.909 402.094 301.667 401.93 301.357C401.767 301.046 401.751 300.693 401.884 300.372L407.733 286.805C407.845 286.563 408.04 286.356 408.291 286.213C408.542 286.069 408.838 285.996 409.138 286.002C409.44 285.99 409.738 286.062 409.99 286.206C410.243 286.35 410.436 286.559 410.544 286.805L416.402 300.372C416.49 300.566 416.522 300.776 416.494 300.983C416.466 301.19 416.38 301.388 416.242 301.56C416.105 301.731 415.922 301.87 415.708 301.965C415.494 302.059 415.257 302.107 415.017 302.103C414.726 302.104 414.44 302.028 414.2 301.885C413.96 301.741 413.776 301.537 413.673 301.3L412.37 298.303ZM411.282 295.769L409.138 290.792L406.994 295.743L411.282 295.769Z" fill="#EF88AD"/>
<g opacity="0.5">
<path d="M412.37 298.303H405.937L404.634 301.3C404.522 301.537 404.332 301.74 404.087 301.883C403.842 302.026 403.554 302.102 403.259 302.103C403.088 302.103 402.918 302.079 402.756 302.031C402.39 301.909 402.094 301.667 401.93 301.357C401.767 301.046 401.751 300.693 401.884 300.372L407.733 286.805C407.845 286.563 408.04 286.356 408.291 286.213C408.542 286.069 408.838 285.996 409.138 286.002C409.44 285.99 409.738 286.062 409.99 286.206C410.243 286.35 410.436 286.559 410.544 286.805L416.402 300.372C416.49 300.566 416.522 300.776 416.494 300.983C416.466 301.19 416.38 301.388 416.242 301.56C416.105 301.731 415.922 301.87 415.708 301.965C415.494 302.059 415.257 302.107 415.017 302.103C414.726 302.104 414.44 302.028 414.2 301.885C413.96 301.741 413.776 301.537 413.673 301.3L412.37 298.303ZM411.282 295.769L409.138 290.792L406.994 295.743L411.282 295.769Z" fill="white"/>
</g>
<path d="M448.229 273.585H433.229V316.205H448.229V273.585Z" fill="#EF88AD"/>
<path d="M435.906 311.602H446.433V278.197H435.906V311.602Z" fill="white"/>
<path d="M444.596 311.602H446.433V278.197H444.596V311.602Z" fill="#EF88AD"/>
<path opacity="0.5" d="M444.596 311.602H446.433V278.197H444.596V311.602Z" fill="white"/>
<path d="M449.131 273.585H400.14V230.966H449.162L449.131 273.585ZM405.403 268.983H443.827V235.577H405.403V268.983Z" fill="#455A64"/>
<path d="M443.827 235.577H405.403V268.983H443.827V235.577Z" fill="white"/>
<path d="M408.102 235.577H405.403V268.983H408.102V235.577Z" fill="#37474F"/>
<path d="M419.5 258.216V244.622C419.5 244.456 419.538 244.291 419.611 244.137C419.684 243.984 419.791 243.844 419.927 243.726C420.062 243.609 420.223 243.516 420.399 243.452C420.576 243.388 420.766 243.355 420.957 243.355H424.763C425.698 243.356 426.614 243.582 427.409 244.01C428.204 244.437 428.847 245.048 429.266 245.775C429.684 246.501 429.862 247.315 429.779 248.124C429.696 248.933 429.355 249.707 428.796 250.358C429.838 250.927 430.639 251.776 431.079 252.776C431.519 253.776 431.573 254.873 431.234 255.902C430.895 256.931 430.181 257.836 429.199 258.482C428.217 259.128 427.021 259.479 425.789 259.483H421.07C421.018 259.483 421.018 259.483 420.988 259.483C420.598 259.485 420.222 259.353 419.944 259.116C419.665 258.879 419.505 258.555 419.5 258.216ZM422.445 249.599H424.763C425.318 249.583 425.843 249.379 426.226 249.031C426.61 248.682 426.821 248.217 426.815 247.735C426.815 247.262 426.599 246.808 426.214 246.474C425.83 246.139 425.308 245.951 424.763 245.951H422.486L422.445 249.599ZM422.445 256.923H425.789C426.516 256.923 427.213 256.672 427.726 256.225C428.24 255.779 428.529 255.173 428.529 254.541C428.529 253.909 428.24 253.304 427.726 252.857C427.213 252.41 426.516 252.16 425.789 252.16H422.475L422.445 256.923Z" fill="#455A64"/>
<path d="M465.526 230.966H449.131V273.585H465.526V230.966Z" fill="#37474F"/>
<path d="M452.476 268.974H463.003V235.568H452.476V268.974Z" fill="white"/>
<path d="M460.807 268.974H462.992V235.568H460.807V268.974Z" fill="#455A64"/>
<path d="M425.277 358.834H376.244V316.214H425.277V358.834ZM381.549 354.222H419.972V320.817H381.549V354.222Z" fill="#455A64"/>
<path d="M419.973 320.817H381.549V354.222H419.973V320.817Z" fill="white"/>
<path d="M384.247 320.817H381.549V354.222H384.247V320.817Z" fill="#37474F"/>
<path d="M395.646 343.42V329.871C395.646 329.535 395.799 329.212 396.073 328.975C396.346 328.737 396.716 328.604 397.103 328.604H400.868C401.802 328.606 402.717 328.834 403.51 329.261C404.304 329.689 404.945 330.301 405.362 331.027C405.78 331.753 405.956 332.566 405.873 333.375C405.79 334.183 405.449 334.956 404.89 335.606C405.934 336.173 406.738 337.02 407.18 338.019C407.622 339.018 407.678 340.115 407.339 341.145C407.001 342.174 406.287 343.08 405.305 343.725C404.322 344.37 403.125 344.72 401.894 344.722H397.205C397.154 344.722 397.154 344.722 397.123 344.722C396.927 344.724 396.733 344.691 396.551 344.625C396.37 344.56 396.206 344.464 396.068 344.343C395.93 344.221 395.822 344.077 395.75 343.918C395.677 343.76 395.642 343.59 395.646 343.42ZM398.59 334.812H400.868C401.423 334.794 401.948 334.588 402.332 334.238C402.715 333.888 402.926 333.422 402.92 332.939C402.92 332.466 402.704 332.012 402.319 331.678C401.934 331.343 401.412 331.155 400.868 331.155H398.59V334.812ZM398.59 342.136H401.894C402.593 342.098 403.249 341.831 403.729 341.387C404.209 340.944 404.476 340.358 404.476 339.749C404.476 339.141 404.209 338.555 403.729 338.111C403.249 337.668 402.593 337.4 401.894 337.363H398.59V342.136Z" fill="#455A64"/>
<path d="M446.33 316.214H425.276V358.834H446.33V316.214Z" fill="#37474F"/>
<path d="M429.791 354.222H442.432V320.817H429.791V354.222Z" fill="white"/>
<path d="M440.523 354.222H442.432V320.817H440.523V354.222Z" fill="#455A64"/>
<path d="M138.398 244.105C143.579 248.814 169.639 279.508 195.207 286.207C222.437 293.343 246.323 295.234 256.952 290.765C286.06 278.518 273.799 251.312 255.269 246.647C231.969 240.778 218.949 244.542 205.703 241.295C204.174 240.92 175.949 223.767 161.862 220.27C152.874 218.076 131.934 238.244 138.398 244.105Z" fill="#F7A9A0"/>
<path d="M166.89 222.465C167.639 219.307 165.628 213.304 166.541 210.815C167.454 208.327 169.147 200.638 165.699 201.092C162.252 201.547 157.82 211.127 156.835 213.313C155.85 215.498 146.975 201.913 142.101 206.007C137.228 210.102 144.677 218.192 143.692 219.031C142.707 219.869 133.514 212.849 129.543 216.676C125.573 220.502 136.725 226.577 136.469 226.889C136.212 227.201 131.339 219.048 127.44 221.956C123.541 224.864 132.714 233.695 132.098 234.4C131.482 235.104 123.664 233.071 121.222 237.076C118.78 241.081 131.995 242.285 133.042 242.597C134.088 242.909 140.798 247.191 143.179 246.165C145.559 245.139 166.366 224.704 166.89 222.465Z" fill="#F7A9A0"/>
<path d="M192.786 234.311C197.668 235.8 202.161 238.12 206.001 241.134C207.027 241.875 207.879 242.686 208.792 243.48C209.705 244.274 210.536 245.148 211.264 246.076C212.828 247.862 214.13 249.809 215.143 251.874C213.704 250.051 212.149 248.3 210.485 246.629C208.828 244.975 207.042 243.422 205.139 241.982C203.256 240.519 201.279 239.149 199.219 237.879C197.147 236.621 195.023 235.408 192.786 234.311Z" fill="#263238"/>
<path d="M148.863 243.454C152.125 241.726 155.107 239.626 157.728 237.21C160.288 234.651 162.422 231.792 164.068 228.718C164.212 228.486 163.812 228.236 163.679 228.477C161.856 231.404 159.634 234.13 157.061 236.594C154.602 239.101 151.773 241.315 148.648 243.177C148.484 243.275 148.678 243.516 148.863 243.454Z" fill="#263238"/>
<path d="M135.525 399.768C121.51 400.187 84.707 356.755 97.6346 348.576C108.038 341.993 150.987 360.654 153.459 377.387C155.101 388.511 145.344 399.473 135.525 399.768Z" fill="#F7A9A0"/>
<path d="M287.281 363.312C291.908 383.899 268.577 402.622 238.597 399.116C215.225 396.378 185.245 377.655 185.245 377.655C185.245 377.655 158.723 396.663 152.547 400.624C142.912 406.797 114.451 395.647 116.431 380.206C117.858 369.11 129.092 338.113 167.249 317.133C205.724 295.966 281.012 335.588 287.281 363.312Z" fill="#F7A9A0"/>
<g opacity="0.1">
<path d="M135.525 399.768C121.51 400.187 84.707 356.755 97.6346 348.576C108.038 341.993 150.987 360.653 153.459 377.387C155.101 388.511 145.344 399.473 135.525 399.768Z" fill="#050400"/>
<path d="M287.281 363.312C291.908 383.899 268.577 402.622 238.597 399.116C215.225 396.378 185.245 377.655 185.245 377.655C185.245 377.655 158.723 396.663 152.547 400.624C142.912 406.797 114.451 395.647 116.431 380.206C117.858 369.11 129.092 338.113 167.249 317.133C205.724 295.966 281.012 335.588 287.281 363.312Z" fill="#050400"/>
</g>
<path d="M197.649 384.818C192.19 381.877 187.335 378.162 183.285 373.828C181.336 371.75 179.53 369.6 177.806 367.379C175.852 365.015 174.162 362.494 172.758 359.851C172.731 359.79 172.678 359.742 172.609 359.716C172.541 359.69 172.464 359.689 172.394 359.712C172.325 359.736 172.269 359.783 172.239 359.842C172.209 359.901 172.208 359.969 172.235 360.029C172.841 361.421 173.261 362.857 173.918 364.221C174.614 365.567 175.392 366.88 176.247 368.155C177.863 370.599 179.805 372.869 182.034 374.917C186.503 379.023 191.741 382.441 197.526 385.023C197.649 385.085 197.783 384.889 197.649 384.818Z" fill="#263238"/>
<path d="M121.356 377.387C120.937 373.258 121.319 369.097 122.484 365.078C123.028 363.205 123.695 361.385 124.434 359.601C125.158 357.654 126.118 355.779 127.296 354.008C127.43 353.83 127.091 353.589 126.947 353.767C126.281 354.606 125.48 355.328 124.895 356.211C124.291 357.093 123.746 358.004 123.264 358.941C122.312 360.782 121.623 362.717 121.212 364.703C120.416 368.897 120.416 373.176 121.212 377.37C121.171 377.477 121.366 377.494 121.356 377.387Z" fill="#263238"/>
<path d="M220.354 315.349C220.949 313.966 252.448 324.742 281.504 323.493C316.757 321.985 337.606 314.466 339.637 315.465C343.741 317.436 354.001 352.929 345.793 373.275C337.585 393.622 306.908 408.563 280.775 406.146C254.643 403.728 188.046 391.017 220.354 315.349Z" fill="#EF88AD"/>
<g opacity="0.6">
<path d="M220.354 315.349C220.949 313.966 252.448 324.742 281.504 323.493C316.757 321.985 337.606 314.466 339.637 315.465C343.741 317.436 354.001 352.929 345.793 373.275C337.585 393.622 306.908 408.563 280.775 406.146C254.643 403.728 188.046 391.017 220.354 315.349Z" fill="white"/>
</g>
<path d="M339.607 315.429C296.515 334.009 223.33 318.997 220.324 315.349C220.324 315.349 216.928 293.165 252.602 249.501C262.565 237.299 299.398 237.798 309.668 247.075C337.257 271.935 340.335 315.126 339.607 315.429Z" fill="#EF88AD"/>
<g opacity="0.6">
<path d="M339.607 315.429C296.515 334.009 223.33 318.997 220.324 315.349C220.324 315.349 216.928 293.165 252.602 249.501C262.565 237.299 299.398 237.798 309.668 247.075C337.257 271.935 340.335 315.126 339.607 315.429Z" fill="white"/>
</g>
<path d="M262.154 273.559C263.601 280.57 270.721 286.323 270.721 286.323C270.721 286.323 280.294 284.798 285.865 279.553C290.513 275.182 290.533 269.188 286.326 266.815C280.294 263.408 275.235 272.952 275.235 272.952C275.235 272.952 276.898 262.551 269.695 262.605C264.709 262.649 260.953 267.707 262.154 273.559Z" fill="#EF88AD"/>
<path d="M245.512 295.109C248.2 298.936 253.874 300.898 253.874 300.898C253.874 300.898 259.096 298.098 260.984 293.914C262.564 290.417 260.984 286.903 257.906 286.341C253.474 285.547 253.012 292.148 253.012 292.148C253.012 292.148 251.268 285.717 247.051 287.18C244.188 288.205 243.275 291.916 245.512 295.109Z" fill="#EF88AD"/>
<path d="M243.737 274.665C245.764 275.8 248.117 276.418 250.529 276.449C251.939 274.747 252.771 272.735 252.93 270.642C252.93 268.162 250.949 266.324 248.887 266.637C245.932 267.083 247.523 271.248 247.523 271.248C247.523 271.248 244.619 267.68 242.444 269.464C240.925 270.713 241.449 273.175 243.737 274.665Z" fill="#EF88AD"/>
<path d="M313.402 243.436C295.447 247.378 284.541 265.985 296.72 282.577C308.898 299.168 334.682 295.751 341.946 282.862C352.216 264.639 336.457 238.378 313.402 243.436Z" fill="#EF88AD"/>
<path d="M405.793 201.405C403.793 207.649 397.534 245.452 378.646 261.864C358.536 279.348 338.519 290.837 326.73 291.3C294.411 292.487 290.42 263.47 304.209 251.74C321.538 236.995 335.061 234.953 344.982 226.675C346.132 225.721 361.624 199.023 372.171 190.103C378.912 184.412 408.348 193.564 405.793 201.405Z" fill="#F7A9A0"/>
<path d="M368.909 194.055C366.539 191.584 365.041 185.465 362.887 183.654C360.732 181.843 355.048 175.751 358.342 174.734C361.635 173.717 370.736 180.336 372.798 181.87C374.86 183.404 375.281 167.767 381.806 169.382C388.332 170.996 386.167 181.174 387.48 181.513C388.793 181.852 393.092 171.88 398.674 173.61C404.255 175.34 397.719 185.295 398.13 185.465C398.54 185.634 398.427 176.42 403.403 177.437C408.38 178.454 405.137 189.925 406.061 190.317C406.984 190.71 412.771 185.67 417.08 188.158C421.389 190.647 410.401 197.132 409.672 197.837C408.944 198.541 405.332 205.071 402.675 205.142C400.018 205.214 370.602 195.821 368.909 194.055Z" fill="#F7A9A0"/>
<path d="M352.545 215.141C349.056 218.456 346.36 222.34 344.614 226.568C344.152 227.621 343.803 228.7 343.434 229.779C343.111 230.87 342.855 231.975 342.664 233.089C342.261 235.304 342.175 237.554 342.408 239.787C342.682 237.589 343.1 235.406 343.659 233.249C344.215 231.126 344.942 229.039 345.835 227.005C346.698 224.942 347.695 222.923 348.82 220.957C349.949 218.966 351.192 217.024 352.545 215.141Z" fill="#263238"/>
<path d="M396.221 205.16C392.407 204.983 388.639 204.359 385.017 203.305C381.349 202.111 377.895 200.471 374.757 198.434C374.511 198.283 374.757 197.908 374.973 198.06C378.173 199.901 381.618 201.399 385.233 202.52C388.76 203.719 392.455 204.505 396.221 204.857C396.457 204.821 396.426 205.16 396.221 205.16Z" fill="#263238"/>
<path d="M258.46 247.548C255.659 250.527 257.927 256.637 273.399 256.468C282.633 256.379 296.463 253.792 297.756 246.335C298.731 240.751 263.754 241.928 258.46 247.548Z" fill="#EF88AD"/>
<path d="M253.166 241.91C258.347 243.329 260.02 245.273 261.23 250.304C262.441 255.335 287.66 255.442 294.062 247.548C299.357 240.992 303.009 239.145 307.236 237.281C311.463 235.417 253.166 241.91 253.166 241.91Z" fill="#F7A9A0"/>
<path d="M343.331 209.513C330.742 232.527 302.24 240.082 287.158 241.893C263.765 244.711 200.225 242.588 188.98 205.954C186.374 197.453 186.558 185.375 188.539 172.584C192.335 148.117 202.749 121.071 212.916 111.714C234.462 91.876 284.531 84.8649 322.842 105.47C353.684 121.99 356.259 185.902 343.331 209.513Z" fill="#F7A9A0"/>
<path d="M279.35 161.604C277.63 161.031 275.945 160.382 274.302 159.659C272.373 158.892 270.742 158.455 269.582 156.823C269.309 156.329 269.232 155.77 269.364 155.233C269.496 154.697 269.829 154.215 270.311 153.861C272.455 152.452 275.092 152.88 277.493 153.718C279.91 154.492 281.907 156.022 283.095 158.009C284.357 160.061 281.72 162.344 279.35 161.604Z" fill="#263238"/>
<path d="M221.822 154.905C223.644 154.763 225.456 154.537 227.25 154.227C229.302 153.95 231.015 153.906 232.636 152.612C233.047 152.205 233.29 151.691 233.329 151.15C233.368 150.61 233.2 150.073 232.852 149.624C231.231 147.769 228.583 147.564 226.07 147.84C223.516 148.015 221.13 149.014 219.38 150.641C217.513 152.264 219.349 155.021 221.822 154.905Z" fill="#263238"/>
<path d="M255.064 197.649C255.238 198.331 255.358 199.023 255.423 199.719C255.741 202.484 255.495 207.256 250.56 208.452C248.683 208.862 246.702 208.721 244.927 208.05C240.023 206.427 235.98 201.262 235.98 201.262C246.61 204.054 255.064 197.649 255.064 197.649Z" fill="#263238"/>
<path d="M255.474 199.719C255.793 202.484 255.546 207.256 250.611 208.452C248.734 208.862 246.754 208.721 244.979 208.05C245.729 205.727 247.306 203.669 249.483 202.172C251.214 200.933 253.273 200.09 255.474 199.719Z" fill="#FF99BA"/>
<path d="M234.698 162.255C232.164 172.227 233.467 168.704 230.44 178.578C227.865 178.578 216.158 177.793 216.928 178.757C219.667 182.218 228.327 188.569 228.275 188.569C226.644 191.182 221.093 193.689 221.278 193.921C234.38 207.738 249.514 201.824 254.818 198.087C255.844 197.337 255.485 197.319 254.818 197.632C249.596 200.201 234.647 203.554 225.362 194.064C227.584 192.652 229.368 190.782 230.553 188.622C230.697 188.355 223.946 183.056 221.319 180.264C224.879 180.371 229.219 180.773 231.846 180.88C232.472 180.88 235.109 173.146 235.683 162.299C235.652 162.209 235.59 162.13 235.505 162.072C235.42 162.013 235.317 161.98 235.209 161.975C235.101 161.97 234.994 161.994 234.902 162.044C234.811 162.094 234.74 162.168 234.698 162.255Z" fill="#263238"/>
<path d="M221.494 169.774C221.965 168.601 222.791 167.56 223.884 166.759C224.515 166.355 225.235 166.067 225.999 165.913C226.763 165.76 227.555 165.744 228.327 165.867C229.114 166.003 229.853 166.297 230.486 166.726C231.118 167.155 231.626 167.708 231.969 168.338C232.559 169.455 232.834 170.679 232.769 171.906C232.736 172.634 232.64 173.359 232.482 174.074C232.179 175.569 231.476 176.98 230.43 178.195C230.737 177.136 230.906 176.049 230.933 174.957C230.968 173.971 230.92 172.984 230.789 172.004C230.502 170.006 229.558 168.231 227.803 168.044C225.987 167.714 224.366 168.784 223.238 170.568C222.136 172.436 221.246 174.393 220.58 176.411C220.268 174.167 220.581 171.891 221.494 169.774Z" fill="#263238"/>
<path d="M224.848 166.206C223.289 166.831 221.668 168.08 219.923 167.99C217.871 167.919 216.651 166.206 215.583 164.663C215.471 164.494 215.317 164.601 215.276 164.788C214.793 167.464 215.542 170.434 218.826 171.246C221.822 171.995 224.407 169.855 225.628 167.223C225.854 166.804 225.474 165.912 224.848 166.206Z" fill="#263238"/>
<path d="M276.343 175.724C276.242 174.485 275.752 173.294 274.927 172.281C274.446 171.74 273.841 171.292 273.15 170.965C272.46 170.638 271.699 170.439 270.915 170.381C270.114 170.335 269.311 170.452 268.571 170.725C267.832 170.998 267.176 171.418 266.657 171.951C265.772 172.894 265.151 174.002 264.841 175.189C264.658 175.9 264.535 176.621 264.472 177.347C264.314 178.863 264.563 180.39 265.201 181.807C265.224 180.716 265.385 179.63 265.683 178.57C265.941 177.608 266.284 176.666 266.709 175.751C267.581 173.887 269.007 172.37 270.761 172.584C272.516 172.798 273.839 174.074 274.424 176.054C274.939 178.106 275.221 180.198 275.266 182.298C276.224 180.213 276.594 177.959 276.343 175.724Z" fill="#263238"/>
<path d="M274.168 171.478C275.481 172.433 276.682 174.002 278.385 174.333C280.345 174.707 282.058 173.378 283.566 172.085C283.72 171.951 283.843 172.085 283.823 172.281C283.484 175.01 281.894 177.678 278.477 177.731C275.399 177.776 273.491 175.126 273.101 172.308C273.019 171.79 273.635 171.095 274.168 171.478Z" fill="#263238"/>
<path d="M306.692 127.886C299.295 130.419 292.41 132.846 284.366 133.586C276.005 134.352 267.553 133.719 259.465 131.722C246.568 128.573 232.789 122.65 219.574 127.636C219.554 127.645 219.538 127.66 219.531 127.678C219.523 127.696 219.524 127.717 219.533 127.734C219.543 127.752 219.56 127.766 219.581 127.773C219.602 127.779 219.626 127.778 219.646 127.77C236.801 123.069 252.304 134.549 268.894 136.494C281.688 137.975 297.14 135.834 307.256 128.725C307.8 128.359 307.287 127.681 306.692 127.886Z" fill="#263238"/>
<path d="M326.186 192.244C324.414 187.446 321.289 183.11 317.096 179.631C311.966 175.287 306.703 171.656 303.409 165.992C296.32 153.808 298.053 139.286 304.363 127.306C304.538 126.967 303.871 126.655 303.655 126.994C296.832 137.502 293.395 149.383 298.084 161.265C300.231 166.587 303.845 171.371 308.611 175.198C315.372 180.692 321.857 184.778 325.468 192.431C325.622 192.77 326.32 192.592 326.186 192.244Z" fill="#263238"/>
<path d="M337.482 212.903C332.167 211.35 320.82 202.199 321.066 193.279C321.312 184.359 316.152 179.283 315.228 177.053C314.305 174.823 294.113 165.796 301.151 131.641C301.151 131.641 279.534 135.959 256.941 127.886C231.291 118.698 210.248 126.102 199.352 133.88C193.935 137.743 201.773 106.014 234.359 94.3558C248.364 89.3427 260.009 89.1197 268.699 87.4963C272.464 86.8456 276.073 85.6388 279.37 83.9283C287.229 78.3176 290.071 68.9695 284.017 61.334C272.126 46.3751 246.938 46.723 233.743 59.4518C233.651 59.55 233.436 59.4518 233.528 59.3448C236.68 55.9712 240.677 53.2681 245.214 51.4417C245.214 51.3881 245.214 51.3525 245.214 51.3257C249.616 49.4595 254.289 48.1241 259.106 47.3563C251.76 48.3339 244.733 50.6469 238.483 54.1444C238.319 54.2426 238.083 54.0196 238.258 53.9036C248.384 47.5258 263.241 43.601 276.497 45.4653C266.819 43.1718 256.527 43.8621 247.369 47.4188C247.194 47.4901 247.081 47.2582 247.245 47.1779C258.46 41.5851 275.502 41.1123 286.859 47.1779C289.854 48.7604 292.373 50.9406 294.205 53.5379C296.74 56.1977 298.578 59.3054 299.592 62.6452C311.329 49.06 334.219 42.816 353.077 53.413C353.313 53.5557 353.077 53.859 352.811 53.7341C346.562 50.4917 339.357 48.9124 332.087 49.1914C324.817 49.4704 317.8 51.5955 311.904 55.304C308.86 57.1717 306.141 59.4097 303.829 61.9494C304.909 61.1421 306.05 60.4 307.246 59.7283C322.215 51.4773 341.894 56.4547 354.114 66.4808C354.13 66.497 354.14 66.5179 354.14 66.5396C354.14 66.5614 354.131 66.5825 354.115 66.599C354.099 66.6154 354.076 66.6261 354.051 66.6289C354.026 66.6318 354.001 66.6267 353.98 66.6146C351.122 64.736 348.088 63.0681 344.91 61.6283C347.545 62.9266 349.896 64.6174 351.856 66.6235C351.88 66.6401 351.894 66.6639 351.897 66.6899C351.9 66.7158 351.891 66.7417 351.872 66.7618C351.853 66.7819 351.825 66.7946 351.795 66.7971C351.766 66.7996 351.736 66.7917 351.713 66.7752C348.592 64.5057 344.977 62.8068 341.083 61.78C346.443 63.7489 351.116 66.9043 354.637 70.9319C354.699 71.0017 354.728 71.0902 354.715 71.178C354.703 71.2658 354.65 71.3458 354.57 71.4002C354.49 71.4546 354.388 71.479 354.287 71.4682C354.186 71.4573 354.094 71.412 354.032 71.3422C345.495 62.3508 331.049 58.649 318.624 63.448C317.418 63.9321 316.252 64.4895 315.136 65.116C313.019 66.4008 311.084 67.8978 309.37 69.576C307.696 71.4758 306.704 73.7625 306.517 76.1501C306.512 76.2392 306.512 76.3285 306.517 76.4177C306.445 77.6812 306.545 78.9477 306.815 80.1908C306.815 80.2622 306.877 80.3425 306.897 80.4049C306.999 80.8626 307.129 81.3152 307.287 81.7608C307.379 82.0908 307.513 82.4298 307.646 82.7776C307.718 82.9471 307.779 83.1166 307.862 83.2771C309.657 87.5855 313.71 93.553 322.759 100.332C335.122 109.564 372.469 126.441 362.691 174.984C358.402 196.24 337.482 212.903 337.482 212.903Z" fill="#263238"/>
<path d="M285.751 61.3697C277.831 49.9253 257.865 48.3464 245.276 54.8759C245.019 55.0097 245.204 55.3754 245.481 55.2505C256.89 49.8985 274.773 51.7271 282.366 61.3518C290.861 72.1093 285.495 84.1692 272.916 90.0296C272.772 90.0876 272.66 90.193 272.605 90.3226C272.55 90.4523 272.557 90.5955 272.624 90.7209C272.69 90.8463 272.812 90.9435 272.961 90.9912C273.11 91.0389 273.275 91.0331 273.419 90.9751C287.075 85.8818 293.703 72.8586 285.751 61.3697Z" fill="#263238"/>
<path d="M339.986 66.686C340.011 66.6874 340.035 66.6817 340.056 66.6699C340.076 66.658 340.092 66.6407 340.1 66.6205C340.108 66.6002 340.109 66.5783 340.101 66.5579C340.093 66.5375 340.078 66.5198 340.058 66.5076C329.624 63.0734 311.905 61.6016 305.82 71.8596C299.49 82.5011 307.031 95.6849 318.399 101.037C319.035 101.34 320.031 100.662 319.374 100.145C311.217 93.446 303.532 85.2217 307.154 74.7318C311.176 63.0109 329.234 63.5997 339.986 66.686Z" fill="#263238"/>
<path d="M368.222 153.54C365.544 134.148 349.754 119.26 332.404 108.048C348.461 119.894 363.338 133.167 365.934 152.193C367.309 162.326 367.483 173.806 362.271 183.154C357.059 192.503 347.753 199.442 339.012 206.391C338.853 206.509 338.754 206.678 338.738 206.859C338.721 207.041 338.788 207.22 338.925 207.359C339.061 207.497 339.254 207.583 339.463 207.597C339.672 207.611 339.879 207.553 340.038 207.435C349.272 200.977 358.506 193.894 364.067 184.644C369.638 175.251 369.648 163.834 368.222 153.54Z" fill="#263238"/>
<path d="M277.144 85.8015C269.325 89.209 260.512 89.2536 251.945 89.8601C242.978 90.4845 232.451 91.6441 224.243 94.9445C210.679 100.404 199.26 115.184 201.168 128.252C201.25 128.805 202.338 128.787 202.328 128.207C202.174 120.179 205.683 112.74 211.367 106.469C217.841 99.3332 225.402 95.7652 235.591 93.6511C243.37 92.1468 251.252 91.0742 259.189 90.4399C265.775 89.8512 271.562 88.8968 277.236 85.9799C277.338 85.9086 277.256 85.7569 277.144 85.8015Z" fill="#263238"/>
<path d="M347.168 225.141C333.974 214.972 347.507 200.406 354.463 190.531C354.668 190.255 354.196 189.951 353.981 190.228C346.399 199.915 328.875 216.31 346.532 225.908C346.649 225.981 346.795 226.011 346.937 225.991C347.08 225.971 347.207 225.903 347.291 225.801C347.376 225.699 347.41 225.572 347.387 225.449C347.364 225.325 347.285 225.214 347.168 225.141Z" fill="#263238"/>
<path d="M337.976 227.71C332.846 218.397 337.976 208.425 343.926 200.486C344.035 200.334 344.072 200.152 344.032 199.977C343.992 199.802 343.877 199.647 343.71 199.542C343.544 199.438 343.338 199.393 343.134 199.416C342.93 199.438 342.744 199.528 342.613 199.665C335.431 208.166 331.809 218.032 337.688 227.817C337.781 227.968 338.058 227.861 337.976 227.71Z" fill="#263238"/>
<path d="M347.507 220.779C337.431 212.171 349.979 198.88 355.479 191.289C355.91 190.701 354.914 189.996 354.36 190.531C347.825 196.909 334.784 214.009 347.332 220.966C347.361 220.977 347.393 220.98 347.424 220.973C347.455 220.967 347.482 220.952 347.502 220.931C347.522 220.909 347.533 220.883 347.534 220.856C347.535 220.828 347.525 220.801 347.507 220.779Z" fill="#263238"/>
<path d="M318.728 187.918C318.728 187.918 333.502 168.713 347.199 169.266C361.686 169.864 362.374 192.886 351.549 201.583C338.837 211.797 321.436 206.382 321.436 206.382L318.728 187.918Z" fill="#F7A9A0"/>
<path d="M341.484 182.307C343.709 180.819 346.139 179.579 348.717 178.614C348.781 178.586 348.83 178.539 348.856 178.481C348.881 178.423 348.881 178.359 348.856 178.302C348.83 178.244 348.781 178.196 348.718 178.168C348.654 178.14 348.581 178.134 348.512 178.15C337.832 181.023 327.407 189.746 327.859 200.201C327.861 200.278 327.895 200.352 327.954 200.41C328.013 200.468 328.093 200.506 328.181 200.518C328.269 200.53 328.359 200.514 328.435 200.474C328.511 200.434 328.569 200.372 328.598 200.299C328.946 199.407 329.288 198.515 329.624 197.623C331.676 195.277 333.543 193.163 336.693 191.655C339.708 190.25 343.104 189.581 346.522 189.72C346.922 189.72 346.912 189.238 346.522 189.193C343.895 188.865 341.218 189.025 338.667 189.663C336.117 190.301 333.751 191.403 331.727 192.895C332.843 190.662 334.318 188.577 336.108 186.705C337.697 185.053 339.49 183.557 341.453 182.245" fill="#263238"/>
<path d="M324.401 206.159C324.319 206.159 324.288 206.257 324.401 206.275C324.515 206.293 324.484 206.177 324.401 206.159Z" fill="#263238"/>
<path d="M288.461 78.9866C288.461 78.9866 277.985 49.8628 272.506 59.1039C267.028 68.345 270.177 75.1599 270.177 75.1599C270.177 75.1599 261.969 84.8649 265.273 88.0315C268.577 91.1981 285.557 87.8798 286.737 85.2217C287.551 83.1989 288.128 81.11 288.461 78.9866Z" fill="#EF88AD"/>
<path opacity="0.1" d="M288.46 78.9778C288.124 81.1027 287.551 83.194 286.747 85.2218C286.151 86.4973 281.924 87.9513 277.287 88.7362C276.955 85.9885 276.931 83.2192 277.215 80.4674C277.718 77.1046 283.053 73.3314 285.546 71.7615C287.28 75.7666 288.46 78.9778 288.46 78.9778Z" fill="#050400"/>
<path d="M294.011 80.2801C294.011 80.2801 327.069 58.3726 328.321 69.6831C329.573 80.9937 320.852 85.8283 320.852 85.8283C320.852 85.8283 325.407 98.9318 318.943 100.252C312.479 101.572 292.042 90.0386 292.216 86.979C292.456 84.6847 293.06 82.4304 294.011 80.2801Z" fill="#EF88AD"/>
<path opacity="0.1" d="M301.952 86.3368C301.304 88.6138 300.03 90.7199 298.238 92.4737C294.657 90.217 292.082 88.0672 292.174 86.979C292.425 84.6856 293.044 82.4338 294.011 80.289C294.011 80.289 296.196 78.8529 299.428 76.9083C300.67 78.9332 302.67 82.858 301.952 86.3368Z" fill="#050400"/>
<path d="M298.505 85.1236C298.073 86.6987 297.114 88.1272 295.748 89.2284C294.383 90.3297 292.673 91.0543 290.834 91.3106C288.995 91.5669 287.109 91.3435 285.417 90.6686C283.724 89.9936 282.299 88.8975 281.322 87.5187C280.346 86.1399 279.861 84.5403 279.93 82.9222C279.999 81.3041 280.618 79.74 281.71 78.4278C282.801 77.1156 284.315 76.1141 286.061 75.5499C287.806 74.9857 289.705 74.8842 291.518 75.2581C292.722 75.5065 293.858 75.9589 294.861 76.5893C295.864 77.2197 296.714 78.0157 297.363 78.9319C298.012 79.8482 298.446 80.8666 298.642 81.929C298.838 82.9914 298.792 84.0769 298.505 85.1236Z" fill="#EF88AD"/>
<path opacity="0.5" d="M203.856 190.148C209.313 190.148 213.736 186.302 213.736 181.558C213.736 176.814 209.313 172.968 203.856 172.968C198.399 172.968 193.976 176.814 193.976 181.558C193.976 186.302 198.399 190.148 203.856 190.148Z" fill="#FF99BA"/>
<path opacity="0.5" d="M295.037 198.871C301.049 198.871 305.923 194.634 305.923 189.407C305.923 184.18 301.049 179.943 295.037 179.943C289.025 179.943 284.151 184.18 284.151 189.407C284.151 194.634 289.025 198.871 295.037 198.871Z" fill="#FF99BA"/>
<path d="M257.588 330.04C280.755 319.862 315.044 327.364 330.937 350.146C346.83 372.927 331.512 412.782 276.272 406.993C221.032 401.204 225.372 344.169 257.588 330.04Z" fill="#EF88AD"/>
<path d="M189.482 419.24C175.826 421.987 130.118 385.505 140.983 375.327C149.796 367.121 196.028 378.253 202.122 394.264C206.226 404.906 199.044 417.304 189.482 419.24Z" fill="#F7A9A0"/>
<path d="M270.588 321.691C291.641 326.865 328.208 344.259 329.911 365.185C331.614 386.111 313.003 405.111 282.889 402.649C259.404 400.713 230.245 388.653 230.245 388.653C230.245 388.653 220.591 404.852 214.435 410.231C206.011 417.625 184.537 425.297 174.092 412.684C166.623 403.675 166.408 345.944 204.688 325.125C226.47 313.262 246.436 315.768 270.588 321.691Z" fill="#F7A9A0"/>
<path d="M239.059 368.548C238.589 372.618 237.363 376.594 235.427 380.322C234.534 382.008 233.549 383.605 232.503 385.157C231.452 386.84 230.186 388.414 228.727 389.849C228.573 389.991 228.83 390.321 228.994 390.188C229.784 389.554 230.656 389.055 231.395 388.404C233.633 386.267 235.375 383.774 236.525 381.062C238.17 377.071 239.094 372.883 239.264 368.646C239.192 368.503 239.059 368.441 239.059 368.548Z" fill="#263238"/>
<path d="M176.544 398.822C174.408 395.114 172.996 391.123 172.369 387.012C172.081 385.103 171.927 383.203 171.856 381.303C171.703 379.263 171.799 377.215 172.143 375.193C172.194 374.979 171.773 374.863 171.712 375.077C171.445 376.067 171.014 376.995 170.809 378.012C170.625 379.028 170.509 380.052 170.46 381.08C170.359 383.094 170.548 385.111 171.025 387.083C172.046 391.241 173.845 395.224 176.349 398.876C176.473 398.965 176.606 398.92 176.544 398.822Z" fill="#263238"/>
<path d="M137.689 400.999C133.134 408.554 75.3292 408.652 70.3326 399.875C67.0186 394.059 73.3388 324.055 78.5406 310.978C79.4743 308.659 87.0974 305.073 106.663 304.609C112.224 304.484 128.302 305.956 131.575 309.185C135.196 312.753 142.029 393.818 137.689 400.999Z" fill="white"/>
<path d="M85.2711 322.342C82.1363 322.164 79.0367 321.664 76.0371 320.852C76.1397 320.308 76.2423 319.791 76.3347 319.282C79.273 320.167 82.267 320.906 85.3019 321.495C85.8867 321.602 85.8867 322.378 85.2711 322.342Z" fill="#A9B7C4"/>
<path d="M80.5416 358.138C77.4353 357.96 74.3638 357.466 71.3896 356.666C71.3896 356.131 71.482 355.596 71.5435 355.07C74.5102 355.953 77.5313 356.692 80.5929 357.282C81.1572 357.398 81.1572 358.174 80.5416 358.138Z" fill="#A9B7C4"/>
<path d="M78.2637 375.532C75.4847 375.368 72.7334 374.95 70.0557 374.283C70.0557 373.757 70.1172 373.231 70.148 372.687C72.8441 373.468 75.5835 374.132 78.356 374.676C78.8793 374.792 78.8793 375.532 78.2637 375.532Z" fill="#A9B7C4"/>
<path d="M84.0706 331.565C80.8342 331.394 77.6336 330.882 74.5391 330.04C74.6211 329.496 74.7032 328.97 74.775 328.452C77.8431 329.356 80.967 330.109 84.1322 330.709C84.6862 330.825 84.6862 331.601 84.0706 331.565Z" fill="#A9B7C4"/>
<path d="M81.6702 349.958C78.4587 349.782 75.2848 349.261 72.2207 348.406C72.2207 347.88 72.3336 347.336 72.3951 346.801C75.4487 347.73 78.5629 348.502 81.7215 349.111C82.2755 349.218 82.2755 349.994 81.6702 349.958Z" fill="#A9B7C4"/>
<path d="M77.2482 383.721C74.658 383.57 72.091 383.2 69.584 382.614C69.584 382.097 69.584 381.589 69.6558 381.053C72.149 381.758 74.6935 382.356 77.3098 382.837C77.8741 382.971 77.8741 383.756 77.2482 383.721Z" fill="#A9B7C4"/>
<path d="M87.4157 341.948C82.5793 342.042 77.7629 341.38 73.1953 339.995C73.2569 339.46 73.3287 338.942 73.3903 338.416C77.9469 339.681 82.6283 340.576 87.3746 341.092C87.9492 341.154 88.0313 341.93 87.4157 341.948Z" fill="#A9B7C4"/>
<path d="M84.0705 367.504C79.5031 367.605 74.9498 367.023 70.6094 365.782C70.6094 365.247 70.6812 364.712 70.7325 364.168C75.0853 365.336 79.5488 366.166 84.0705 366.648C84.6143 366.728 84.6964 367.504 84.0705 367.504Z" fill="#A9B7C4"/>
<path d="M137.689 400.999C133.134 408.554 75.3292 408.652 70.3326 399.875C67.0186 394.059 73.3388 324.055 78.5406 310.978C79.4743 308.659 87.0974 305.073 106.663 304.609C112.224 304.484 128.302 305.956 131.575 309.185C135.196 312.753 142.029 393.818 137.689 400.999Z" fill="white"/>
<path d="M137.69 400.999C132.703 407.029 105.627 406.815 97.1318 406.431C90.5859 406.003 73.1849 405.182 70.0659 399.714C69.9063 399.345 69.7928 398.962 69.7273 398.572C69.2402 395.17 69.055 391.741 69.1733 388.314C69.2348 382.231 69.5324 376.156 69.9223 370.091C70.7225 357.954 71.923 345.843 73.5235 333.76C74.3648 327.721 75.2575 321.691 76.6015 315.706C77.3197 313.529 77.3402 310.737 79.5153 309.203C83.1269 306.866 87.7234 306.054 91.9915 305.358C104.078 303.655 116.8 303.681 128.466 307.187C129.775 307.579 130.959 308.233 131.923 309.096C133.503 312.307 133.627 315.875 134.273 319.256C136.387 334.339 137.515 349.512 138.377 364.676C138.716 370.742 138.972 376.817 139.054 382.891C139.054 385.933 139.054 388.966 138.972 392.007C138.89 395.049 138.869 398.153 137.649 400.999H137.69ZM137.69 400.999C138.9 398.153 138.767 395.004 138.972 392.007C139.177 389.01 139.064 385.933 139.023 382.891C138.633 364.676 137.115 346.48 134.919 328.363C134.099 322.378 133.503 316.25 131.79 310.416C131.683 309.907 131.374 309.446 130.918 309.114C128.753 307.624 125.87 307.125 123.213 306.554C116.419 305.257 109.45 304.791 102.508 305.171C95.6749 305.59 88.5236 306.179 82.2753 308.739C80.8081 309.417 79.1973 310.211 78.8587 311.54C78.3355 312.958 77.9763 314.439 77.607 315.911C76.2219 321.843 75.2985 327.864 74.4367 333.885C72.0358 351.965 70.1685 370.144 69.6555 388.341C69.5009 391.744 69.6449 395.153 70.0864 398.537C70.6917 403.362 82.1932 404.683 86.6871 405.405C97.0761 406.652 107.592 406.888 118.042 406.11C123.274 405.584 134.519 404.906 137.659 401.025L137.69 400.999Z" fill="#C7C7C7"/>
<path d="M85.2711 322.342C82.1363 322.164 79.0367 321.664 76.0371 320.852C76.1397 320.308 76.2423 319.791 76.3347 319.282C79.273 320.167 82.267 320.906 85.3019 321.495C85.8867 321.602 85.8867 322.378 85.2711 322.342Z" fill="#DBDBDB"/>
<path d="M80.5416 358.138C77.4353 357.96 74.3638 357.466 71.3896 356.666C71.3896 356.131 71.482 355.596 71.5435 355.07C74.5102 355.953 77.5313 356.692 80.5929 357.282C81.1572 357.398 81.1572 358.174 80.5416 358.138Z" fill="#DBDBDB"/>
<path d="M78.2637 375.532C75.4847 375.368 72.7334 374.95 70.0557 374.283C70.0557 373.757 70.1172 373.231 70.148 372.687C72.8441 373.468 75.5835 374.132 78.356 374.676C78.8793 374.792 78.8793 375.532 78.2637 375.532Z" fill="#DBDBDB"/>
<path d="M84.0706 331.565C80.8342 331.394 77.6336 330.882 74.5391 330.04C74.6211 329.496 74.7032 328.97 74.775 328.452C77.8431 329.356 80.967 330.109 84.1322 330.709C84.6862 330.825 84.6862 331.601 84.0706 331.565Z" fill="#DBDBDB"/>
<path d="M81.6702 349.958C78.4587 349.782 75.2848 349.261 72.2207 348.406C72.2207 347.88 72.3336 347.336 72.3951 346.801C75.4487 347.73 78.5629 348.502 81.7215 349.111C82.2755 349.218 82.2755 349.994 81.6702 349.958Z" fill="#DBDBDB"/>
<path d="M77.2482 383.721C74.658 383.57 72.091 383.2 69.584 382.614C69.584 382.097 69.584 381.589 69.6558 381.053C72.149 381.758 74.6935 382.356 77.3098 382.837C77.8741 382.971 77.8741 383.756 77.2482 383.721Z" fill="#DBDBDB"/>
<path d="M87.4157 341.948C82.5793 342.042 77.7629 341.38 73.1953 339.995C73.2569 339.46 73.3287 338.942 73.3903 338.416C77.9469 339.681 82.6283 340.576 87.3746 341.092C87.9492 341.154 88.0313 341.93 87.4157 341.948Z" fill="#DBDBDB"/>
<path d="M84.0705 367.504C79.5031 367.605 74.9498 367.023 70.6094 365.782C70.6094 365.247 70.6812 364.712 70.7325 364.168C75.0853 365.336 79.5488 366.166 84.0705 366.648C84.6143 366.728 84.6964 367.504 84.0705 367.504Z" fill="#DBDBDB"/>
<path d="M128.364 306.241C128.128 308.498 127.717 310.318 127.163 310.541C125.655 311.165 120.156 314.171 106.643 314.573C93.8797 314.947 84.8817 311.335 84.0712 310.309C83.2606 309.283 83.3017 298.517 83.866 297.598C84.3277 296.84 89.8578 293.887 99.1842 293.049C101.475 292.847 103.778 292.785 106.079 292.861C117.95 293.236 127.102 295.35 128.107 296.429C128.702 297.036 128.774 302.317 128.364 306.241Z" fill="#455A64"/>
<path d="M122.094 299.953C121.304 300.568 116.092 303.119 105.678 302.888C95.962 302.691 90.3498 300.131 89.8368 299.052C89.8368 299.052 89.6418 293.923 93.2841 290.578C95.6542 288.401 100.169 287.447 100.169 285.378C100.169 283.308 96.0646 280.739 96.4134 277.35C96.7623 273.96 100.959 270.356 105.391 270.615C106.47 270.665 107.541 270.8 108.592 271.016C111.927 271.721 114.81 273.443 114.543 277.358C114.174 282.505 110.634 282.898 110.839 285.262C111.044 287.625 113.517 287.572 117.898 289.472C119.632 290.221 120.76 291.898 121.448 293.709C122.525 296.51 122.535 299.578 122.094 299.953Z" fill="#EF88AD"/>
<g opacity="0.5">
<path d="M122.094 299.953C121.304 300.568 116.092 303.119 105.678 302.888C95.962 302.691 90.3498 300.131 89.8368 299.052C89.8368 299.052 89.6418 293.923 93.2841 290.578C95.6542 288.401 100.169 287.447 100.169 285.378C100.169 283.308 96.0646 280.739 96.4134 277.35C96.7623 273.96 100.959 270.356 105.391 270.615C106.47 270.665 107.541 270.8 108.592 271.016C111.927 271.721 114.81 273.443 114.543 277.358C114.174 282.505 110.634 282.898 110.839 285.262C111.044 287.625 113.517 287.572 117.898 289.472C119.632 290.221 120.76 291.898 121.448 293.709C122.525 296.51 122.535 299.578 122.094 299.953Z" fill="white"/>
</g>
<g opacity="0.2">
<path d="M137.69 400.999C134.119 406.913 97.8913 408.259 79.9466 404.344L78.5615 404.022L78.11 403.906L77.4636 403.728L76.4376 403.425L75.9452 403.264L75.0628 402.961C74.6934 402.818 74.3446 402.684 74.0368 402.533C73.1237 402.162 72.2771 401.678 71.5231 401.097C71.0776 400.754 70.7089 400.343 70.4355 399.884C81.4343 403.077 96.1984 400.561 106.848 397.208H106.992C108.315 396.797 109.577 396.316 110.757 395.923L111.116 395.78C112.286 395.352 113.374 394.888 114.359 394.478C114.429 394.436 114.505 394.4 114.584 394.371H114.687L114.954 394.255C116.466 393.597 117.897 392.805 119.222 391.891C119.318 391.827 119.411 391.759 119.499 391.686L119.591 391.606C119.93 391.358 120.209 391.055 120.412 390.714C120.447 390.647 120.478 390.579 120.504 390.509C121.932 387.205 122.997 383.791 123.685 380.313V380.268V380.09L123.808 379.582C123.808 379.43 123.88 379.269 123.911 379.109C124.266 377.462 124.608 375.716 124.937 373.873C124.937 373.775 124.937 373.677 124.937 373.578C125.008 373.213 125.07 372.847 125.132 372.472C125.137 372.434 125.137 372.395 125.132 372.356C125.255 371.661 125.378 370.947 125.491 370.225C125.634 369.333 125.778 368.485 125.911 367.602C125.911 367.477 125.911 367.352 125.911 367.219L126.158 365.577L126.25 364.962C126.25 364.641 126.342 364.311 126.394 363.981V363.74C126.465 363.205 126.547 362.669 126.619 362.125L126.681 361.644L126.742 361.18L126.896 360.02C126.968 359.512 127.03 358.994 127.091 358.477C127.139 358.144 127.18 357.814 127.214 357.487C127.214 357.157 127.296 356.827 127.338 356.497L127.399 356.077C127.399 356.024 127.399 355.97 127.399 355.908L127.615 354.124C127.615 353.821 127.686 353.526 127.717 353.232C127.722 353.167 127.722 353.101 127.717 353.036C127.717 353.036 127.717 353.036 127.717 352.991C127.717 352.75 127.717 352.509 127.799 352.269C127.871 351.653 127.933 351.038 128.004 350.413V350.128C128.004 349.914 128.004 349.691 128.076 349.477C128.158 348.736 128.23 347.996 128.312 347.264C128.476 345.721 128.63 344.187 128.784 342.671C128.779 342.605 128.779 342.54 128.784 342.474C128.784 342.287 128.784 342.1 128.784 341.912V341.565L128.938 339.941V339.531C128.938 339.415 128.938 339.299 128.938 339.183C128.938 338.88 128.938 338.585 129.02 338.291V338.006C129.015 337.937 129.015 337.869 129.02 337.8C129.02 337.577 129.02 337.345 129.071 337.122C129.078 337.081 129.078 337.039 129.071 336.998C129.071 336.891 129.071 336.792 129.071 336.685C129.071 336.239 129.154 335.793 129.184 335.365C129.194 335.264 129.194 335.163 129.184 335.062C129.933 326.49 130.457 319.006 130.754 314.385C130.846 312.869 130.918 311.656 130.97 310.817C130.97 310.746 130.97 310.648 130.97 310.541C130.97 310.434 130.97 310.469 130.97 310.434C130.97 310.398 130.97 310.184 130.97 310.059C130.974 310.003 130.974 309.946 130.97 309.89C130.97 309.622 130.97 309.488 130.97 309.488C130.998 309.506 131.02 309.531 131.031 309.56C131.301 309.979 131.501 310.43 131.626 310.898C132.164 312.786 132.586 314.697 132.888 316.624C132.884 316.666 132.884 316.708 132.888 316.749C132.888 316.928 132.95 317.115 132.991 317.311C133.032 317.507 132.991 317.623 133.063 317.784C133.124 318.141 133.175 318.497 133.237 318.872L133.329 319.514C133.504 320.612 133.668 321.771 133.832 323.002C133.996 324.233 134.191 325.678 134.366 327.105C134.366 327.471 134.458 327.837 134.499 328.211C134.499 328.211 134.499 328.211 134.499 328.265C134.561 328.764 134.612 329.264 134.673 329.772C138.305 355.069 140.717 395.994 137.69 400.999Z" fill="#EBEBEB"/>
</g>
</svg>
