<svg width="133" height="55" viewBox="0 0 133 55" fill="none" xmlns="http://www.w3.org/2000/svg">
<path d="M26.68 1.384C26.9281 1.45853 27.1763 1.53306 27.4319 1.60985C30.3438 2.5832 32.8793 4.41346 34.844 6.64C34.844 6.83272 34.844 7.02544 34.844 7.224C35.0512 7.224 35.2585 7.224 35.472 7.224C35.8922 7.98981 36.3106 8.75638 36.728 9.5235C36.8478 9.74144 36.9676 9.95938 37.0911 10.1839C37.2044 10.3928 37.3177 10.6017 37.4345 10.817C37.5397 11.0096 37.645 11.2023 37.7534 11.4008C37.984 11.896 37.984 11.896 37.984 12.48C38.2042 12.4559 38.4244 12.4318 38.6513 12.407C40.1048 12.5245 41.0453 13.245 42.0071 14.232C42.8207 15.5062 42.8498 16.8632 42.694 18.32C42.1393 20.0799 41.1842 21.1341 39.554 22.116C38.6316 22.3715 38.6316 22.3715 37.984 22.408C37.9322 22.7151 37.8804 23.0223 37.827 23.3387C37.4911 24.6136 36.8315 25.678 36.1 26.788C35.9881 26.9597 35.8762 27.1314 35.7609 27.3083C35.4743 27.7306 35.1611 28.137 34.844 28.54C34.6368 28.54 34.4295 28.54 34.216 28.54C34.1379 28.7101 34.0598 28.8803 33.9793 29.0556C33.5328 29.8 33.0412 30.2442 32.3516 30.803C32.1351 30.9822 31.9185 31.1613 31.6954 31.3459C31.076 31.752 31.076 31.752 30.134 31.752C30.134 31.9447 30.134 32.1374 30.134 32.336C23.2087 34.9807 23.2087 34.9807 19.772 34.38C18.9478 33.65 18.9478 33.65 18.516 32.92C19.1048 31.4965 19.1048 31.4965 19.458 31.168C20.1103 31.0821 20.7628 30.9974 21.4162 30.9198C24.3898 30.5576 26.5856 29.9455 29.192 28.54C29.5029 28.4436 29.8137 28.3473 30.134 28.248C30.134 28.0553 30.134 27.8626 30.134 27.664C30.6056 27.3017 31.0779 26.9401 31.5568 26.5861C32.108 26.1294 32.3905 25.6776 32.646 25.036C32.8532 25.036 33.0605 25.036 33.274 25.036C33.3133 24.8824 33.3525 24.7289 33.393 24.5706C34.5361 20.4521 34.5361 20.4521 35.9381 19.5952C36.7869 19.3055 36.7869 19.3055 37.605 19.1116C38.4103 18.9441 38.4103 18.9441 38.926 18.028C39.0307 17.1397 39.0307 17.1397 38.926 16.276C38.3571 15.621 38.3571 15.621 37.5498 15.635C37.1236 15.6451 37.1236 15.6451 36.6888 15.6555C36.403 15.6608 36.1172 15.666 35.8228 15.6715C35.6034 15.6782 35.384 15.685 35.158 15.692C35.1119 15.5185 35.0657 15.345 35.0182 15.1662C34.2606 12.5628 33.1384 10.3058 31.076 8.392C31.076 8.19928 31.076 8.00656 31.076 7.808C30.8688 7.808 30.6615 7.808 30.448 7.808C30.448 7.61528 30.448 7.42256 30.448 7.224C30.1371 7.12463 30.1371 7.12463 29.82 7.02325C29.0216 6.69841 28.4303 6.36413 27.7201 5.91C26.3043 5.05659 24.8792 4.80707 23.226 4.596C23.2819 4.84499 23.2819 4.84499 23.3389 5.09902C23.6061 6.58781 23.6128 7.55588 22.6949 8.82886C21.7568 9.83147 20.573 10.5717 19.144 10.728C17.4743 10.8266 16.4121 10.8792 15.062 9.852C14.9066 9.41838 14.9066 9.41838 14.748 8.976C15.6153 8.16943 16.383 8.22306 17.574 8.1C17.8961 6.8121 17.8996 6.07752 17.26 4.888C17.0669 4.97232 16.8739 5.05663 16.6749 5.1435C16.4212 5.25191 16.1674 5.36031 15.9059 5.472C15.5288 5.63461 15.5288 5.63461 15.1442 5.8005C14.434 6.056 14.434 6.056 13.492 6.056C13.492 6.24872 13.492 6.44144 13.492 6.64C13.1298 6.89111 12.754 7.1254 12.3734 7.35175C9.90264 9.02202 8.62172 11.5479 7.84001 14.232C7.73639 14.5211 7.63277 14.8102 7.52601 15.108C7.52828 16.1647 7.54988 17.2174 7.59347 18.2732C7.62789 19.9522 7.62789 19.9522 7.10146 20.571C6.43681 21.0552 5.83417 21.0995 5.01401 21.24C4.53518 22.1306 4.62602 22.8876 4.70001 23.868C4.9939 24.4577 4.9939 24.4577 5.64201 24.744C6.82232 24.9635 7.89142 25.036 9.09601 25.036C9.997 25.904 10.6433 26.928 10.7053 28.1385C10.221 29.0891 9.52318 29.7939 8.78201 30.584C7.33782 32.9234 7.1407 36.0715 7.69405 38.6744C8.13648 40.174 8.74727 41.3032 9.72401 42.556C9.72401 42.7487 9.72401 42.9414 9.72401 43.14C9.90251 43.2209 10.081 43.3019 10.2649 43.3852C11.2253 43.8402 12.149 44.3499 13.0787 44.8566C15.469 45.9325 17.8888 45.5613 20.3068 44.8201C20.9617 44.6202 21.6135 44.4553 22.284 44.308C22.284 44.1153 22.284 43.9226 22.284 43.724C23.0951 43.2308 23.5176 43.1391 24.5016 43.1765C25.424 43.432 25.424 43.432 26.0324 43.9247C26.5153 44.9021 26.4444 45.3384 26.052 46.352C24.283 48.372 21.5267 49.2376 18.83 49.564C14.2678 49.7756 10.7138 49.0932 7.13351 46.3337C4.26759 43.8153 3.16334 40.5636 3.01226 36.9897C3.06029 34.069 3.83622 31.1118 5.32801 28.54C5.13858 28.4305 4.94915 28.3209 4.75398 28.2081C2.93232 27.1234 1.64034 26.2709 0.833883 24.3425C0.407531 22.252 0.981315 20.9122 2.18801 19.196C2.69826 18.6302 2.69826 18.6302 3.13001 18.32C3.33725 18.32 3.54449 18.32 3.75801 18.32C3.74708 18.1077 3.73615 17.8954 3.72489 17.6767C3.60099 13.3971 4.99439 8.99185 8.15401 5.764C8.36125 5.764 8.56849 5.764 8.78201 5.764C8.78201 5.57128 8.78201 5.37856 8.78201 5.18C13.6641 1.01627 20.3229 -0.543973 26.68 1.384Z" fill="#EF78A4"/>
<path d="M128.475 34.672C128.877 34.8607 129.278 35.0532 129.672 35.256C129.672 35.4487 129.672 35.6415 129.672 35.84C129.879 35.84 130.086 35.84 130.3 35.84C131.778 37.3773 132.442 39.3487 132.498 41.388C132.043 42.6874 132.043 42.6874 131.556 43.14C130.836 43.1657 130.116 43.1713 129.396 43.1685C129.073 43.1679 129.073 43.1679 128.743 43.1673C128.052 43.1657 127.36 43.162 126.669 43.1583C126.202 43.1568 125.734 43.1555 125.267 43.1543C124.119 43.1511 122.97 43.146 121.822 43.14C122.976 44.8581 122.976 44.8581 124.902 45.6973C126.367 45.8007 127.425 45.2949 128.761 44.7802C129.672 44.6 129.672 44.6 130.555 44.9593C131.242 45.476 131.242 45.476 131.536 46.1878C131.559 47.0449 131.414 47.3848 130.928 48.104C128.82 49.467 126.525 49.7241 124.02 49.564C121.942 49.1453 120.402 48.437 118.996 46.936C118.996 46.7433 118.996 46.5506 118.996 46.352C118.789 46.352 118.582 46.352 118.368 46.352C116.944 43.1887 116.702 41.2121 118.032 37.9958C118.368 37.3 118.368 37.3 118.996 36.424C119.203 36.424 119.41 36.424 119.624 36.424C119.624 36.2313 119.624 36.0386 119.624 35.84C120.075 35.6019 120.526 35.3648 120.978 35.1283C121.229 34.9962 121.481 34.864 121.74 34.7279C123.871 33.6841 126.305 33.767 128.475 34.672ZM122.136 39.052C122.032 39.4375 121.929 39.8229 121.822 40.22C123.791 40.22 125.76 40.22 127.788 40.22C127.453 38.9753 127.315 38.6165 126.218 37.884C124.403 37.6697 123.429 37.7404 122.136 39.052Z" fill="#EF78A4"/>
<path d="M82.886 35.256C82.886 35.4487 82.886 35.6415 82.886 35.84C83.0932 35.84 83.3005 35.84 83.514 35.84C83.514 36.0327 83.514 36.2255 83.514 36.424C83.7212 36.424 83.9285 36.424 84.142 36.424C85.2614 38.3166 86.043 40.1148 85.398 42.264C85.1908 42.5531 84.9835 42.8422 84.77 43.14C83.8052 43.2395 83.8052 43.2395 82.5794 43.2256C82.3642 43.2243 82.149 43.2231 81.9273 43.2218C81.2393 43.2169 80.5516 43.2059 79.8637 43.1948C79.3977 43.1904 78.9316 43.1864 78.4655 43.1828C77.3222 43.1731 76.1791 43.158 75.036 43.14C76.184 44.8517 76.184 44.8517 78.0975 45.695C79.3077 45.7816 80.1776 45.5576 81.316 45.184C81.4196 45.0877 81.5232 44.9913 81.63 44.892C83.5793 44.7577 83.5793 44.7577 84.4364 45.2205C84.9426 46.0513 84.9345 46.583 84.77 47.52C83.4556 48.9001 81.5176 49.4405 79.5927 49.6484C77.2153 49.7241 75.2447 49.1076 73.152 48.104C73.152 47.9113 73.152 47.7186 73.152 47.52C72.9448 47.52 72.7375 47.52 72.524 47.52C72.2679 47.1008 72.013 46.6809 71.7586 46.2608C71.5455 45.9101 71.5455 45.9101 71.3281 45.5524C70.2185 43.5937 70.3314 40.9798 70.8215 38.8456C71.6861 36.7587 73.5236 35.2535 75.6247 34.234C78.3616 33.8268 80.4433 33.9997 82.886 35.256ZM75.35 39.052C75.2464 39.4375 75.1428 39.8229 75.036 40.22C77.0048 40.22 78.9736 40.22 81.002 40.22C80.6674 38.9753 80.5291 38.6165 79.432 37.884C77.6167 37.6697 76.6429 37.7404 75.35 39.052Z" fill="#EF78A4"/>
<path d="M43.636 34.38C44.8421 35.0203 45.1258 35.6421 45.5004 36.862C46.0078 38.411 46.6481 39.8279 47.4187 41.2785C47.718 41.972 47.718 41.972 47.718 43.14C48.4093 42.8973 48.4093 42.8973 48.6329 42.2215C48.7769 41.8157 48.7769 41.8157 48.9237 41.4017C49.0308 41.1062 49.1378 40.8107 49.2481 40.5063C49.4136 40.0393 49.4136 40.0393 49.5824 39.563C49.7994 38.9526 50.0181 38.3427 50.2386 37.7334C50.3349 37.4615 50.4312 37.1897 50.5304 36.9096C51.4039 34.8361 51.4039 34.8361 52.3973 34.4245C53.5035 34.3159 54.1158 34.2821 55.1166 34.7815C55.822 35.9793 55.6029 36.8829 55.254 38.176C55.0346 38.6613 54.8003 39.141 54.5548 39.6154C53.4198 41.8811 52.4919 44.2193 51.5467 46.5579C50.6916 48.6253 49.8156 50.7161 48.346 52.484C48.1387 52.484 47.9315 52.484 47.718 52.484C47.718 52.6767 47.718 52.8694 47.718 53.068C46.1905 54.3744 44.5593 54.717 42.5419 54.8645C41.689 54.8164 41.2086 54.6673 40.496 54.236C40.0609 53.4268 40.123 52.7954 40.182 51.9C40.81 51.024 40.81 51.024 41.8329 50.7468C42.2337 50.6757 42.6344 50.6045 43.0472 50.5312C43.4496 50.4578 43.8519 50.3844 44.2664 50.3088C44.5765 50.2557 44.8865 50.2027 45.206 50.148C45.5615 48.572 45.4752 47.6737 44.7706 46.2083C44.5225 45.6826 44.5225 45.6826 44.2695 45.1463C44.0912 44.7817 43.9127 44.417 43.7341 44.0525C43.5613 43.6903 43.389 43.328 43.2171 42.9655C42.605 41.6812 41.9863 40.4 41.3532 39.1245C41.2399 38.8943 41.1266 38.6641 41.0099 38.4269C40.9131 38.2333 40.8162 38.0398 40.7164 37.8403C40.3473 36.9354 40.3333 36.2015 40.496 35.256C41.3929 34.2615 42.2949 34.2241 43.636 34.38Z" fill="#EF78A4"/>
<path d="M98.6841 34.4348C100.35 35.4795 101.501 36.5345 101.895 38.3857C102.042 39.3582 102.081 40.2809 102.082 41.2625C102.082 41.6205 102.083 41.9785 102.083 42.3473C102.082 42.7173 102.08 43.0873 102.079 43.4685C102.081 44.0269 102.081 44.0269 102.083 44.5966C102.083 44.9538 102.082 45.311 102.082 45.679C102.081 46.0043 102.081 46.3296 102.081 46.6647C102.046 47.3933 101.954 47.9944 101.726 48.688C101.519 48.688 101.312 48.688 101.098 48.688C101.098 48.8807 101.098 49.0734 101.098 49.272C99.2275 49.3861 99.2275 49.3861 98.586 49.272C97.5535 48.3046 97.5219 47.5084 97.5054 46.1786C97.4971 45.8056 97.4888 45.4326 97.4802 45.0483C97.4756 44.6555 97.4713 44.2628 97.4674 43.87C97.4575 43.1003 97.4432 42.331 97.4269 41.5614C97.423 41.2202 97.4191 40.879 97.4152 40.5274C97.3332 39.6692 97.2134 39.1779 96.702 38.468C95.7164 38.0098 94.9629 38.0732 93.876 38.176C92.7881 38.9677 92.2281 39.5475 91.992 40.804C91.9742 41.2436 91.9724 41.6839 91.9834 42.1237C91.9873 42.3742 91.9911 42.6247 91.9951 42.8828C92.006 43.4037 92.0183 43.9246 92.0319 44.4455C92.0529 45.9828 91.9472 47.2425 91.364 48.688C90.736 49.272 90.736 49.272 89.6762 49.418C88.538 49.272 88.538 49.272 87.8479 48.5501C87.1418 47.2648 87.1101 46.3278 87.1373 44.9091C87.1375 44.6623 87.1378 44.4155 87.1381 44.1612C87.14 43.6416 87.1449 43.1221 87.1527 42.6026C87.1642 41.8092 87.1656 41.0163 87.1655 40.2229C87.1686 39.7166 87.1722 39.2104 87.1765 38.7041C87.1772 38.468 87.1779 38.232 87.1786 37.9888C87.2009 36.7545 87.3015 35.7988 87.91 34.672C90.1901 34.2407 90.1901 34.2407 91.364 34.9458C91.6749 35.2439 91.6749 35.2439 91.992 35.548C92.1369 35.4426 92.2818 35.3372 92.4311 35.2286C94.4783 33.8742 96.306 33.642 98.6841 34.4348Z" fill="#EF78A4"/>
<path d="M67.1566 34.9434C67.814 35.256 67.814 35.256 68.756 35.84C68.8801 37.109 68.8984 37.6854 68.128 38.76C66.4836 38.9472 65.2727 38.5742 63.7602 38.0596C62.9329 37.8382 62.341 37.9097 61.534 38.176C61.6376 38.5614 61.7413 38.9469 61.848 39.344C62.0646 39.3869 62.2811 39.4298 62.5042 39.474C65.1309 40.057 67.1385 40.9171 68.9326 42.8297C69.495 43.9438 69.5876 44.5481 69.384 45.768C68.6187 47.3821 67.6323 48.4475 65.93 49.272C63.2942 50.0669 60.3728 49.5632 57.923 48.5055C57.664 48.373 57.4049 48.2405 57.138 48.104C57.138 47.9113 57.138 47.7185 57.138 47.52C56.9308 47.52 56.7235 47.52 56.51 47.52C56.3941 45.9387 56.3941 45.9387 56.981 45.0745C57.1364 44.9179 57.2919 44.7613 57.452 44.6C58.6754 44.7161 59.6366 44.8865 60.7686 45.3482C61.8767 45.7791 62.5478 45.8931 63.732 45.768C64.0429 45.5753 64.3537 45.3825 64.674 45.184C64.674 44.9913 64.674 44.7985 64.674 44.6C64.4538 44.5258 64.2336 44.4517 64.0068 44.3753C63.3871 44.1662 62.7682 43.9555 62.1498 43.7434C61.5992 43.559 61.0456 43.3818 60.4865 43.221C58.807 42.7213 58.1096 42.1182 57.138 40.804C56.588 39.2694 56.6207 38.0332 57.295 36.57C57.4504 36.3291 57.6059 36.0882 57.766 35.84C57.9733 35.84 58.1805 35.84 58.394 35.84C58.394 35.6473 58.394 35.4545 58.394 35.256C61.4114 33.704 64.0063 33.6594 67.1566 34.9434Z" fill="#EF78A4"/>
<path d="M114.6 35.256C115.405 35.873 115.526 36.0105 115.66 37.008C115.542 37.884 115.542 37.884 115.189 38.4315C114.299 38.9279 113.748 38.8667 112.716 38.76C111.99 38.542 111.275 38.3009 110.557 38.0596C109.725 37.8405 109.132 37.9081 108.32 38.176C108.325 38.7502 108.325 38.7502 108.634 39.344C109.513 39.7143 109.513 39.7143 110.577 39.9462C112.022 40.3041 113.28 40.7303 114.6 41.388C114.6 41.5807 114.6 41.7734 114.6 41.972C114.807 41.972 115.014 41.972 115.228 41.972C116.04 43.5688 116.34 44.6022 115.808 46.32C115.281 47.5393 114.614 48.3821 113.34 48.9891C110.38 50.0269 107.814 49.6127 104.925 48.5602C103.924 48.104 103.924 48.104 103.296 47.228C103.438 45.3438 103.438 45.3438 104.238 44.6C105.503 44.432 106.283 44.634 107.378 45.184C108.477 45.735 109.25 45.9326 110.518 45.768C110.829 45.5753 111.14 45.3825 111.46 45.184C111.46 44.9913 111.46 44.7985 111.46 44.6C110.478 43.9914 109.793 43.819 108.654 43.578C107.512 43.336 106.519 43.0886 105.494 42.556C105.494 42.3633 105.494 42.1705 105.494 41.972C105.3 41.9057 105.105 41.8395 104.905 41.7712C104.007 41.2551 103.88 40.8711 103.61 39.928C103.46 38.3913 103.684 37.4468 104.552 36.132C105.043 35.5845 105.043 35.5845 105.494 35.256C105.701 35.256 105.909 35.256 106.122 35.256C106.122 35.0633 106.122 34.8705 106.122 34.672C108.968 33.5276 111.934 33.8729 114.6 35.256Z" fill="#EF78A4"/>
<path d="M38.926 34.964C39.3654 35.7812 39.3193 36.3963 39.24 37.3C38.7078 37.9879 38.3768 38.1584 37.4836 38.3585C36.8752 38.4315 36.2668 38.5045 35.6584 38.5775C34.7299 38.7856 34.4706 38.9356 33.902 39.636C33.7586 40.3928 33.7586 40.3928 33.7744 41.2466C33.7676 41.5639 33.7607 41.8812 33.7536 42.2081C33.7508 42.5397 33.7479 42.8713 33.745 43.213C33.7036 47.9965 33.7036 47.9965 32.332 49.272C30.3558 49.4422 30.3558 49.4422 29.6011 48.8632C28.9625 47.6781 29.0451 46.5184 29.0448 45.2102C29.0424 44.9288 29.04 44.6474 29.0376 44.3574C29.0342 43.7632 29.0333 43.169 29.0347 42.5748C29.035 41.6639 29.0219 40.7538 29.008 39.843C29.0064 39.2657 29.0055 38.6883 29.0056 38.111C29.0004 37.8381 28.9953 37.5653 28.99 37.2842C28.9981 36.5781 29.02 35.9437 29.192 35.256C30.1656 34.4257 30.5752 34.374 31.9002 34.4165C32.911 34.6602 33.2955 34.785 33.902 35.548C34.0186 35.4155 34.1351 35.283 34.2552 35.1465C35.9272 33.799 37.1401 34.0522 38.926 34.964Z" fill="#EF78A4"/>
<path d="M27.3607 21.8799C28.4288 22.6314 28.9891 23.2396 29.192 24.4885C29.192 26.1243 29.192 26.1243 28.878 26.788C27.9311 27.2283 27.0635 27.0497 26.0127 27.007C24.1615 26.961 23.004 27.1776 21.5223 28.2297C21.028 28.54 21.028 28.54 20.1449 28.5582C19.3008 28.177 19.0109 27.8174 18.516 27.08C18.2007 25.621 18.2918 24.267 19.1832 23.0102C21.262 20.6894 24.6142 20.4762 27.3607 21.8799Z" fill="#EF78A4"/>
<path d="M13.492 21.824C14.638 22.2874 15.1711 22.8003 15.7624 23.8474C16.1957 24.9316 16.2709 25.9502 16.004 27.08C15.3564 27.8465 15.3564 27.8465 14.434 28.248C13.2958 28.248 13.2958 28.248 12.236 27.956C11.5934 27.3393 11.3173 26.9648 11.2045 26.107C11.3902 24.1826 11.9659 23.1347 13.492 21.824Z" fill="#59BCEF"/>
<path d="M18.4179 17.3528C19.144 17.444 19.144 17.444 19.458 17.736C19.4108 18.8979 19.3318 19.5726 18.516 20.4735C16.894 21.2906 15.4058 21.401 13.6294 20.9663C13.3768 20.8639 13.1242 20.7615 12.864 20.656C12.7442 20.0745 12.64 19.4901 12.55 18.904C12.6536 18.8077 12.7572 18.7113 12.864 18.612C13.4203 18.6214 13.9764 18.6415 14.5321 18.6668C15.9297 18.7204 15.9297 18.7204 17.0637 18.028C17.574 17.444 17.574 17.444 18.4179 17.3528Z" fill="#EF88AD"/>
<path d="M30.0359 15.5095C30.2755 15.5697 30.5151 15.6299 30.762 15.692C30.8797 16.3307 30.8797 16.3307 30.762 17.152C29.8698 18.1891 29.3711 18.5528 27.947 18.7238C25.3562 18.7646 25.3562 18.7646 24.168 18.028C24.1091 17.1155 24.1091 17.1155 24.168 16.276C25.3388 15.956 26.3749 15.9833 27.584 16.0307C28.6385 15.9567 28.9287 15.3658 30.0359 15.5095Z" fill="#EF88AD"/>
<path d="M13.492 21.824C14.6893 22.1819 15.1845 22.8719 15.7685 23.8817C16.1312 24.7599 16.0852 25.5707 16.004 26.496C15.5895 26.5923 15.175 26.6887 14.748 26.788C14.748 26.0171 14.748 25.2462 14.748 24.452C14.2299 24.452 13.7118 24.452 13.178 24.452C13.0744 24.6447 12.9708 24.8374 12.864 25.036C12.5531 25.036 12.2423 25.036 11.922 25.036C11.922 25.2287 11.922 25.4214 11.922 25.62C11.7148 25.62 11.5075 25.62 11.294 25.62C11.6869 23.9592 12.2489 23.0713 13.492 21.824Z" fill="#46B7F1"/>
<path d="M17.574 17.444C18.4375 17.371 18.4375 17.371 19.144 17.444C19.144 17.9258 19.144 18.4076 19.144 18.904C17.7451 19.0486 17.7451 19.0486 16.318 19.196C16.318 19.3888 16.318 19.5815 16.318 19.78C15.9035 19.78 15.489 19.78 15.062 19.78C15.062 19.9728 15.062 20.1655 15.062 20.364C13.6321 20.4718 13.6321 20.4718 12.9229 19.926C12.7998 19.7815 12.6768 19.637 12.55 19.488C12.6536 19.199 12.7572 18.9099 12.864 18.612C13.2161 18.6324 13.2161 18.6324 13.5754 18.6531C15.4663 18.7946 15.4663 18.7946 17.0637 18.028C17.2321 17.8353 17.4005 17.6426 17.574 17.444Z" fill="#EF78A4"/>
<path d="M25.424 43.432C26.0324 43.9248 26.0324 43.9248 26.366 44.6C26.366 45.476 26.366 45.476 26.052 46.352C25.2474 47.0455 25.2474 47.0455 24.482 47.52C24.3784 47.3273 24.2748 47.1346 24.168 46.936C24.2716 46.7433 24.3752 46.5506 24.482 46.352C24.2748 46.2557 24.0675 46.1593 23.854 46.06C24.482 45.184 24.482 45.184 25.424 44.892C24.733 44.2495 24.4659 44.1933 23.54 44.016C23.1213 43.9187 22.7027 43.8213 22.284 43.724C23.4036 43.0432 24.1552 43.0806 25.424 43.432Z" fill="#EF88AD"/>
<path d="M13.178 23.868C13.9434 24.0505 13.9434 24.0505 14.748 24.452C15.2107 25.9273 15.2107 25.9273 14.748 26.788C14.12 26.496 14.12 26.496 13.492 25.62C12.7667 25.8127 12.0413 26.0054 11.294 26.204C11.294 26.0113 11.294 25.8185 11.294 25.62C11.5012 25.62 11.7085 25.62 11.922 25.62C11.922 25.4273 11.922 25.2345 11.922 25.036C12.2329 25.036 12.5437 25.036 12.864 25.036C12.9676 24.6505 13.0712 24.2651 13.178 23.868Z" fill="#48B7FA"/>
<path d="M117.426 40.22C117.53 40.22 117.633 40.22 117.74 40.22C117.752 40.4349 117.763 40.6498 117.776 40.8713C117.892 42.483 118.041 43.5189 118.996 44.892C118.898 45.7132 118.898 45.7132 118.682 46.352C117.21 44.7965 117.041 43.0329 117.059 41.0435C117.112 40.512 117.112 40.512 117.426 40.22Z" fill="#EF78A4"/>
<path d="M8.78199 5.17999C8.98923 5.46907 9.19647 5.75815 9.40999 6.05599C8.54649 7.18749 8.54649 7.18749 7.83999 7.51599C7.73216 7.90458 7.62767 8.29397 7.52599 8.68399C7.31875 8.87671 7.11151 9.06943 6.89799 9.26799C6.58713 9.17163 6.27627 9.07527 5.95599 8.97599C6.2044 8.60481 6.45302 8.23375 6.70174 7.86274C6.84017 7.6561 6.9786 7.44945 7.12123 7.23654C7.45751 6.74093 7.80444 6.25159 8.15399 5.76399C8.36123 5.76399 8.56847 5.76399 8.78199 5.76399C8.78199 5.57127 8.78199 5.37855 8.78199 5.17999Z" fill="#EF88AD"/>
<path d="M76.606 34.088C80.2238 33.9802 80.2238 33.9802 81.944 34.672C81.6331 34.8647 81.3223 35.0574 81.002 35.256C81.1056 35.4487 81.2092 35.6414 81.316 35.84C80.9015 35.7436 80.487 35.6473 80.06 35.548C80.06 35.2589 80.06 34.9698 80.06 34.672C78.8166 34.672 77.5731 34.672 76.292 34.672C76.3956 34.4793 76.4992 34.2866 76.606 34.088Z" fill="#EF88AD"/>
<path d="M22.912 4.59601C23.614 5.57516 23.5943 5.73698 23.4223 6.84076C23.3874 7.07676 23.3526 7.31277 23.3168 7.55593C23.2868 7.73548 23.2569 7.91502 23.226 8.10001C22.1508 7.22877 22.1026 6.48676 21.97 5.18001C22.2809 5.18001 22.5917 5.18001 22.912 5.18001C22.912 4.98729 22.912 4.79457 22.912 4.59601Z" fill="#EF88AD"/>
<path d="M58.2959 44.527C58.5355 44.5511 58.7751 44.5752 59.022 44.6C59.022 44.7927 59.022 44.9854 59.022 45.184C58.6334 45.3647 58.6334 45.3647 58.237 45.549C57.978 45.7176 57.7189 45.8862 57.452 46.06C57.3209 46.9729 57.3209 46.9729 57.452 47.812C57.1411 47.7156 56.8303 47.6193 56.51 47.52C56.4404 46.5701 56.4202 45.935 56.8829 45.0745C57.452 44.6 57.452 44.6 58.2959 44.527Z" fill="#EF78A4"/>
<path d="M96.1132 34.0697C96.399 34.0724 96.6848 34.075 96.9792 34.0777C97.1986 34.0811 97.418 34.0845 97.644 34.088C97.7476 34.2807 97.8512 34.4734 97.958 34.672C97.5039 34.7302 97.5039 34.7302 97.0405 34.7895C96.4455 34.8668 96.4455 34.8668 95.8385 34.9457C95.4451 34.9966 95.0516 35.0474 94.6463 35.0997C93.8447 35.2153 93.0852 35.3449 92.306 35.548C93.6887 34.4991 94.328 34.0485 96.1132 34.0697Z" fill="#EF78A4"/>
<path d="M14.7872 19.0318C15.073 19.0615 15.3588 19.0913 15.6532 19.1219C15.8726 19.1464 16.092 19.1708 16.318 19.196C16.318 19.3888 16.318 19.5815 16.318 19.78C15.9035 19.78 15.489 19.78 15.062 19.78C15.062 19.9728 15.062 20.1655 15.062 20.364C14.3359 20.437 14.3359 20.437 13.492 20.364C12.9229 19.78 12.9229 19.78 12.55 19.196C13.3737 18.8131 13.8783 18.9343 14.7872 19.0318Z" fill="#EF78A4"/>
<path d="M12.864 22.408C13.2121 23.379 13.1292 24.0496 12.864 25.036C12.5531 25.036 12.2423 25.036 11.922 25.036C11.922 25.2287 11.922 25.4215 11.922 25.62C11.7148 25.62 11.5075 25.62 11.294 25.62C11.6322 24.362 11.9344 23.3904 12.864 22.408Z" fill="#70C3EF"/>
<path d="M13.492 21.824C14.5002 22.1253 14.9362 22.5795 15.4741 23.3935C16.004 24.452 16.004 24.452 15.9255 25.1637C15.8478 25.3143 15.7701 25.4648 15.69 25.62C15.69 25.4273 15.69 25.2345 15.69 25.036C15.4828 25.036 15.2755 25.036 15.062 25.036C14.9843 24.8252 14.9066 24.6144 14.8265 24.3972C14.3995 23.5038 13.8596 22.8555 13.178 22.116C13.2816 22.0196 13.3852 21.9233 13.492 21.824Z" fill="#75C0E4"/>
<path d="M42.38 34.38C42.38 34.5727 42.38 34.7654 42.38 34.964C42.0691 34.964 41.7583 34.964 41.438 34.964C41.438 35.1567 41.438 35.3494 41.438 35.548C41.6452 35.548 41.8525 35.548 42.066 35.548C42.066 35.7407 42.066 35.9334 42.066 36.132C41.6515 36.132 41.237 36.132 40.81 36.132C41.0172 36.5174 41.2245 36.9029 41.438 37.3C41.1271 37.3 40.8163 37.3 40.496 37.3C40.4175 36.3328 40.4175 36.3328 40.496 35.256C41.1363 34.6407 41.4524 34.38 42.38 34.38Z" fill="#EF88AD"/>
<path d="M30.448 15.692C30.5516 15.692 30.6552 15.692 30.762 15.692C30.8798 16.3308 30.8798 16.3308 30.762 17.152C30.1881 17.7942 29.6426 18.138 28.878 18.612C28.5671 18.5157 28.2563 18.4193 27.936 18.32C28.1432 18.32 28.3505 18.32 28.564 18.32C28.6676 17.9346 28.7712 17.5491 28.878 17.152C29.2925 17.0557 29.707 16.9593 30.134 16.86C30.2376 16.4746 30.3412 16.0891 30.448 15.692Z" fill="#EF88AD"/>
<path d="M113.344 34.964C114.259 35.2776 114.844 35.4832 115.542 36.132C115.62 37.008 115.62 37.008 115.542 37.884C115.335 38.0767 115.128 38.2694 114.914 38.468C114.933 38.191 114.953 37.9139 114.973 37.6285C114.944 37.1768 114.944 37.1768 114.914 36.716C114.603 36.5233 114.292 36.3305 113.972 36.132C113.972 35.9393 113.972 35.7465 113.972 35.548C113.765 35.548 113.558 35.548 113.344 35.548C113.344 35.3553 113.344 35.1625 113.344 34.964Z" fill="#EF88AD"/>
<path d="M19.144 17.736C19.2476 17.736 19.3512 17.736 19.458 17.736C19.3795 18.7215 19.3795 18.7215 19.144 19.78C18.4964 20.1997 18.4964 20.1997 17.888 20.364C17.6808 20.1712 17.4735 19.9785 17.26 19.78C17.6721 19.342 17.6721 19.342 18.202 18.904C18.5129 18.904 18.8237 18.904 19.144 18.904C19.144 18.5185 19.144 18.1331 19.144 17.736Z" fill="#EF88AD"/>
<path d="M21.97 8.39197C22.0736 8.68105 22.1773 8.97013 22.284 9.26797C20.5836 10.4539 20.5836 10.4539 19.6543 10.363C19.4859 10.2907 19.3175 10.2184 19.144 10.144C19.3513 10.144 19.5585 10.144 19.772 10.144C19.8756 9.75853 19.9793 9.37309 20.086 8.97597C20.6041 9.07233 21.1222 9.16869 21.656 9.26797C21.7596 8.97889 21.8633 8.68981 21.97 8.39197Z" fill="#EF78A4"/>
<path d="M13.492 4.888C14.2181 4.94275 14.2181 4.94275 14.748 5.18C14.6444 5.46908 14.5408 5.75816 14.434 6.056C14.1231 6.056 13.8123 6.056 13.492 6.056C13.492 6.24872 13.492 6.44144 13.492 6.64C12.9739 6.54364 12.4558 6.44728 11.922 6.348C12.6285 5.59975 12.6285 5.59975 13.492 4.888Z" fill="#EF88AD"/>
<path d="M71.582 45.768C72.2037 45.9607 72.8254 46.1534 73.466 46.352C73.5696 46.9302 73.6732 47.5083 73.78 48.104C73.5728 48.104 73.3655 48.104 73.152 48.104C73.152 47.9113 73.152 47.7186 73.152 47.52C72.9448 47.52 72.7375 47.52 72.524 47.52C72.2131 46.9418 71.9023 46.3637 71.582 45.768Z" fill="#EF88AD"/>
<path d="M41.124 37.884C41.3312 37.884 41.5385 37.884 41.752 37.884C41.8556 38.1731 41.9592 38.4621 42.066 38.76C42.2732 38.9527 42.4805 39.1454 42.694 39.344C42.5904 39.5367 42.4868 39.7294 42.38 39.928C42.5872 39.928 42.7945 39.928 43.008 39.928C42.9044 40.4098 42.8008 40.8916 42.694 41.388C41.124 39.198 41.124 39.198 41.124 37.884Z" fill="#EF88AD"/>
<path d="M38.612 34.672C37.4345 35.548 37.4345 35.548 36.728 35.548C36.728 35.3553 36.728 35.1625 36.728 34.964C36.1063 34.964 35.4846 34.964 34.844 34.964C36.365 34.021 36.9437 34.0859 38.612 34.672Z" fill="#EF88AD"/>
<path d="M30.134 31.752C30.134 31.9447 30.134 32.1375 30.134 32.336C29.6767 32.532 29.2187 32.7264 28.7602 32.92C28.3777 33.0826 28.3777 33.0826 27.9875 33.2485C27.308 33.504 27.308 33.504 26.68 33.504C26.68 33.3113 26.68 33.1186 26.68 32.92C27.0778 32.7232 27.4771 32.529 27.8771 32.336C28.0993 32.2276 28.3216 32.1192 28.5505 32.0075C29.192 31.752 29.192 31.752 30.134 31.752Z" fill="#EF88AD"/>
<path d="M39.24 16.568C39.3436 16.568 39.4472 16.568 39.554 16.568C39.9749 18.4182 39.9749 18.4182 39.4755 19.3237C38.926 19.78 38.926 19.78 37.984 19.78C38.0747 19.6294 38.1653 19.4789 38.2588 19.3237C38.7024 18.4299 38.9652 17.5172 39.24 16.568Z" fill="#EF88AD"/>
<path d="M82.886 44.892C83.7863 45.0595 84.0985 45.1436 84.77 45.768C84.8092 46.6805 84.8092 46.6805 84.77 47.52C84.4591 47.52 84.1483 47.52 83.828 47.52C83.9316 46.9419 84.0352 46.3637 84.142 45.768C83.9347 45.768 83.7275 45.768 83.514 45.768C83.514 45.5753 83.514 45.3826 83.514 45.184C83.3067 45.0877 83.0995 44.9913 82.886 44.892Z" fill="#EF78A4"/>
<path d="M25.424 43.432C25.424 43.7211 25.424 44.0102 25.424 44.308C24.3636 44.1511 23.3212 43.9837 22.284 43.724C23.4075 43.0409 24.1436 43.1614 25.424 43.432Z" fill="#EF88AD"/>
<path d="M110.204 40.22C111.735 40.1183 112.644 40.3903 113.972 41.096C113.661 41.2887 113.35 41.4815 113.03 41.68C112.32 41.4815 112.32 41.4815 111.558 41.1325C111.304 41.0188 111.051 40.9052 110.789 40.788C110.596 40.697 110.403 40.6059 110.204 40.512C110.204 40.4157 110.204 40.3193 110.204 40.22Z" fill="#EF78A4"/>
<path d="M38.298 35.548C38.6088 35.548 38.9197 35.548 39.24 35.548C39.2792 37.227 39.2792 37.227 38.926 37.884C38.7187 37.884 38.5115 37.884 38.298 37.884C38.0469 36.9242 37.9537 36.5086 38.298 35.548Z" fill="#EF88AD"/>
<path d="M39.554 12.772C40.9376 13.1651 41.5733 13.7045 42.38 14.816C42.38 15.0087 42.38 15.2014 42.38 15.4C42.1728 15.4 41.9655 15.4 41.752 15.4C40.81 14.3892 40.81 14.3892 40.81 13.648C40.3955 13.5516 39.9811 13.4553 39.554 13.356C39.554 13.1633 39.554 12.9705 39.554 12.772Z" fill="#EF78A4"/>
<path d="M65.302 40.512C67.6794 41.388 67.6794 41.388 68.442 42.264C68.3384 42.4567 68.2348 42.6495 68.128 42.848C68.0114 42.7216 67.8949 42.5951 67.7748 42.4648C67.025 41.8373 66.212 41.4909 65.302 41.096C65.302 40.9033 65.302 40.7106 65.302 40.512Z" fill="#EF88AD"/>
<path d="M95.76 37.008C96.2781 37.1044 96.7962 37.2007 97.33 37.3C97.0191 37.7336 97.0191 37.7336 96.702 38.176C95.9538 38.2615 95.9538 38.2615 95.0927 38.2307C94.807 38.2228 94.5212 38.2149 94.2268 38.2068C94.0074 38.1966 93.788 38.1865 93.562 38.176C93.4584 37.9833 93.3547 37.7906 93.248 37.592C94.0769 37.592 94.9059 37.592 95.76 37.592C95.76 37.3993 95.76 37.2066 95.76 37.008Z" fill="#EF88AD"/>
<path d="M54.312 34.38C53.1345 34.964 53.1345 34.964 52.428 34.964C52.2208 35.3494 52.0135 35.7349 51.8 36.132C51.5928 36.132 51.3855 36.132 51.172 36.132C51.4271 35.4202 51.4271 35.4202 51.8 34.672C52.7195 34.387 53.3562 34.356 54.312 34.38Z" fill="#EF88AD"/>
<path d="M12.55 19.488C12.8608 19.5844 13.1717 19.6808 13.492 19.78C13.492 19.9728 13.492 20.1655 13.492 20.364C14.0101 20.364 14.5282 20.364 15.062 20.364C15.062 20.1713 15.062 19.9786 15.062 19.78C15.2692 19.78 15.4765 19.78 15.69 19.78C15.69 20.0691 15.69 20.3582 15.69 20.656C14.7574 20.656 13.8248 20.656 12.864 20.656C12.7604 20.2706 12.6567 19.8852 12.55 19.488Z" fill="#EF88AD"/>
<path d="M14.748 8.97601C15.2661 8.97601 15.7842 8.97601 16.318 8.97601C16.4216 9.45781 16.5252 9.93961 16.632 10.436C16.0432 10.363 16.0432 10.363 15.376 10.144C14.9835 9.54176 14.9835 9.54176 14.748 8.97601Z" fill="#EF88AD"/>
<path d="M61.848 43.14C62.677 43.2364 63.5059 43.3327 64.36 43.432C64.4636 43.7211 64.5672 44.0102 64.674 44.308C63.2751 44.0189 63.2751 44.0189 61.848 43.724C61.848 43.5313 61.848 43.3386 61.848 43.14Z" fill="#EF88AD"/>
<path d="M15.376 26.204C15.5832 26.3003 15.7905 26.3967 16.004 26.496C15.7968 26.8814 15.5895 27.2669 15.376 27.664C14.9615 27.664 14.547 27.664 14.12 27.664C14.12 27.3749 14.12 27.0858 14.12 26.788C14.5345 26.788 14.949 26.788 15.376 26.788C15.376 26.5953 15.376 26.4025 15.376 26.204Z" fill="#68C1ED"/>
<path d="M8.468 10.728C8.67524 10.8244 8.88248 10.9207 9.096 11.02C8.94705 11.279 8.79809 11.538 8.64463 11.8048C8.21763 12.6466 7.98425 13.3199 7.84 14.232C7.73638 14.232 7.63276 14.232 7.526 14.232C7.526 13.4611 7.526 12.6903 7.526 11.896C7.73324 11.896 7.94048 11.896 8.154 11.896C8.25762 11.5106 8.36124 11.1251 8.468 10.728Z" fill="#EF78A4"/>
<path d="M49.916 46.644C50.3305 46.644 50.7449 46.644 51.172 46.644C50.9647 47.3185 50.7575 47.993 50.544 48.688C50.5051 48.5013 50.4663 48.3146 50.4262 48.1222C50.3291 47.8241 50.3291 47.8241 50.23 47.52C50.0227 47.4236 49.8155 47.3273 49.602 47.228C49.7056 47.0353 49.8092 46.8425 49.916 46.644Z" fill="#EF88AD"/>
<path d="M37.5915 37.3913C37.9412 37.4907 37.9412 37.4907 38.298 37.592C38.298 37.7848 38.298 37.9775 38.298 38.176C37.3654 38.176 36.4328 38.176 35.472 38.176C36.2428 37.5123 36.52 37.2781 37.5915 37.3913Z" fill="#EF78A4"/>
<path d="M12.864 24.452C12.9676 24.452 13.0712 24.452 13.178 24.452C13.178 24.9338 13.178 25.4156 13.178 25.912C12.5563 26.0084 11.9346 26.1047 11.294 26.204C11.294 26.0113 11.294 25.8186 11.294 25.62C11.5012 25.62 11.7085 25.62 11.922 25.62C11.922 25.4273 11.922 25.2346 11.922 25.036C12.2329 25.036 12.5437 25.036 12.864 25.036C12.864 24.8433 12.864 24.6506 12.864 24.452Z" fill="#41B4E7"/>
<path d="M35.786 19.78C36.4532 20.0538 36.4532 20.0538 37.042 20.364C36.7311 20.4604 36.4203 20.5567 36.1 20.656C35.9964 20.8487 35.8928 21.0415 35.786 21.24C35.4751 21.24 35.1643 21.24 34.844 21.24C34.9617 20.6743 34.9617 20.6743 35.158 20.072C35.3652 19.9757 35.5725 19.8793 35.786 19.78Z" fill="#EF88AD"/>
</svg>
