<svg width="132" height="55" viewBox="0 0 132 55" fill="none" xmlns="http://www.w3.org/2000/svg">
<path d="M25.9862 0.818938C26.2343 0.893466 26.4825 0.967995 26.7381 1.04478C29.6501 2.01814 32.1855 3.84839 34.1502 6.07494C34.1502 6.26766 34.1502 6.46038 34.1502 6.65894C34.3575 6.65894 34.5647 6.65894 34.7782 6.65894C35.1984 7.42474 35.6168 8.19131 36.0342 8.95844C36.154 9.17638 36.2738 9.39431 36.3973 9.61886C36.5106 9.82776 36.624 10.0367 36.7407 10.2519C36.846 10.4446 36.9512 10.6373 37.0596 10.8358C37.2902 11.3309 37.2902 11.3309 37.2902 11.9149C37.5104 11.8908 37.7306 11.8668 37.9575 11.8419C39.411 11.9595 40.3515 12.6799 41.3133 13.6669C42.1269 14.9411 42.156 16.2982 42.0002 17.7549C41.4455 19.5148 40.4904 20.569 38.8602 21.5509C37.9378 21.8064 37.9378 21.8064 37.2902 21.8429C37.2384 22.1501 37.1866 22.4572 37.1332 22.7737C36.7973 24.0486 36.1377 25.1129 35.4062 26.2229C35.2943 26.3946 35.1824 26.5664 35.0671 26.7433C34.7805 27.1655 34.4673 27.572 34.1502 27.9749C33.943 27.9749 33.7357 27.9749 33.5222 27.9749C33.4441 28.1451 33.366 28.3152 33.2855 28.4905C32.839 29.2349 32.3474 29.6791 31.6578 30.2379C31.4413 30.4171 31.2247 30.5963 31.0016 30.7809C30.3822 31.1869 30.3822 31.1869 29.4402 31.1869C29.4402 31.3797 29.4402 31.5724 29.4402 31.7709C22.5149 34.4156 22.5149 34.4156 19.0782 33.8149C18.254 33.0849 18.254 33.0849 17.8222 32.3549C18.411 30.9314 18.411 30.9314 18.7642 30.6029C19.4165 30.517 20.069 30.4323 20.7224 30.3547C23.696 29.9925 25.8918 29.3804 28.4982 27.9749C28.8091 27.8786 29.1199 27.7822 29.4402 27.6829C29.4402 27.4902 29.4402 27.2975 29.4402 27.0989C29.9118 26.7366 30.3841 26.375 30.863 26.021C31.4142 25.5644 31.6967 25.1126 31.9522 24.4709C32.1595 24.4709 32.3667 24.4709 32.5802 24.4709C32.6195 24.3174 32.6587 24.1638 32.6992 24.0056C33.8424 19.887 33.8424 19.887 35.2443 19.0302C36.0931 18.7404 36.0931 18.7404 36.9112 18.5465C37.7165 18.379 37.7165 18.379 38.2322 17.4629C38.3369 16.5747 38.3369 16.5747 38.2322 15.7109C37.6633 15.0559 37.6633 15.0559 36.856 15.0699C36.4298 15.0801 36.4298 15.0801 35.995 15.0904C35.7092 15.0957 35.4234 15.101 35.129 15.1064C34.9096 15.1132 34.6903 15.12 34.4642 15.1269C34.4181 14.9534 34.3719 14.7799 34.3244 14.6011C33.5668 11.9977 32.4446 9.74071 30.3822 7.82694C30.3822 7.63422 30.3822 7.4415 30.3822 7.24294C30.175 7.24294 29.9677 7.24294 29.7542 7.24294C29.7542 7.05022 29.7542 6.8575 29.7542 6.65894C29.4434 6.55957 29.4434 6.55957 29.1262 6.45819C28.3278 6.13335 27.7365 5.79907 27.0263 5.34494C25.6105 4.49153 24.1854 4.24201 22.5322 4.03094C22.5881 4.27993 22.5881 4.27993 22.6451 4.53395C22.9123 6.02275 22.919 6.99082 22.0011 8.2638C21.063 9.26641 19.8792 10.0066 18.4502 10.1629C16.7806 10.2615 15.7183 10.3141 14.3682 9.28694C14.2128 8.85332 14.2128 8.85332 14.0542 8.41094C14.9216 7.60437 15.6892 7.658 16.8802 7.53494C17.2023 6.24704 17.2058 5.51246 16.5662 4.32294C16.3731 4.40725 16.1801 4.49157 15.9812 4.57844C15.7274 4.68684 15.4736 4.79525 15.2121 4.90694C14.8351 5.06955 14.8351 5.06955 14.4504 5.23544C13.7402 5.49094 13.7402 5.49094 12.7982 5.49094C12.7982 5.68366 12.7982 5.87638 12.7982 6.07494C12.436 6.32604 12.0602 6.56034 11.6796 6.78669C9.20885 8.45696 7.92794 10.9828 7.14622 13.6669C7.0426 13.956 6.93898 14.2451 6.83222 14.5429C6.83449 15.5996 6.85609 16.6524 6.89968 17.7082C6.9341 19.3872 6.9341 19.3872 6.40768 20.006C5.74302 20.4902 5.14038 20.5344 4.32022 20.6749C3.8414 21.5655 3.93223 22.3225 4.00622 23.3029C4.30012 23.8926 4.30012 23.8926 4.94822 24.1789C6.12853 24.3985 7.19764 24.4709 8.40222 24.4709C9.30322 25.339 9.94948 26.3629 10.0115 27.5734C9.52724 28.5241 8.82939 29.2288 8.08822 30.0189C6.64404 32.3584 6.44691 35.5064 7.00026 38.1094C7.44269 39.609 8.05349 40.7381 9.03022 41.9909C9.03022 42.1837 9.03022 42.3764 9.03022 42.5749C9.20872 42.6559 9.38723 42.7368 9.57114 42.8202C10.5315 43.2751 11.4552 43.7849 12.3849 44.2916C14.7753 45.3674 17.195 44.9962 19.613 44.2551C20.2679 44.0552 20.9197 43.8902 21.5902 43.7429C21.5902 43.5502 21.5902 43.3575 21.5902 43.1589C22.4013 42.6658 22.8238 42.5741 23.8078 42.6114C24.7302 42.8669 24.7302 42.8669 25.3386 43.3597C25.8215 44.3371 25.7506 44.7733 25.3582 45.7869C23.5893 47.807 20.8329 48.6725 18.1362 48.9989C13.5741 49.2106 10.02 48.5282 6.43972 45.7687C3.5738 43.2502 2.46955 39.9986 2.31847 36.4247C2.36651 33.504 3.14244 30.5467 4.63422 27.9749C4.44479 27.8654 4.25536 27.7559 4.06019 27.643C2.23854 26.5583 0.946552 25.7059 0.140096 23.7774C-0.286256 21.6869 0.287529 20.3472 1.49422 18.6309C2.00447 18.0652 2.00447 18.0652 2.43622 17.7549C2.64346 17.7549 2.8507 17.7549 3.06422 17.7549C3.05329 17.5426 3.04236 17.3303 3.0311 17.1116C2.9072 12.832 4.3006 8.42678 7.46022 5.19894C7.66746 5.19894 7.8747 5.19894 8.08822 5.19894C8.08822 5.00622 8.08822 4.8135 8.08822 4.61494C12.9703 0.45121 19.6291 -1.10904 25.9862 0.818938Z" fill="white"/>
<path d="M127.781 34.107C128.183 34.2957 128.584 34.4882 128.978 34.691C128.978 34.8837 128.978 35.0764 128.978 35.275C129.185 35.275 129.393 35.275 129.606 35.275C131.084 36.8123 131.748 38.7837 131.804 40.823C131.349 42.1223 131.349 42.1223 130.862 42.575C130.143 42.6006 129.422 42.6062 128.702 42.6035C128.379 42.6029 128.379 42.6029 128.049 42.6022C127.358 42.6006 126.667 42.5969 125.976 42.5932C125.508 42.5918 125.041 42.5904 124.573 42.5892C123.425 42.586 122.276 42.581 121.128 42.575C122.282 44.293 122.282 44.293 124.208 45.1322C125.673 45.2357 126.732 44.7298 128.067 44.2152C128.978 44.035 128.978 44.035 129.861 44.3943C130.548 44.911 130.548 44.911 130.843 45.6227C130.865 46.4798 130.72 46.8197 130.234 47.539C128.127 48.9019 125.831 49.1591 123.326 48.999C121.248 48.5802 119.708 47.872 118.302 46.371C118.302 46.1782 118.302 45.9855 118.302 45.787C118.095 45.787 117.888 45.787 117.674 45.787C116.25 42.6237 116.008 40.647 117.338 37.4307C117.674 36.735 117.674 36.735 118.302 35.859C118.509 35.859 118.717 35.859 118.93 35.859C118.93 35.6662 118.93 35.4735 118.93 35.275C119.381 35.0368 119.833 34.7998 120.284 34.5632C120.536 34.4311 120.787 34.299 121.046 34.1629C123.177 33.119 125.611 33.2019 127.781 34.107ZM121.442 38.487C121.339 38.8724 121.235 39.2578 121.128 39.655C123.097 39.655 125.066 39.655 127.094 39.655C126.76 38.4103 126.621 38.0514 125.524 37.319C123.709 37.1046 122.735 37.1753 121.442 38.487Z" fill="white"/>
<path d="M82.1922 34.691C82.1922 34.8837 82.1922 35.0764 82.1922 35.275C82.3994 35.275 82.6067 35.275 82.8202 35.275C82.8202 35.4677 82.8202 35.6604 82.8202 35.859C83.0274 35.859 83.2347 35.859 83.4482 35.859C84.5676 37.7516 85.3492 39.5497 84.7042 41.699C84.497 41.988 84.2897 42.2771 84.0762 42.575C83.1114 42.6744 83.1114 42.6744 81.8856 42.6605C81.6704 42.6593 81.4552 42.658 81.2335 42.6567C80.5456 42.6518 79.8579 42.6408 79.17 42.6297C78.7039 42.6253 78.2378 42.6213 77.7717 42.6177C76.6284 42.6081 75.4853 42.5929 74.3422 42.575C75.4902 44.2866 75.4902 44.2866 77.4037 45.13C78.6139 45.2165 79.4838 44.9926 80.6222 44.619C80.7258 44.5226 80.8294 44.4262 80.9362 44.327C82.8855 44.1927 82.8855 44.1927 83.7426 44.6555C84.2488 45.4862 84.2407 46.018 84.0762 46.955C82.7618 48.335 80.8238 48.8754 78.8989 49.0834C76.5215 49.159 74.5509 48.5425 72.4582 47.539C72.4582 47.3462 72.4582 47.1535 72.4582 46.955C72.251 46.955 72.0437 46.955 71.8302 46.955C71.5741 46.5357 71.3192 46.1159 71.0648 45.6957C70.8517 45.3451 70.8517 45.3451 70.6343 44.9874C69.5248 43.0286 69.6376 40.4147 70.1277 38.2805C70.9924 36.1937 72.8298 34.6884 74.931 33.669C77.6678 33.2617 79.7495 33.4346 82.1922 34.691ZM74.6562 38.487C74.5526 38.8724 74.449 39.2578 74.3422 39.655C76.311 39.655 78.2798 39.655 80.3082 39.655C79.9736 38.4102 79.8353 38.0514 78.7382 37.319C76.9229 37.1046 75.9491 37.1753 74.6562 38.487Z" fill="white"/>
<path d="M42.9422 33.8149C44.1483 34.4552 44.432 35.077 44.8066 36.2969C45.314 37.8459 45.9543 39.2628 46.7249 40.7134C47.0242 41.4069 47.0242 41.4069 47.0242 42.5749C47.7155 42.3323 47.7155 42.3323 47.9391 41.6564C48.0831 41.2506 48.0831 41.2506 48.2299 40.8366C48.337 40.5411 48.444 40.2456 48.5543 39.9412C48.7198 39.4743 48.7198 39.4743 48.8886 38.9979C49.1056 38.3875 49.3243 37.7777 49.5448 37.1683C49.6411 36.8965 49.7374 36.6246 49.8366 36.3445C50.7101 34.271 50.7101 34.271 51.7035 33.8594C52.8097 33.7508 53.422 33.717 54.4228 34.2164C55.1282 35.4142 54.9091 36.3178 54.5602 37.6109C54.3408 38.0963 54.1066 38.576 53.8611 39.0504C52.726 41.316 51.7981 43.6542 50.8529 45.9928C49.9978 48.0602 49.1218 50.151 47.6522 51.9189C47.445 51.9189 47.2377 51.9189 47.0242 51.9189C47.0242 52.1116 47.0242 52.3043 47.0242 52.5029C45.4967 53.8094 43.8655 54.152 41.8481 54.2994C40.9952 54.2514 40.5148 54.1023 39.8022 53.6709C39.3672 52.8618 39.4292 52.2303 39.4882 51.3349C40.1162 50.4589 40.1162 50.4589 41.1392 50.1817C41.5399 50.1106 41.9406 50.0395 42.3534 49.9662C42.7558 49.8928 43.1581 49.8194 43.5727 49.7437C43.8827 49.6907 44.1928 49.6376 44.5122 49.5829C44.8677 48.007 44.7814 47.1086 44.0768 45.6432C43.8287 45.1175 43.8287 45.1175 43.5757 44.5813C43.3974 44.2166 43.2189 43.852 43.0403 43.4874C42.8675 43.1253 42.6952 42.7629 42.5233 42.4004C41.9113 41.1161 41.2925 39.8349 40.6594 38.5595C40.5461 38.3293 40.4328 38.099 40.3161 37.8618C40.2193 37.6683 40.1224 37.4747 40.0226 37.2753C39.6535 36.3704 39.6395 35.6364 39.8022 34.6909C40.6991 33.6964 41.6011 33.659 42.9422 33.8149Z" fill="white"/>
<path d="M97.9903 33.8697C99.6562 34.9145 100.807 35.9694 101.201 37.8207C101.348 38.7931 101.387 39.7158 101.388 40.6975C101.388 41.0554 101.389 41.4134 101.389 41.7822C101.388 42.1522 101.387 42.5222 101.385 42.9034C101.387 43.4618 101.387 43.4618 101.389 44.0315C101.389 44.3887 101.388 44.7459 101.388 45.114C101.388 45.4392 101.387 45.7645 101.387 46.0996C101.352 46.8282 101.261 47.4293 101.032 48.1229C100.825 48.1229 100.618 48.1229 100.404 48.1229C100.404 48.3157 100.404 48.5084 100.404 48.7069C98.5337 48.821 98.5337 48.821 97.8922 48.7069C96.8597 47.7395 96.8281 46.9434 96.8116 45.6136C96.8033 45.2406 96.795 44.8675 96.7865 44.4832C96.7818 44.0905 96.7775 43.6977 96.7736 43.3049C96.7637 42.5353 96.7494 41.7659 96.7331 40.9963C96.7292 40.6551 96.7254 40.3139 96.7214 39.9623C96.6394 39.1041 96.5196 38.6128 96.0082 37.9029C95.0226 37.4447 94.2691 37.5082 93.1822 37.6109C92.0943 38.4027 91.5344 38.9825 91.2982 40.2389C91.2805 40.6785 91.2786 41.1189 91.2896 41.5586C91.2935 41.8091 91.2973 42.0596 91.3013 42.3177C91.3122 42.8386 91.3245 43.3595 91.3381 43.8804C91.3591 45.4178 91.2534 46.6774 90.6702 48.1229C90.0422 48.7069 90.0422 48.7069 88.9825 48.8529C87.8442 48.7069 87.8442 48.7069 87.1541 47.985C86.448 46.6998 86.4163 45.7628 86.4435 44.3441C86.4438 44.0972 86.444 43.8504 86.4443 43.5961C86.4462 43.0765 86.4512 42.557 86.459 42.0375C86.4704 41.2442 86.4718 40.4512 86.4717 39.6578C86.4748 39.1515 86.4784 38.6453 86.4827 38.1391C86.4834 37.903 86.4841 37.6669 86.4848 37.4237C86.5071 36.1894 86.6077 35.2337 87.2162 34.1069C89.4963 33.6757 89.4963 33.6757 90.6702 34.3807C90.9811 34.6788 90.9811 34.6788 91.2982 34.9829C91.4431 34.8775 91.588 34.7722 91.7373 34.6636C93.7845 33.3091 95.6122 33.0769 97.9903 33.8697Z" fill="white"/>
<path d="M66.4628 34.3784C67.1202 34.6909 67.1202 34.6909 68.0622 35.2749C68.1863 36.5439 68.2046 37.1204 67.4342 38.1949C65.7898 38.3822 64.5789 38.0091 63.0664 37.4946C62.2391 37.2731 61.6472 37.3446 60.8402 37.6109C60.9439 37.9964 61.0475 38.3818 61.1542 38.7789C61.3708 38.8218 61.5873 38.8647 61.8104 38.9089C64.4371 39.492 66.4447 40.352 68.2389 42.2647C68.8012 43.3787 68.8938 43.983 68.6902 45.2029C67.9249 46.8171 66.9385 47.8824 65.2362 48.7069C62.6005 49.5019 59.6791 48.9981 57.2292 47.9404C56.9702 47.8079 56.7111 47.6754 56.4442 47.5389C56.4442 47.3462 56.4442 47.1535 56.4442 46.9549C56.237 46.9549 56.0297 46.9549 55.8162 46.9549C55.7003 45.3736 55.7003 45.3736 56.2872 44.5094C56.4427 44.3528 56.5981 44.1962 56.7582 44.0349C57.9816 44.151 58.9428 44.3214 60.0749 44.7832C61.1829 45.2141 61.854 45.3281 63.0382 45.2029C63.3491 45.0102 63.66 44.8175 63.9802 44.6189C63.9802 44.4262 63.9802 44.2335 63.9802 44.0349C63.76 43.9608 63.5398 43.8866 63.313 43.8102C62.6933 43.6012 62.0744 43.3905 61.456 43.1783C60.9054 42.9939 60.3518 42.8167 59.7927 42.6559C58.1132 42.1562 57.4159 41.5532 56.4442 40.2389C55.8942 38.7043 55.9269 37.4682 56.6012 36.0049C56.7567 35.764 56.9121 35.5231 57.0722 35.2749C57.2795 35.2749 57.4867 35.2749 57.7002 35.2749C57.7002 35.0822 57.7002 34.8895 57.7002 34.6909C60.7176 33.139 63.3125 33.0943 66.4628 34.3784Z" fill="white"/>
<path d="M113.906 34.6909C114.711 35.3079 114.832 35.4455 114.966 36.4429C114.848 37.3189 114.848 37.3189 114.495 37.8664C113.605 38.3628 113.055 38.3016 112.022 38.1949C111.296 37.9769 110.581 37.7358 109.863 37.4946C109.031 37.2754 108.438 37.3431 107.626 37.6109C107.631 38.1851 107.631 38.1851 107.94 38.7789C108.819 39.1492 108.819 39.1492 109.883 39.3812C111.328 39.739 112.586 40.1652 113.906 40.8229C113.906 41.0156 113.906 41.2084 113.906 41.4069C114.113 41.4069 114.321 41.4069 114.534 41.4069C115.346 43.0038 115.646 44.0371 115.114 45.755C114.588 46.9743 113.92 47.8171 112.647 48.424C109.686 49.4618 107.12 49.0477 104.231 47.9952C103.23 47.5389 103.23 47.5389 102.602 46.6629C102.744 44.7787 102.744 44.7787 103.544 44.0349C104.809 43.8669 105.59 44.069 106.684 44.6189C107.783 45.1699 108.556 45.3675 109.824 45.2029C110.135 45.0102 110.446 44.8175 110.766 44.6189C110.766 44.4262 110.766 44.2335 110.766 44.0349C109.785 43.4264 109.099 43.2539 107.96 43.0129C106.818 42.7709 105.825 42.5235 104.8 41.9909C104.8 41.7982 104.8 41.6055 104.8 41.4069C104.606 41.3407 104.412 41.2744 104.211 41.2062C103.313 40.6901 103.187 40.306 102.916 39.3629C102.766 37.8262 102.991 36.8817 103.858 35.5669C104.349 35.0194 104.349 35.0194 104.8 34.6909C105.007 34.6909 105.215 34.6909 105.428 34.6909C105.428 34.4982 105.428 34.3055 105.428 34.1069C108.274 32.9625 111.24 33.3079 113.906 34.6909Z" fill="white"/>
<path d="M38.2322 34.3989C38.6716 35.2162 38.6255 35.8312 38.5462 36.7349C38.014 37.4228 37.683 37.5933 36.7898 37.7934C36.1814 37.8664 35.573 37.9394 34.9646 38.0124C34.0361 38.2205 33.7769 38.3706 33.2082 39.0709C33.0648 39.8277 33.0648 39.8277 33.0806 40.6815C33.0738 40.9988 33.0669 41.3161 33.0598 41.6431C33.057 41.9747 33.0541 42.3063 33.0512 42.6479C33.0098 47.4315 33.0098 47.4315 31.6382 48.7069C29.662 48.8771 29.662 48.8771 28.9073 48.2981C28.2687 47.113 28.3513 45.9534 28.351 44.6452C28.3486 44.3637 28.3462 44.0823 28.3438 43.7923C28.3404 43.1981 28.3395 42.6039 28.3409 42.0097C28.3412 41.0988 28.3281 40.1887 28.3142 39.278C28.3126 38.7006 28.3117 38.1233 28.3118 37.5459C28.3066 37.2731 28.3015 37.0002 28.2962 36.7191C28.3043 36.0131 28.3262 35.3786 28.4982 34.6909C29.4719 33.8606 29.8814 33.809 31.2065 33.8514C32.2172 34.0951 32.6017 34.2199 33.2082 34.9829C33.3248 34.8505 33.4414 34.718 33.5615 34.5814C35.2334 33.234 36.4463 33.4872 38.2322 34.3989Z" fill="white"/>
<path d="M26.667 21.3148C27.735 22.0664 28.2953 22.6746 28.4982 23.9234C28.4982 25.5593 28.4982 25.5593 28.1842 26.2229C27.2373 26.6632 26.3697 26.4846 25.319 26.4419C23.4677 26.3959 22.3102 26.6126 20.8285 27.6647C20.3342 27.9749 20.3342 27.9749 19.4511 27.9932C18.607 27.6119 18.3172 27.2524 17.8222 26.5149C17.5069 25.056 17.598 23.702 18.4895 22.4452C20.5682 20.1243 23.9204 19.9112 26.667 21.3148Z" fill="white"/>
<path d="M12.7982 21.2589C13.9442 21.7223 14.4773 22.2352 15.0686 23.2824C15.5019 24.3665 15.5771 25.3851 15.3102 26.5149C14.6626 27.2814 14.6626 27.2814 13.7402 27.6829C12.602 27.6829 12.602 27.6829 11.5422 27.3909C10.8996 26.7742 10.6235 26.3997 10.5107 25.542C10.6964 23.6175 11.2721 22.5696 12.7982 21.2589Z" fill="#59BCEF"/>
<path d="M17.7241 16.7877C18.4502 16.879 18.4502 16.879 18.7642 17.171C18.7171 18.3328 18.6381 19.0075 17.8222 19.9085C16.2002 20.7255 14.712 20.8359 12.9356 20.4012C12.683 20.2988 12.4304 20.1965 12.1702 20.091C12.0505 19.5095 11.9462 18.9251 11.8562 18.339C11.9598 18.2426 12.0634 18.1462 12.1702 18.047C12.7265 18.0564 13.2826 18.0764 13.8383 18.1017C15.2359 18.1553 15.2359 18.1553 16.37 17.463C16.8802 16.879 16.8802 16.879 17.7241 16.7877Z" fill="white"/>
<path d="M29.3421 14.9444C29.5817 15.0046 29.8213 15.0649 30.0682 15.1269C30.186 15.7657 30.186 15.7657 30.0682 16.5869C29.176 17.6241 28.6773 17.9877 27.2532 18.1587C24.6625 18.1996 24.6625 18.1996 23.4742 17.4629C23.4153 16.5504 23.4153 16.5504 23.4742 15.7109C24.6451 15.391 25.6811 15.4183 26.8902 15.4657C27.9447 15.3916 28.2349 14.8007 29.3421 14.9444Z" fill="white"/>
<path d="M12.7982 21.2589C13.9955 21.6168 14.4907 22.3068 15.0747 23.3166C15.4374 24.1949 15.3914 25.0056 15.3102 25.9309C14.8957 26.0273 14.4813 26.1236 14.0542 26.2229C14.0542 25.452 14.0542 24.6812 14.0542 23.8869C13.5361 23.8869 13.018 23.8869 12.4842 23.8869C12.3806 24.0796 12.277 24.2724 12.1702 24.4709C11.8594 24.4709 11.5485 24.4709 11.2282 24.4709C11.2282 24.6636 11.2282 24.8564 11.2282 25.0549C11.021 25.0549 10.8137 25.0549 10.6002 25.0549C10.9931 23.3942 11.5551 22.5062 12.7982 21.2589Z" fill="#46B7F1"/>
<path d="M16.8802 16.879C17.7437 16.806 17.7437 16.806 18.4502 16.879C18.4502 17.3608 18.4502 17.8426 18.4502 18.339C17.0513 18.4835 17.0513 18.4835 15.6242 18.631C15.6242 18.8237 15.6242 19.0164 15.6242 19.215C15.2097 19.215 14.7952 19.215 14.3682 19.215C14.3682 19.4077 14.3682 19.6004 14.3682 19.799C12.9383 19.9068 12.9383 19.9068 12.2291 19.361C12.106 19.2164 11.983 19.0719 11.8562 18.923C11.9598 18.6339 12.0634 18.3448 12.1702 18.047C12.5223 18.0673 12.5223 18.0673 12.8816 18.088C14.7725 18.2295 14.7725 18.2295 16.37 17.463C16.5383 17.2702 16.7067 17.0775 16.8802 16.879Z" fill="white"/>
<path d="M24.7302 42.8669C25.3386 43.3597 25.3386 43.3597 25.6722 44.0349C25.6722 44.9109 25.6722 44.9109 25.3582 45.7869C24.5536 46.4804 24.5536 46.4804 23.7882 46.9549C23.6846 46.7622 23.581 46.5695 23.4742 46.3709C23.5778 46.1782 23.6815 45.9855 23.7882 45.7869C23.581 45.6906 23.3737 45.5942 23.1602 45.4949C23.7882 44.6189 23.7882 44.6189 24.7302 44.3269C24.0392 43.6844 23.7721 43.6282 22.8462 43.4509C22.4275 43.3536 22.0089 43.2563 21.5902 43.1589C22.7098 42.4782 23.4614 42.5155 24.7302 42.8669Z" fill="white"/>
<path d="M12.4842 23.3029C13.2496 23.4854 13.2496 23.4854 14.0542 23.8869C14.517 25.3623 14.517 25.3623 14.0542 26.2229C13.4262 25.9309 13.4262 25.9309 12.7982 25.0549C12.0729 25.2476 11.3475 25.4404 10.6002 25.6389C10.6002 25.4462 10.6002 25.2535 10.6002 25.0549C10.8075 25.0549 11.0147 25.0549 11.2282 25.0549C11.2282 24.8622 11.2282 24.6695 11.2282 24.4709C11.5391 24.4709 11.8499 24.4709 12.1702 24.4709C12.2738 24.0855 12.3775 23.7 12.4842 23.3029Z" fill="#48B7FA"/>
<path d="M116.732 39.6549C116.836 39.6549 116.939 39.6549 117.046 39.6549C117.058 39.8698 117.07 40.0848 117.082 40.3062C117.199 41.918 117.347 42.9539 118.302 44.3269C118.204 45.1482 118.204 45.1482 117.988 45.7869C116.516 44.2314 116.347 42.4679 116.365 40.4784C116.418 39.9469 116.418 39.9469 116.732 39.6549Z" fill="white"/>
<path d="M8.08821 4.61493C8.29545 4.90401 8.50269 5.19309 8.71621 5.49093C7.85271 6.62243 7.85271 6.62243 7.14621 6.95093C7.03837 7.33951 6.93388 7.72891 6.83221 8.11893C6.62497 8.31165 6.41773 8.50437 6.20421 8.70293C5.89335 8.60657 5.58249 8.51021 5.26221 8.41093C5.51061 8.03974 5.75924 7.66868 6.00796 7.29768C6.14639 7.09103 6.28482 6.88439 6.42744 6.67148C6.76372 6.17587 7.11065 5.68653 7.46021 5.19893C7.66745 5.19893 7.87469 5.19893 8.08821 5.19893C8.08821 5.00621 8.08821 4.81349 8.08821 4.61493Z" fill="white"/>
<path d="M75.9122 33.5229C79.53 33.4152 79.53 33.4152 81.2502 34.1069C80.9393 34.2997 80.6285 34.4924 80.3082 34.6909C80.4118 34.8837 80.5154 35.0764 80.6222 35.2749C80.2077 35.1786 79.7932 35.0822 79.3662 34.9829C79.3662 34.6939 79.3662 34.4048 79.3662 34.1069C78.1228 34.1069 76.8793 34.1069 75.5982 34.1069C75.7018 33.9142 75.8054 33.7215 75.9122 33.5229Z" fill="white"/>
<path d="M22.2182 4.03094C22.9202 5.0101 22.9005 5.17192 22.7285 6.27569C22.6937 6.5117 22.6588 6.74771 22.623 6.99087C22.593 7.17041 22.5631 7.34996 22.5322 7.53494C21.457 6.66371 21.4088 5.92169 21.2762 4.61494C21.5871 4.61494 21.8979 4.61494 22.2182 4.61494C22.2182 4.42222 22.2182 4.2295 22.2182 4.03094Z" fill="white"/>
<path d="M57.6021 43.9619C57.8417 43.986 58.0813 44.0101 58.3282 44.0349C58.3282 44.2276 58.3282 44.4204 58.3282 44.6189C57.9396 44.7996 57.9396 44.7996 57.5432 44.9839C57.2842 45.1525 57.0251 45.3212 56.7582 45.4949C56.6271 46.4078 56.6271 46.4078 56.7582 47.2469C56.4474 47.1506 56.1365 47.0542 55.8162 46.9549C55.7466 46.0051 55.7264 45.3699 56.1891 44.5094C56.7582 44.0349 56.7582 44.0349 57.6021 43.9619Z" fill="white"/>
<path d="M95.4194 33.5047C95.7052 33.5073 95.991 33.51 96.2854 33.5127C96.5048 33.5161 96.7242 33.5194 96.9502 33.5229C97.0538 33.7157 97.1574 33.9084 97.2642 34.1069C96.81 34.1651 96.81 34.1651 96.3467 34.2244C95.7517 34.3018 95.7517 34.3018 95.1447 34.3807C94.7513 34.4315 94.3578 34.4823 93.9525 34.5347C93.1508 34.6502 92.3913 34.7798 91.6122 34.9829C92.9949 33.934 93.6342 33.4834 95.4194 33.5047Z" fill="white"/>
<path d="M14.0935 18.4667C14.3792 18.4965 14.665 18.5262 14.9594 18.5568C15.1788 18.5813 15.3982 18.6058 15.6242 18.631C15.6242 18.8237 15.6242 19.0164 15.6242 19.215C15.2097 19.215 14.7952 19.215 14.3682 19.215C14.3682 19.4077 14.3682 19.6004 14.3682 19.799C13.6421 19.872 13.6421 19.872 12.7982 19.799C12.2291 19.215 12.2291 19.215 11.8562 18.631C12.6799 18.248 13.1845 18.3692 14.0935 18.4667Z" fill="white"/>
<path d="M12.1702 21.843C12.5183 22.814 12.4354 23.4845 12.1702 24.471C11.8594 24.471 11.5485 24.471 11.2282 24.471C11.2282 24.6637 11.2282 24.8564 11.2282 25.055C11.021 25.055 10.8137 25.055 10.6002 25.055C10.9384 23.7969 11.2406 22.8253 12.1702 21.843Z" fill="#70C3EF"/>
<path d="M12.7982 21.2589C13.8064 21.5603 14.2424 22.0145 14.7803 22.8284C15.3102 23.8869 15.3102 23.8869 15.2317 24.5987C15.154 24.7492 15.0763 24.8998 14.9962 25.0549C14.9962 24.8622 14.9962 24.6695 14.9962 24.4709C14.789 24.4709 14.5817 24.4709 14.3682 24.4709C14.2905 24.2601 14.2128 24.0493 14.1327 23.8322C13.7057 22.9387 13.1659 22.2904 12.4842 21.5509C12.5878 21.4546 12.6915 21.3582 12.7982 21.2589Z" fill="#75C0E4"/>
<path d="M41.6862 33.8149C41.6862 34.0077 41.6862 34.2004 41.6862 34.3989C41.3754 34.3989 41.0645 34.3989 40.7442 34.3989C40.7442 34.5917 40.7442 34.7844 40.7442 34.9829C40.9515 34.9829 41.1587 34.9829 41.3722 34.9829C41.3722 35.1757 41.3722 35.3684 41.3722 35.5669C40.9577 35.5669 40.5433 35.5669 40.1162 35.5669C40.3235 35.9524 40.5307 36.3378 40.7442 36.7349C40.4334 36.7349 40.1225 36.7349 39.8022 36.7349C39.7237 35.7677 39.7237 35.7677 39.8022 34.6909C40.4425 34.0756 40.7586 33.8149 41.6862 33.8149Z" fill="white"/>
<path d="M29.7542 15.127C29.8578 15.127 29.9615 15.127 30.0682 15.127C30.186 15.7657 30.186 15.7657 30.0682 16.587C29.4943 17.2291 28.9488 17.573 28.1842 18.047C27.8734 17.9506 27.5625 17.8542 27.2422 17.755C27.4495 17.755 27.6567 17.755 27.8702 17.755C27.9738 17.3695 28.0775 16.9841 28.1842 16.587C28.5987 16.4906 29.0132 16.3942 29.4402 16.295C29.5438 15.9095 29.6475 15.5241 29.7542 15.127Z" fill="white"/>
<path d="M112.65 34.3989C113.566 34.7125 114.151 34.9181 114.848 35.5669C114.927 36.4429 114.927 36.4429 114.848 37.3189C114.641 37.5116 114.434 37.7044 114.22 37.9029C114.24 37.6259 114.259 37.3489 114.279 37.0634C114.25 36.6117 114.25 36.6117 114.22 36.1509C113.909 35.9582 113.598 35.7655 113.278 35.5669C113.278 35.3742 113.278 35.1815 113.278 34.9829C113.071 34.9829 112.864 34.9829 112.65 34.9829C112.65 34.7902 112.65 34.5975 112.65 34.3989Z" fill="white"/>
<path d="M18.4502 17.1709C18.5538 17.1709 18.6575 17.1709 18.7642 17.1709C18.6857 18.1564 18.6857 18.1564 18.4502 19.2149C17.8026 19.6346 17.8026 19.6346 17.1942 19.7989C16.987 19.6062 16.7797 19.4135 16.5662 19.2149C16.9783 18.7769 16.9783 18.7769 17.5082 18.3389C17.8191 18.3389 18.1299 18.3389 18.4502 18.3389C18.4502 17.9535 18.4502 17.568 18.4502 17.1709Z" fill="white"/>
<path d="M21.2762 7.8269C21.3798 8.11598 21.4835 8.40506 21.5902 8.7029C19.8898 9.88887 19.8898 9.88887 18.9605 9.7979C18.7921 9.72563 18.6237 9.65336 18.4502 9.5789C18.6575 9.5789 18.8647 9.5789 19.0782 9.5789C19.1818 9.19346 19.2855 8.80802 19.3922 8.4109C19.9103 8.50726 20.4284 8.60362 20.9622 8.7029C21.0658 8.41382 21.1695 8.12474 21.2762 7.8269Z" fill="white"/>
<path d="M12.7982 4.32294C13.5243 4.37769 13.5243 4.37769 14.0542 4.61494C13.9506 4.90402 13.847 5.1931 13.7402 5.49094C13.4294 5.49094 13.1185 5.49094 12.7982 5.49094C12.7982 5.68366 12.7982 5.87638 12.7982 6.07494C12.2801 5.97858 11.762 5.88222 11.2282 5.78294C11.9347 5.03469 11.9347 5.03469 12.7982 4.32294Z" fill="white"/>
<path d="M70.8882 45.2029C71.5099 45.3957 72.1316 45.5884 72.7722 45.7869C72.8758 46.3651 72.9794 46.9433 73.0862 47.5389C72.8789 47.5389 72.6717 47.5389 72.4582 47.5389C72.4582 47.3462 72.4582 47.1535 72.4582 46.9549C72.2509 46.9549 72.0437 46.9549 71.8302 46.9549C71.5193 46.3768 71.2085 45.7986 70.8882 45.2029Z" fill="white"/>
<path d="M40.4302 37.3189C40.6374 37.3189 40.8447 37.3189 41.0582 37.3189C41.1618 37.608 41.2654 37.8971 41.3722 38.1949C41.5794 38.3876 41.7867 38.5803 42.0002 38.7789C41.8966 38.9716 41.793 39.1643 41.6862 39.3629C41.8934 39.3629 42.1007 39.3629 42.3142 39.3629C42.2106 39.8447 42.107 40.3265 42.0002 40.8229C40.4302 38.6329 40.4302 38.6329 40.4302 37.3189Z" fill="white"/>
<path d="M37.9182 34.1069C36.7407 34.9829 36.7407 34.9829 36.0342 34.9829C36.0342 34.7902 36.0342 34.5975 36.0342 34.3989C35.4125 34.3989 34.7908 34.3989 34.1502 34.3989C35.6712 33.456 36.2499 33.5208 37.9182 34.1069Z" fill="white"/>
<path d="M29.4402 31.187C29.4402 31.3797 29.4402 31.5724 29.4402 31.771C28.9829 31.9669 28.5249 32.1613 28.0665 32.355C27.684 32.5176 27.684 32.5176 27.2937 32.6835C26.6142 32.939 26.6142 32.939 25.9862 32.939C25.9862 32.7462 25.9862 32.5535 25.9862 32.355C26.384 32.1581 26.7834 31.964 27.1833 31.771C27.4055 31.6625 27.6278 31.5541 27.8567 31.4425C28.4982 31.187 28.4982 31.187 29.4402 31.187Z" fill="white"/>
<path d="M38.5462 16.0029C38.6498 16.0029 38.7535 16.0029 38.8602 16.0029C39.2811 17.8531 39.2811 17.8531 38.7817 18.7587C38.2322 19.2149 38.2322 19.2149 37.2902 19.2149C37.3809 19.0644 37.4716 18.9138 37.565 18.7587C38.0086 17.8648 38.2714 16.9521 38.5462 16.0029Z" fill="white"/>
<path d="M82.1922 44.327C83.0925 44.4944 83.4047 44.5785 84.0762 45.203C84.1154 46.1155 84.1154 46.1155 84.0762 46.955C83.7653 46.955 83.4545 46.955 83.1342 46.955C83.2378 46.3768 83.3414 45.7986 83.4482 45.203C83.241 45.203 83.0337 45.203 82.8202 45.203C82.8202 45.0102 82.8202 44.8175 82.8202 44.619C82.613 44.5226 82.4057 44.4262 82.1922 44.327Z" fill="white"/>
<path d="M24.7302 42.867C24.7302 43.156 24.7302 43.4451 24.7302 43.743C23.6698 43.5861 22.6275 43.4187 21.5902 43.159C22.7138 42.4758 23.4498 42.5963 24.7302 42.867Z" fill="white"/>
<path d="M109.51 39.655C111.041 39.5532 111.95 39.8252 113.278 40.531C112.967 40.7237 112.656 40.9164 112.336 41.115C111.626 40.9165 111.626 40.9165 110.864 40.5675C110.611 40.4538 110.357 40.3401 110.095 40.223C109.902 40.1319 109.709 40.0408 109.51 39.947C109.51 39.8506 109.51 39.7542 109.51 39.655Z" fill="white"/>
<path d="M37.6042 34.9829C37.9151 34.9829 38.2259 34.9829 38.5462 34.9829C38.5854 36.6619 38.5854 36.6619 38.2322 37.3189C38.025 37.3189 37.8177 37.3189 37.6042 37.3189C37.3531 36.3591 37.2599 35.9435 37.6042 34.9829Z" fill="white"/>
<path d="M38.8602 12.2069C40.2438 12.6 40.8795 13.1395 41.6862 14.2509C41.6862 14.4436 41.6862 14.6363 41.6862 14.8349C41.479 14.8349 41.2717 14.8349 41.0582 14.8349C40.1162 13.8241 40.1162 13.8241 40.1162 13.0829C39.7017 12.9865 39.2873 12.8902 38.8602 12.7909C38.8602 12.5982 38.8602 12.4055 38.8602 12.2069Z" fill="white"/>
<path d="M64.6082 39.947C66.9856 40.823 66.9856 40.823 67.7482 41.699C67.6446 41.8917 67.541 42.0844 67.4342 42.283C67.3176 42.1565 67.2011 42.03 67.081 41.8997C66.3312 41.2722 65.5182 40.9259 64.6082 40.531C64.6082 40.3382 64.6082 40.1455 64.6082 39.947Z" fill="white"/>
<path d="M95.0662 36.4429C95.5843 36.5393 96.1024 36.6357 96.6362 36.7349C96.3253 37.1686 96.3253 37.1686 96.0082 37.6109C95.26 37.6965 95.26 37.6965 94.3989 37.6657C94.1132 37.6578 93.8274 37.6499 93.533 37.6417C93.3136 37.6316 93.0942 37.6214 92.8682 37.6109C92.7646 37.4182 92.661 37.2255 92.5542 37.0269C93.3832 37.0269 94.2121 37.0269 95.0662 37.0269C95.0662 36.8342 95.0662 36.6415 95.0662 36.4429Z" fill="white"/>
<path d="M53.6182 33.8149C52.4407 34.3989 52.4407 34.3989 51.7342 34.3989C51.527 34.7844 51.3197 35.1698 51.1062 35.5669C50.899 35.5669 50.6917 35.5669 50.4782 35.5669C50.7333 34.8552 50.7333 34.8552 51.1062 34.1069C52.0257 33.8219 52.6624 33.7909 53.6182 33.8149Z" fill="white"/>
<path d="M11.8562 18.923C12.1671 19.0193 12.4779 19.1157 12.7982 19.215C12.7982 19.4077 12.7982 19.6004 12.7982 19.799C13.3163 19.799 13.8344 19.799 14.3682 19.799C14.3682 19.6063 14.3682 19.4135 14.3682 19.215C14.5754 19.215 14.7827 19.215 14.9962 19.215C14.9962 19.5041 14.9962 19.7931 14.9962 20.091C14.0636 20.091 13.131 20.091 12.1702 20.091C12.0666 19.7055 11.963 19.3201 11.8562 18.923Z" fill="white"/>
<path d="M14.0542 8.41095C14.5723 8.41095 15.0904 8.41095 15.6242 8.41095C15.7278 8.89275 15.8314 9.37455 15.9382 9.87095C15.3494 9.79795 15.3494 9.79795 14.6822 9.57895C14.2897 8.9767 14.2897 8.9767 14.0542 8.41095Z" fill="white"/>
<path d="M61.1542 42.575C61.9831 42.6713 62.8121 42.7677 63.6662 42.867C63.7698 43.156 63.8734 43.4451 63.9802 43.743C62.5813 43.4539 62.5813 43.4539 61.1542 43.159C61.1542 42.9662 61.1542 42.7735 61.1542 42.575Z" fill="white"/>
<path d="M14.6822 25.6389C14.8894 25.7353 15.0967 25.8316 15.3102 25.9309C15.103 26.3164 14.8957 26.7018 14.6822 27.0989C14.2677 27.0989 13.8532 27.0989 13.4262 27.0989C13.4262 26.8098 13.4262 26.5208 13.4262 26.2229C13.8407 26.2229 14.2552 26.2229 14.6822 26.2229C14.6822 26.0302 14.6822 25.8375 14.6822 25.6389Z" fill="#68C1ED"/>
<path d="M7.77421 10.163C7.98145 10.2593 8.18869 10.3557 8.40221 10.455C8.25326 10.7139 8.10431 10.9729 7.95084 11.2397C7.52384 12.0815 7.29046 12.7548 7.14621 13.667C7.04259 13.667 6.93897 13.667 6.83221 13.667C6.83221 12.8961 6.83221 12.1252 6.83221 11.331C7.03945 11.331 7.24669 11.331 7.46021 11.331C7.56383 10.9455 7.66745 10.5601 7.77421 10.163Z" fill="white"/>
<path d="M49.2222 46.0789C49.6367 46.0789 50.0512 46.0789 50.4782 46.0789C50.271 46.7534 50.0637 47.428 49.8502 48.1229C49.8113 47.9362 49.7725 47.7495 49.7325 47.5572C49.6353 47.2591 49.6353 47.2591 49.5362 46.9549C49.329 46.8586 49.1217 46.7622 48.9082 46.6629C49.0118 46.4702 49.1154 46.2775 49.2222 46.0789Z" fill="white"/>
<path d="M36.8977 36.8262C37.2474 36.9256 37.2474 36.9256 37.6042 37.027C37.6042 37.2197 37.6042 37.4124 37.6042 37.611C36.6716 37.611 35.739 37.611 34.7782 37.611C35.549 36.9472 35.8262 36.713 36.8977 36.8262Z" fill="white"/>
<path d="M12.1702 23.887C12.2738 23.887 12.3775 23.887 12.4842 23.887C12.4842 24.3688 12.4842 24.8506 12.4842 25.347C11.8625 25.4433 11.2408 25.5397 10.6002 25.639C10.6002 25.4462 10.6002 25.2535 10.6002 25.055C10.8075 25.055 11.0147 25.055 11.2282 25.055C11.2282 24.8622 11.2282 24.6695 11.2282 24.471C11.5391 24.471 11.8499 24.471 12.1702 24.471C12.1702 24.2782 12.1702 24.0855 12.1702 23.887Z" fill="#41B4E7"/>
<path d="M35.0922 19.215C35.7595 19.4887 35.7595 19.4887 36.3482 19.799C36.0373 19.8953 35.7265 19.9917 35.4062 20.091C35.3026 20.2837 35.199 20.4764 35.0922 20.675C34.7813 20.675 34.4705 20.675 34.1502 20.675C34.268 20.1092 34.268 20.1092 34.4642 19.507C34.6714 19.4106 34.8787 19.3142 35.0922 19.215Z" fill="white"/>
</svg>
