<svg width="561" height="477" viewBox="0 0 561 477" fill="none" xmlns="http://www.w3.org/2000/svg">
<g clip-path="url(#clip0_24_1160)">
<path d="M438.219 398.362H477.669V387.687H438.219V398.362Z" fill="#EBEBEB"/>
<path d="M460.222 411.813C466.775 411.718 483.571 411.479 489.899 411.422L499.672 411.384L499.156 411.823L499.111 401.147L499.672 401.624C493.119 401.605 476.413 401.558 470.085 401.481L460.222 401.376L460.492 401.147L460.222 411.823V411.813ZM460.222 411.813L459.953 401.138V400.919H460.222C465.148 400.861 475.022 400.766 479.947 400.728L499.672 400.661H500.233V401.138L500.177 411.813V412.252H499.661L489.709 412.214C483.425 412.157 466.696 411.918 460.211 411.823L460.222 411.813Z" fill="#EBEBEB"/>
<path d="M311.288 226.642C317.84 226.546 334.637 226.308 340.965 226.251L350.737 226.212L350.221 226.651L350.176 215.976L350.737 216.453C344.185 216.434 327.478 216.386 321.15 216.31L311.288 216.205L311.557 215.976L311.288 226.651V226.642ZM311.288 226.642L311.019 215.967V215.747H311.288C316.213 215.69 326.087 215.594 331.013 215.556L350.737 215.49H351.298V215.967L351.242 226.642V227.081H350.726L340.774 227.042C334.491 226.985 317.762 226.747 311.277 226.651L311.288 226.642Z" fill="#EBEBEB"/>
<path d="M333.291 240.103C339.843 240.007 356.64 239.769 362.968 239.712L372.74 239.673L372.224 240.112L372.179 229.437L372.74 229.914C366.188 229.895 349.481 229.847 343.153 229.771L333.291 229.666L333.56 229.437L333.291 240.112V240.103ZM333.291 240.103L333.021 229.427V229.208H333.291C338.216 229.151 348.09 229.055 353.016 229.017L372.74 228.95H373.301V229.427L373.245 240.103V240.542H372.729L362.777 240.503C356.494 240.446 339.765 240.208 333.28 240.112L333.291 240.103Z" fill="#EBEBEB"/>
<path d="M355.203 226.642H394.652V215.967H355.203V226.642Z" fill="#EBEBEB"/>
<path d="M61.3288 411.823H100.778V401.147H61.3288V411.823Z" fill="#EBEBEB"/>
<path d="M83.3317 53.548L122.781 53.548V42.8728H83.3317V53.548Z" fill="#EBEBEB"/>
<path d="M61.3289 66.9994C67.8813 66.904 84.6777 66.6655 91.0057 66.6083L100.778 66.5701L100.262 67.009L100.217 56.3337L100.778 56.8107C94.2259 56.7916 77.5193 56.7439 71.1912 56.6676L61.3289 56.5627L61.5981 56.3337L61.3289 67.009V66.9994ZM61.3289 66.9994L61.0596 56.3242V56.1047H61.3289C66.2544 56.0475 76.128 55.9521 81.0536 55.9139L100.778 55.8472H101.339V56.3242L101.283 66.9994V67.4383H100.767L90.815 67.4001C84.5318 67.3429 67.8028 67.1044 61.3176 67.009L61.3289 66.9994Z" fill="#EBEBEB"/>
<path d="M438.219 53.5385C444.772 53.4431 461.568 53.2046 467.896 53.1473L477.669 53.1092L477.153 53.548L477.108 42.8728L477.669 43.3498L457.944 43.283C453.03 43.2544 443.134 43.1494 438.219 43.1017L438.489 42.8728L438.219 53.548V53.5385ZM438.219 53.5385L437.95 42.8632V42.6438H438.219C443.145 42.5866 453.019 42.4912 457.944 42.453L477.669 42.3862H478.23V42.8632L478.174 53.5385V53.9773H477.658L467.706 53.9392C461.422 53.8819 444.693 53.6434 438.208 53.548L438.219 53.5385Z" fill="#EBEBEB"/>
<path d="M198.594 82.75H107.746V176.442H198.594V82.75Z" fill="#EBEBEB"/>
<path d="M188.205 91.3073H118.125V167.904H188.205V91.3073Z" fill="white"/>
<path d="M120.863 91.3073H118.125V167.904H120.863V91.3073Z" fill="#DBDBDB"/>
<path d="M201.321 82.75H198.583V176.442H201.321V82.75Z" fill="#DBDBDB"/>
<path d="M158.135 101.868H141.608V143.73H158.135V101.868Z" fill="#DBDBDB"/>
<path d="M178.466 130.364H134.405V150.875H178.466V130.364Z" stroke="#EBEBEB" stroke-miterlimit="10"/>
<path d="M450.528 82.75H359.68V176.442H450.528V82.75Z" fill="#EBEBEB"/>
<path d="M440.139 91.3073H370.059V167.904H440.139V91.3073Z" fill="white"/>
<path d="M372.796 91.3073H370.059V167.904H372.796V91.3073Z" fill="#DBDBDB"/>
<path d="M453.266 82.75H450.528V176.442H453.266V82.75Z" fill="#DBDBDB"/>
<path d="M410.069 101.868H393.542V143.73H410.069V101.868Z" fill="#DBDBDB"/>
<path d="M430.399 130.364H386.338V150.875H430.399V130.364Z" stroke="#EBEBEB" stroke-miterlimit="10"/>
<path d="M324.561 105.293H233.713V198.985H324.561V105.293Z" fill="#EBEBEB"/>
<path d="M314.172 113.85H244.092V190.447H314.172V113.85Z" fill="white"/>
<path d="M246.829 113.85H244.092V190.447H246.829V113.85Z" fill="#DBDBDB"/>
<path d="M327.299 105.293H324.562V198.985H327.299V105.293Z" fill="#DBDBDB"/>
<path d="M286.503 133.646H272.344V164.078H286.503V133.646Z" fill="#EBEBEB"/>
<path d="M301.415 152.144H263.379V173.122H301.415V152.144Z" stroke="#DBDBDB" stroke-miterlimit="10"/>
<path d="M155.071 350.347C140.53 367.09 125.361 386.532 121.669 407.53C121.625 407.845 122.219 407.949 122.309 407.635C123.992 401.873 126.135 396.282 128.738 390.816C138.297 388.583 147.677 386.742 152.704 378.671C157.82 370.381 157.169 359.563 156.205 350.528C156.137 350.042 155.363 350.023 155.071 350.337V350.347Z" fill="#A53860"/>
<path d="M128.884 390.663C135.414 378.194 143.806 365.678 154.465 355.432C154.533 355.365 154.645 355.46 154.578 355.527C147.599 362.825 142.292 370.782 137.119 378.872C141.933 374.712 147.206 370.992 151.773 366.584C151.862 366.498 152.008 366.622 151.919 366.708C147.386 371.325 142.438 376.353 136.547 379.768C134.965 382.249 133.372 384.739 131.745 387.229C132.138 387.038 132.553 386.876 132.957 386.704C133.024 386.675 133.091 386.761 133.024 386.799C132.575 386.99 132.126 387.2 131.666 387.362C130.903 388.536 130.141 389.719 129.355 390.892C129.176 391.15 128.749 390.921 128.895 390.663H128.884Z" fill="#263238"/>
<path d="M133.742 386.313C137.636 384.414 141.394 382.373 144.906 379.978C144.996 379.911 145.142 380.026 145.041 380.093C141.596 382.573 137.927 384.796 133.899 386.542C133.72 386.618 133.563 386.399 133.742 386.313Z" fill="#263238"/>
<path d="M119.986 404.41C120.02 404.668 120.525 404.658 120.513 404.391C120.592 397.475 120.513 390.529 120.648 383.584C122.735 380.007 127.2 378.032 130.32 375.16C132.564 373.09 134.482 370.763 136.12 368.292C139.969 362.444 142.045 355.861 142.852 349.212C143.716 341.818 140.406 317.405 136.737 318.254C134.83 318.693 128.682 330.78 127.043 334.778C124.373 341.351 122.488 348.172 121.254 355.041C118.281 371.316 118.527 388.03 119.986 404.401V404.41Z" fill="#A53860"/>
<path d="M119.93 374.569L119.964 374.54C120.413 365.792 122.724 356.949 124.901 348.468C127.234 339.328 129.972 330.714 135.504 322.557C135.605 322.404 135.874 322.538 135.773 322.691C132.003 328.996 129.31 335.694 127.257 342.572C127.627 342.076 128.076 341.608 128.457 341.15C128.615 340.969 128.962 341.141 128.816 341.332C128.278 342.019 127.784 342.82 127.089 343.411C127.066 343.431 127.044 343.43 127.021 343.44C125.114 349.975 123.745 356.662 122.578 363.331C122.668 363.245 122.746 363.159 122.836 363.073C122.892 363.016 122.993 363.092 122.96 363.15C122.814 363.369 122.657 363.589 122.488 363.808C121.894 367.195 121.355 370.572 120.805 373.92C127.896 368.769 133.944 362.701 137.355 355.222C137.366 355.184 137.433 355.203 137.422 355.241C134.079 362.997 128.805 369.894 120.693 374.607C120.547 375.514 120.401 376.41 120.244 377.307C120.211 377.498 119.863 377.441 119.863 377.259C119.863 376.458 119.908 375.666 119.953 374.865C119.852 374.788 119.807 374.664 119.93 374.579V374.569Z" fill="#263238"/>
<path d="M123.262 361.89C128.682 355.022 133.742 348.344 137.703 340.74C137.747 340.654 137.916 340.712 137.882 340.807C134.539 348.353 129.86 356.004 123.543 362.072C123.42 362.196 123.161 362.033 123.274 361.89H123.262Z" fill="#263238"/>
<path d="M130.466 339.052C132.71 335.675 135.077 332.393 137.187 328.949C137.243 328.853 137.4 328.939 137.355 329.035C135.582 332.555 133.462 336.123 130.814 339.223C130.668 339.395 130.342 339.242 130.466 339.052Z" fill="#263238"/>
<path d="M129.591 340.521C129.591 340.521 129.636 340.579 129.591 340.579C129.545 340.579 129.545 340.521 129.591 340.521Z" fill="#263238"/>
<path d="M114.477 384.405C114.343 388.984 113.759 393.573 112.581 398.028C112.66 398.524 112.75 399.01 112.828 399.516C114.522 394.555 115.42 389.461 115.689 384.328C115.779 384.185 115.824 384.033 115.712 383.861V383.842C116.015 376.983 115.274 370.047 113.916 363.264C111.403 350.557 105.894 338.355 95.4708 328.834C95.1454 328.538 94.4834 328.691 94.3151 329.035C90.1076 338.126 91.5774 348.983 95.1566 358.055C97.1089 362.94 99.8915 367.633 103.426 371.841C107.005 376.114 111.56 379.73 114.466 384.405H114.477Z" fill="#A53860"/>
<path d="M96.7164 333.099C106.601 346.731 113.468 362.902 114.309 379.005C114.321 379.291 113.76 379.368 113.715 379.072C113.479 377.622 113.221 376.191 112.952 374.76C112.952 374.76 112.941 374.76 112.929 374.76C108.845 371.43 104.649 367.92 101.721 363.76C101.664 363.684 101.788 363.598 101.866 363.665C105.423 367.118 108.744 370.658 112.761 373.739C112.054 370.181 111.213 366.67 110.225 363.216C109.956 362.959 109.698 362.692 109.44 362.434C109.272 362.262 109.552 362.014 109.732 362.186C109.81 362.262 109.889 362.339 109.967 362.405C108.565 357.664 106.859 353.018 104.806 348.458C102.293 345.911 99.4765 343.707 97.6477 340.626C97.6028 340.549 97.7262 340.492 97.7823 340.559C99.2521 342.314 100.677 344.089 102.349 345.71C103.011 346.359 103.74 346.97 104.436 347.599C102.192 342.734 99.5214 337.954 96.3461 333.261C96.2003 333.051 96.5818 332.87 96.7276 333.07L96.7164 333.099Z" fill="#263238"/>
<path d="M98.7138 349.918C101.912 353.571 105.547 357.063 108.52 360.831C108.61 360.936 108.419 361.051 108.318 360.965C104.503 357.922 101.272 353.772 98.5118 350.023C98.4221 349.908 98.6353 349.813 98.725 349.918H98.7138Z" fill="#263238"/>
<path d="M108.958 361.68L109.092 361.795C109.182 361.871 109.036 362.005 108.946 361.919L108.811 361.804C108.721 361.728 108.868 361.604 108.958 361.68Z" fill="#263238"/>
<path d="M81.2324 359.305C82.029 366.317 86.3712 374.703 91.6558 380.102C94.0008 382.497 96.8507 384.319 100.116 385.712C103.773 387.248 107.611 389.022 111.403 390.291C113.176 394.136 114.533 398.161 115.397 402.359C115.521 402.006 115.644 401.644 115.768 401.291C113.333 383.527 99.824 368.349 82.5339 358.609C81.9168 358.256 81.1763 358.704 81.2436 359.305H81.2324Z" fill="#A53860"/>
<path d="M87.2012 364.552C87.0778 364.457 87.246 364.275 87.3807 364.361C96.5474 370.133 104.794 378.547 109.406 387.448C109.529 387.687 109.136 387.906 108.979 387.658C108.171 386.465 107.352 385.292 106.522 384.157C106.522 384.157 106.522 384.157 106.511 384.157C102.561 383.527 98.8251 381.161 95.8967 378.919C95.8181 378.862 95.9303 378.757 96.0089 378.824C97.5348 379.969 99.1841 381.018 101.002 381.81C102.606 382.506 104.345 382.945 106.017 383.498C104.559 381.524 103.033 379.635 101.439 377.794C97.1982 376.563 93.1478 374.35 89.5798 372.127C89.4676 372.06 89.5686 371.898 89.692 371.965C93.3273 373.825 96.9177 375.466 100.71 376.973C98.3202 374.283 95.7284 371.726 92.9234 369.255C91.577 368.654 90.2193 368.044 88.9178 367.404C88.8168 367.347 88.8842 367.195 89.0076 367.233C90.0398 367.528 91.0945 367.986 92.0819 368.511C90.5223 367.166 88.9178 365.849 87.1899 364.552H87.2012Z" fill="#263238"/>
<path d="M87.5718 370.686C87.8074 370.82 88.0206 370.934 88.2338 371.087C88.3011 371.135 88.2114 371.201 88.1553 371.182C87.8972 371.087 87.6952 370.972 87.4596 370.848C87.3362 370.782 87.4596 370.619 87.5718 370.686Z" fill="#263238"/>
<path d="M142.74 440.815H95.3691L99.1839 404.133L100.025 396.044H138.072L138.914 404.133L142.74 440.815Z" fill="#455A64"/>
<path d="M138.914 404.133L99.4648 401.472L100.026 396.044H138.073L138.914 404.133Z" fill="#37474F"/>
<path d="M140.339 390.386H97.7588V398.39H140.339V390.386Z" fill="#455A64"/>
<path d="M59.8252 440.815C201.197 440.233 359.792 440.223 501.164 440.815C359.792 441.406 201.197 441.397 59.8252 440.815Z" fill="#263238"/>
<path d="M315.597 295.631C329.751 297.885 339.004 300.472 345.172 306.657C351.341 312.842 357.848 323.579 364.608 335.818C371.368 348.058 382.635 369.142 382.635 369.142C378.154 376.476 372.276 382.806 365.354 387.755C358.109 392.993 350.201 397.194 341.849 400.24L311.991 356.05L315.597 295.631Z" fill="#A53860"/>
<path opacity="0.6" d="M315.597 295.631C329.751 297.885 339.004 300.472 345.172 306.657C351.341 312.842 357.848 323.579 364.608 335.818C371.368 348.058 382.635 369.142 382.635 369.142C378.154 376.476 372.276 382.806 365.354 387.755C358.109 392.993 350.201 397.194 341.849 400.24L311.991 356.05L315.597 295.631Z" fill="white"/>
<path d="M248.939 163.536C244.111 164.19 239.476 165.9 235.348 168.55C232.717 170.227 230.447 172.436 228.675 175.042C226.902 177.648 225.665 180.597 225.039 183.709C223.94 190.125 225.982 197.033 223.63 203.102C220.335 211.773 209.772 215.039 204.237 222.481C202.162 225.358 200.883 228.756 200.536 232.318C200.189 235.879 200.786 239.47 202.265 242.712C204.533 247.495 208.786 251.585 209.04 256.903C209.321 262.986 204.322 267.784 201.857 273.319C199.957 277.94 199.736 283.107 201.235 287.88C202.735 292.654 205.854 296.717 210.025 299.33C215.349 302.437 221.983 302.943 226.827 306.787C228.771 308.333 230.32 310.342 232.193 311.975C236.855 316.05 241.784 315.66 247.277 317.032C253.122 318.477 258.896 318.203 264.177 314.836C267.103 312.926 269.529 310.313 271.247 307.223C272.965 304.133 273.923 300.66 274.036 297.105C274.036 293.709 273.402 290.255 274.036 286.989C274.937 282.105 278.543 278.218 282.416 275.241C286.289 272.264 290.641 269.894 294.119 266.426C298.818 261.709 301.605 255.344 301.922 248.608C302.14 245.28 301.504 241.952 300.077 238.955C298.331 235.515 295.331 232.9 293.401 229.576C291.574 225.935 290.387 221.993 289.894 217.929C289.232 214.2 288.571 210.328 289.458 206.643C290.345 202.958 292.852 199.576 293.683 195.761C294.796 190.559 292.556 185.082 289.092 181.137C287.269 178.99 285.084 177.198 282.641 175.848C280.05 174.562 278.064 173.984 276.12 171.773C274.286 169.557 272.071 167.706 269.586 166.31C264.385 163.721 258.6 162.618 252.84 163.117C251.573 163.189 250.249 163.334 248.939 163.536Z" fill="#263238"/>
<path d="M258.247 267.177C258.909 260.761 252.374 248.651 246.98 234.128C239.643 214.2 239.29 188.594 259.149 185.183C265.289 170.284 282.584 159.099 316.089 166.787C348.313 174.186 357.552 202.914 342.186 222.582C326.821 242.249 258.247 267.177 258.247 267.177Z" fill="#37474F"/>
<path d="M340.651 242.784C336.792 274.576 327.328 279.98 322.046 281.801C316.765 283.622 307.23 282.611 301.062 281.238L298.724 295.804C298.724 295.804 309.991 306.252 306.92 311.021C301.723 319.113 284.964 315.154 273.697 310.472C263.599 306.281 258.74 301.165 256.289 297.466C255.53 296.164 255.274 294.617 255.571 293.131L259.965 250.573C259.965 250.573 255.008 253.579 247.543 248.42C240.825 243.781 239.347 229.287 245.614 223.073C247.247 221.479 249.342 220.476 251.581 220.215C253.821 219.954 256.082 220.45 258.022 221.628C263.585 225.053 263.824 228.854 263.373 234.822C263.169 237.674 263.169 240.538 263.373 243.391C264.247 249.865 268.007 252.668 272.176 253.608C270.592 251.099 269.625 248.232 269.359 245.255C269.035 240.804 268.401 236.585 273.781 228.333C275.781 225.27 279.246 222.481 281.936 220.212C284.626 217.943 287.781 215.747 289.935 213.55C294.16 209.215 297.132 202.307 296.977 197.51C303.583 201.946 311.371 203.174 317.962 203.521C328.314 204.042 336.412 200.631 338.214 197.51C339.235 199.385 339.976 201.406 340.411 203.507C341.375 207.739 341.955 212.055 342.144 216.397C342.345 225.22 341.845 234.044 340.651 242.784Z" fill="#FFBDA7"/>
<path d="M309.428 260.804C310.069 261.059 310.639 261.471 311.09 262.004C311.273 262.206 311.484 262.582 311.752 262.64C311.803 262.661 311.858 262.673 311.914 262.673C311.969 262.673 312.024 262.661 312.076 262.64C312.116 262.606 312.146 262.561 312.16 262.51C312.244 262.182 312.24 261.837 312.148 261.511C312.057 261.185 311.881 260.891 311.639 260.66C311.222 260.158 310.683 259.779 310.076 259.562C309.507 259.308 308.893 259.177 308.273 259.177C307.653 259.177 307.039 259.308 306.47 259.562C306.273 259.677 306.062 259.937 306.316 260.111C306.64 260.238 306.983 260.306 307.33 260.313C308.043 260.405 308.746 260.57 309.428 260.804Z" fill="#F0997A"/>
<path d="M306.034 233.825C306.034 236.079 304.246 236.108 302.035 236.108C299.823 236.108 298.049 236.108 298.049 233.825C298.109 232.78 298.556 231.799 299.298 231.081C300.041 230.364 301.022 229.964 302.042 229.964C303.061 229.964 304.043 230.364 304.785 231.081C305.527 231.799 305.974 232.78 306.034 233.825Z" fill="#263238"/>
<path d="M333.187 235.732C332.878 237.972 331.117 237.755 328.962 237.452C326.807 237.148 325.005 236.874 325.3 234.634C325.343 234.077 325.496 233.536 325.75 233.042C326.004 232.548 326.353 232.113 326.776 231.762C327.2 231.411 327.688 231.153 328.212 231.003C328.736 230.853 329.285 230.814 329.824 230.889C330.363 230.964 330.882 231.151 331.348 231.438C331.814 231.726 332.219 232.108 332.536 232.561C332.854 233.015 333.078 233.53 333.194 234.075C333.311 234.62 333.318 235.184 333.216 235.732H333.187Z" fill="#263238"/>
<path d="M314.02 223.969L314.583 252.957L328.498 249.778L314.02 223.969Z" fill="#F0997A"/>
<path d="M292.964 223.926L302.668 219.201C303.258 220.564 303.313 222.108 302.819 223.511C302.326 224.914 301.323 226.067 300.02 226.729C299.379 227.037 298.685 227.208 297.979 227.232C297.272 227.257 296.568 227.135 295.909 226.873C295.249 226.611 294.649 226.215 294.143 225.708C293.637 225.202 293.236 224.596 292.964 223.926Z" fill="#263238"/>
<path d="M331.357 220.198L339.159 227.9C338.696 228.446 338.13 228.89 337.494 229.204C336.858 229.518 336.167 229.696 335.462 229.728C334.757 229.759 334.053 229.642 333.393 229.385C332.734 229.128 332.132 228.736 331.625 228.232C330.573 227.19 329.957 225.77 329.907 224.27C329.857 222.771 330.377 221.311 331.357 220.198Z" fill="#263238"/>
<path d="M301.063 281.165C291.444 279.72 270.304 272.249 265.783 257.654C265.783 257.654 266.924 268.102 272.29 274.359C280.416 283.81 300.148 286.845 300.148 286.845L301.063 281.165Z" fill="#F0997A"/>
<path d="M361.2 439.387C361.2 439.387 355.116 469.864 310.794 483.722C266.473 497.581 215.504 484.17 215.504 484.17C215.504 460.153 221.743 442.827 224.616 416.873C227.531 390.486 216.757 379.908 214.039 358.506C212.729 348.261 209.476 307.076 227.658 301.498C238.122 298.29 244.558 297.163 255.487 294.576C255.452 295.602 255.733 296.613 256.29 297.466C258.741 301.151 263.6 306.252 273.698 310.472C284.965 315.168 301.724 319.142 306.921 311.021C309.992 306.252 298.725 295.804 298.725 295.804L299.077 293.637C301.513 293.839 309.527 294.532 314.569 295.457C323.625 297.134 333.328 308.087 348.511 338.882C356.102 354.272 365.411 374.142 344.623 391.671C343.792 403.145 346.032 409.778 344.483 423.304C344.469 423.231 355.355 432.769 361.2 439.387Z" fill="#A53860"/>
<path opacity="0.2" d="M315.005 386.035C315.005 386.035 307.259 402.35 286.711 401.15C267.909 400.052 260.839 383.506 260.839 383.506C260.839 383.506 261.05 405.702 286.64 406.468C312.23 407.234 315.005 386.035 315.005 386.035Z" fill="black"/>
<path d="M404.577 444.503C410.887 434.72 407.549 419.532 402.014 407.249C396.479 394.966 373.424 353.694 373.424 353.694L335.75 384.662L370.1 446.801L404.577 444.503Z" fill="#FFBDA7"/>
<path d="M388.748 411.396C393.128 408.94 399.874 411.165 399.874 411.165C398.424 409.714 396.697 408.586 394.801 407.852C392.906 407.118 390.883 406.795 388.86 406.902C382.269 407.422 388.748 411.396 388.748 411.396Z" fill="#F0997A"/>
<path d="M388.721 389.518C391.777 394.575 394.143 412.856 376.045 430.876C357.948 448.896 334.991 463.578 301.81 464.358C268.629 465.139 236.137 449.488 240.081 426.699C244.024 403.911 273.248 399.243 286.459 394.402C299.669 389.561 319.217 364.561 343.991 366.194C368.764 367.827 388.721 389.518 388.721 389.518Z" fill="#F0F0F0"/>
<path d="M327.046 447.35C325.989 445.11 325.018 442.827 324.229 440.5C322.543 435.816 321.298 430.977 320.511 426.049C318.896 416.327 318.996 406.386 320.807 396.7C322.009 390.828 323.676 385.067 325.792 379.474C325.989 378.954 325.398 378.029 324.961 378.694C319.567 387.466 316.948 397.943 316.159 408.217C315.322 418.579 316.529 429.009 319.708 438.882C320.591 441.636 321.635 444.334 322.835 446.96C324.243 449.937 325.778 453.145 328.355 455.182C328.478 455.295 328.63 455.368 328.793 455.394C328.956 455.419 329.123 455.394 329.272 455.324C329.422 455.253 329.548 455.139 329.635 454.996C329.723 454.853 329.767 454.686 329.764 454.517C329.862 452.148 328.017 449.416 327.046 447.35Z" fill="#E0E0E0"/>
<path d="M308.584 453.246C306.288 449.46 303.683 446.02 301.993 441.815C300.4 437.832 299.389 433.63 298.993 429.344C298.585 424.53 298.689 419.684 299.303 414.893C299.556 412.61 299.894 410.341 300.204 408.058C300.845 404.953 301.264 401.804 301.457 398.636C301.457 398.376 301.246 397.914 300.965 398.26C299.317 400.37 298.655 403.622 297.908 406.179C297.2 408.657 296.641 411.176 296.232 413.723C295.364 418.974 295.217 424.325 295.796 429.619C296.276 434.137 297.401 438.558 299.134 442.74C300.993 447.176 303.739 451.931 307.809 454.561C308.612 454.98 308.95 453.853 308.584 453.246Z" fill="#E0E0E0"/>
<path d="M384.565 420.211C371.453 428.145 338.089 443.26 324.104 444.142C309.724 445.038 294.443 439.807 285.599 428.246C283.895 426.006 281.979 423.289 279.205 423.289C276.149 423.289 274.092 426.859 274.247 430.009C274.402 433.159 276.022 435.963 277.064 438.925C278.106 441.887 278.289 445.558 276.149 447.798C274.503 449.184 272.447 449.954 270.318 449.98C262.038 450.796 253.694 449.365 246.122 445.833C256.713 457.754 279.148 464.951 301.88 464.402C335.061 463.621 358.046 448.925 376.115 430.919C379.339 427.71 382.176 424.115 384.565 420.211Z" fill="#EBEBEB"/>
<path d="M403.056 363.766C402.817 373.362 394.057 385.558 388.972 386.888C383.578 390.558 379.917 393.882 369.452 394.633C355.228 395.659 343.651 390.688 337.989 378.737C336.145 374.101 335.656 369.015 336.581 364.099C337.82 357.87 340.341 355.804 343.13 352.726C345.918 349.648 345.355 348.246 347.2 344.85C348.76 341.656 350.858 338.77 353.397 336.324C356.039 334.1 359.09 332.443 362.368 331.454C365.562 330.467 368.894 330.033 372.227 330.168C390.339 330.66 403.535 345.212 403.056 363.766Z" fill="#F7A9A0"/>
<path d="M392.522 372.451C390.536 371.006 387.156 370.529 385.255 372.451C385.043 372.668 384.973 373.564 385.452 373.52C386.772 373.247 388.119 373.13 389.466 373.174C390.647 373.305 391.75 373.845 392.592 374.705C394.55 376.757 393.55 379.619 392.296 381.772C391.724 382.937 390.931 383.973 389.964 384.819C388.997 385.665 387.874 386.304 386.663 386.7C385.601 387.006 384.466 386.9 383.476 386.401C382.486 385.903 381.71 385.047 381.297 383.997C381.114 383.549 380.607 383.723 380.579 384.185C380.438 386.887 383.029 388.781 385.466 388.954C386.69 388.963 387.901 388.687 389.006 388.147C390.111 387.606 391.082 386.815 391.846 385.833C393.64 383.874 394.818 381.407 395.226 378.752C395.35 377.551 395.166 376.337 394.691 375.232C394.217 374.127 393.469 373.168 392.522 372.451Z" fill="#F0997A"/>
<path d="M372.552 367.567C372.482 368.13 371.82 366.497 369.918 365.168C368.764 364.357 367.368 363.988 365.975 364.127C365.642 364.156 365.312 364.214 364.989 364.301C364.454 364.445 364.524 363.708 365.538 363.044C366.149 362.644 366.845 362.401 367.566 362.336C368.166 362.276 368.771 362.338 369.347 362.519C369.923 362.699 370.458 362.995 370.923 363.388C371.387 363.781 371.771 364.265 372.053 364.811C372.335 365.357 372.51 365.954 372.566 366.57C372.589 366.902 372.585 367.235 372.552 367.567Z" fill="#263238"/>
<path d="M352.34 357.047C352.213 357.538 351.791 356.006 350.242 354.619C349.3 353.762 348.092 353.276 346.834 353.246C346.533 353.224 346.232 353.224 345.932 353.246C345.439 353.318 345.58 352.683 346.552 352.191C347.14 351.903 347.787 351.764 348.439 351.787C348.989 351.768 349.537 351.87 350.046 352.084C350.555 352.298 351.015 352.621 351.394 353.03C351.773 353.44 352.063 353.927 352.246 354.46C352.428 354.993 352.499 355.559 352.453 356.122C352.446 356.433 352.408 356.743 352.34 357.047Z" fill="#263238"/>
<path d="M354.241 363.232C352.65 362.379 349.946 363.506 351.27 364.894C352.594 366.281 356.467 369.229 356.748 368.159C356.739 367.193 356.507 366.243 356.071 365.387C355.635 364.531 355.008 363.792 354.241 363.232Z" fill="#9A4A4D"/>
<path d="M357.932 375.963C357.932 376.372 357.814 376.771 357.593 377.111C357.372 377.451 357.057 377.716 356.689 377.872C356.321 378.028 355.916 378.069 355.525 377.99C355.135 377.91 354.776 377.713 354.494 377.424C354.213 377.135 354.021 376.767 353.943 376.366C353.865 375.965 353.905 375.55 354.058 375.172C354.21 374.794 354.468 374.472 354.799 374.245C355.131 374.018 355.52 373.896 355.918 373.896C356.452 373.896 356.965 374.114 357.342 374.502C357.72 374.889 357.932 375.415 357.932 375.963Z" fill="#9A4A4D"/>
<path d="M387.394 459.127C378.733 464.618 359.142 476.988 320.004 480.24C299.23 481.974 274.598 478.289 262.401 469.488C258.176 465.24 246.529 461.757 245.881 456.02C245.627 453.722 243.064 451.685 241.952 449.431C240.388 446.353 241.149 441.685 241.149 441.685C252.219 452.104 278.231 452.061 283.316 450.355C284.199 450.103 285.005 449.622 285.655 448.959C286.306 448.297 286.781 447.474 287.034 446.569C287.229 444.701 286.726 442.826 285.625 441.324C282.118 435.543 276.753 430.5 276.076 423.477C275.956 422.783 275.993 422.069 276.186 421.392C276.379 420.715 276.723 420.093 277.189 419.575C278.189 418.665 280.006 418.13 280.992 419.012C285.794 423.347 288.034 425.269 291.893 427.509C296.873 430.62 301.322 434.55 305.061 439.142C307.356 441.786 308.568 445.269 311.92 446.728C315.272 448.188 319.539 447.696 323.06 447.104C341.848 443.91 352.171 432.957 360.508 428.434C366.494 424.503 383.873 412.422 388.845 411.396C393.69 411.858 398.07 415.572 401.112 420.384C403.414 424.271 405.079 428.518 406.041 432.957C407.436 444.503 403.619 448.824 387.394 459.127Z" fill="#FFBDA7"/>
<path d="M227.757 302.148C203.927 307.292 196.308 314.272 190.914 342.177C187.153 361.613 182.252 405.76 181.055 433.072C180.548 444.879 183.365 455.847 197.434 462.133C208.467 466.766 219.793 470.628 231.334 473.693C258.727 480.717 287.669 488.708 315.921 486.699C330.638 485.63 334.638 483.708 343.018 479.344C346.567 476.858 350.919 476.367 354.665 474.575C356.651 473.13 357.299 470.023 359.552 468.983C361.806 467.942 365.932 468.26 366.397 467.003C370.622 455.948 336.131 461.873 329.286 460.182C324.371 459.633 315.076 457.292 319.949 450.529C322.934 445.789 327.469 441.656 328.103 435.818C328.61 433.275 326.793 429.604 324.596 431.093C322.399 432.581 317.991 436.873 314.907 438.954C310.893 441.711 307.173 444.893 303.809 448.448C300.488 451.482 296.275 453.293 291.838 453.592C275.219 453.173 234.7 429.864 229.404 427.162C230.686 399.864 246.84 325.399 227.757 302.148Z" fill="#FFBDA7"/>
<path d="M343.061 479.243C344.802 478.067 346.699 477.157 348.694 476.54C350.698 475.925 352.664 475.186 354.581 474.33C356.426 472.884 356.947 470.269 359.088 468.867C361.271 467.682 363.848 467.986 365.792 467.075C365.89 467.027 365.976 466.958 366.045 466.873C366.039 466.839 366.039 466.805 366.045 466.772V466.569C366.045 466.295 366.2 466.035 366.243 465.76C366.256 465.491 366.256 465.221 366.243 464.951C366.21 464.685 366.149 464.423 366.06 464.171C365.573 463.182 364.737 462.422 363.722 462.046C361.58 461.206 359.322 460.718 357.032 460.601C352.398 460.319 347.751 460.319 343.117 460.601L336.075 460.89C333.701 461.037 331.318 460.941 328.963 460.601H329.033C326.147 460.361 323.334 459.547 320.752 458.202C320.085 457.815 319.477 457.328 318.949 456.757C318.696 456.44 318.461 456.107 318.245 455.76C318.072 455.376 317.94 454.974 317.851 454.561C317.708 452.952 318.183 451.35 319.175 450.096C320.71 447.653 322.569 445.442 324.132 443.116C325.779 440.906 326.859 438.307 327.273 435.558C327.44 434.487 327.257 433.39 326.752 432.437C326.55 432.006 326.226 431.649 325.822 431.411C325.654 431.324 325.465 431.289 325.278 431.31C325.091 431.33 324.913 431.405 324.766 431.526C322.907 432.856 321.076 434.546 319.217 436.093C318.288 436.873 317.344 437.653 316.4 438.405C315.457 439.156 314.414 439.85 313.457 440.544C311.513 441.989 309.626 443.434 307.823 445.067C306.922 445.861 306.035 446.685 305.204 447.538L303.964 448.853C303.525 449.306 303.054 449.726 302.556 450.11C300.52 451.548 298.277 452.65 295.908 453.376C294.716 453.758 293.481 453.982 292.233 454.041C290.965 454.041 289.768 453.824 288.543 453.737C287.317 453.65 286.163 453.246 284.965 453C283.768 452.754 282.628 452.35 281.473 452.017C276.863 450.571 272.335 448.864 267.91 446.902C263.474 444.994 259.108 442.913 254.784 440.775C246.151 436.439 237.714 431.743 229.278 427.032C237.827 431.526 246.362 436.02 255.08 440.139C259.432 442.22 263.798 444.228 268.248 446.064C272.66 447.96 277.174 449.596 281.768 450.963C284.047 451.652 286.366 452.193 288.712 452.581C289.867 452.668 291.064 452.856 292.19 452.856C293.339 452.793 294.475 452.579 295.57 452.22C297.81 451.528 299.93 450.48 301.852 449.113C302.307 448.772 302.735 448.395 303.133 447.986L304.401 446.656C305.26 445.775 306.147 444.922 307.063 444.113C308.894 442.48 310.795 440.948 312.696 439.489C313.682 438.752 314.696 438.044 315.612 437.364C316.527 436.685 317.485 435.919 318.428 435.067C320.302 433.506 322.034 431.859 324.062 430.37C324.404 430.13 324.801 429.987 325.213 429.954C325.626 429.921 326.04 430 326.414 430.182C327.064 430.551 327.593 431.109 327.935 431.786C328.572 433.022 328.795 434.439 328.569 435.818C328.128 438.783 326.965 441.587 325.189 443.968C323.541 446.382 321.71 448.535 320.203 450.919C319.389 451.903 318.98 453.172 319.062 454.46C319.226 455.069 319.517 455.635 319.916 456.116C320.315 456.598 320.812 456.985 321.372 457.249C323.805 458.515 326.455 459.285 329.174 459.517C331.431 459.846 333.714 459.947 335.991 459.821L343.033 459.619C347.727 459.402 352.43 459.47 357.116 459.821C359.492 459.96 361.831 460.487 364.046 461.382C365.228 461.851 366.188 462.773 366.722 463.954C366.827 464.268 366.898 464.592 366.933 464.922C366.954 465.244 366.954 465.568 366.933 465.89C366.933 466.208 366.764 466.512 366.693 466.815L366.609 467.046L366.454 467.321C366.329 467.462 366.181 467.579 366.017 467.668C364.892 468.106 363.711 468.374 362.51 468.462C361.378 468.548 360.268 468.831 359.229 469.301C357.271 470.471 356.638 473.13 354.666 474.619C352.717 475.428 350.723 476.118 348.694 476.685C346.706 477.254 344.809 478.116 343.061 479.243Z" fill="#F0997A"/>
<path d="M227.743 301.368C210.222 304.489 197.012 307.914 190.322 337.104C183.632 366.295 181.013 403.304 181.013 403.304C181.013 403.304 187.026 410.934 205.997 413.954C224.968 416.974 231.742 414.199 231.742 414.199C231.742 414.199 237.136 374.85 239.108 360.659C241.08 346.468 242.347 311.946 227.743 301.368Z" fill="#A53860"/>
<path opacity="0.6" d="M227.743 301.368C210.222 304.489 197.012 307.914 190.322 337.104C183.632 366.295 181.013 403.304 181.013 403.304C181.013 403.304 187.026 410.934 205.997 413.954C224.968 416.974 231.742 414.199 231.742 414.199C231.742 414.199 237.136 374.85 239.108 360.659C241.08 346.468 242.347 311.946 227.743 301.368Z" fill="white"/>
</g>
<defs>
<clipPath id="clip0_24_1160">
<rect width="561" height="477" fill="white"/>
</clipPath>
</defs>
</svg>
